<?xml version="1.0" encoding="UTF-8" standalone="no"?>
<!-- Created with Inkscape (http://www.inkscape.org/) -->

<svg
   xmlns:dc="http://purl.org/dc/elements/1.1/"
   xmlns:cc="http://creativecommons.org/ns#"
   xmlns:rdf="http://www.w3.org/1999/02/22-rdf-syntax-ns#"
   xmlns:svg="http://www.w3.org/2000/svg"
   xmlns="http://www.w3.org/2000/svg"
   xmlns:sodipodi="http://sodipodi.sourceforge.net/DTD/sodipodi-0.dtd"
   xmlns:inkscape="http://www.inkscape.org/namespaces/inkscape"
   width="242.44501mm"
   height="118.957mm"
   viewBox="0 0 242.445 118.957"
   version="1.1"
   id="svg8"
   sodipodi:docname="bgImage.svg"
   inkscape:version="0.92.2 5c3e80d, 2017-08-06"
   inkscape:export-filename="/Users/macbook/Documents/Projects/hangman-game/assets/images/bgImage.png"
   inkscape:export-xdpi="96"
   inkscape:export-ydpi="96">
  <defs
     id="defs2">
    <clipPath
       id="clipPath47"
       clipPathUnits="userSpaceOnUse">
      <path
         inkscape:connector-curvature="0"
         id="path45"
         d="M 0,0 H 749.999 V 500 H 0 Z" />
    </clipPath>
    <clipPath
       id="clipPath55"
       clipPathUnits="userSpaceOnUse">
      <path
         inkscape:connector-curvature="0"
         id="path53"
         d="m -59.333,145.408 h 933.78 V -69.1524 h -933.78 z" />
    </clipPath>
    <clipPath
       id="clipPath71"
       clipPathUnits="userSpaceOnUse">
      <path
         inkscape:connector-curvature="0"
         id="path69"
         d="M 37.0274,93.6123 H 705.694 V 64.2783 H 37.0274 Z" />
    </clipPath>
    <clipPath
       id="clipPath87"
       clipPathUnits="userSpaceOnUse">
      <path
         inkscape:connector-curvature="0"
         id="path85"
         d="M -181.477,69.3125 H 990.303 V -162.289 h -1171.78 z" />
    </clipPath>
    <clipPath
       id="clipPath103"
       clipPathUnits="userSpaceOnUse">
      <path
         inkscape:connector-curvature="0"
         id="path101"
         d="M -100.204,507.155 H 871.585 V 203.958 h -971.789 z" />
    </clipPath>
    <clipPath
       id="clipPath107"
       clipPathUnits="userSpaceOnUse">
      <path
         inkscape:connector-curvature="0"
         id="path105"
         d="M 302.262,451.04 H 666.447 V 432.114 H 302.262 Z" />
    </clipPath>
    <clipPath
       id="clipPath111"
       clipPathUnits="userSpaceOnUse">
      <path
         inkscape:connector-curvature="0"
         id="path109"
         d="M 540.869,494.38 H 750.527 V 470.234 H 540.869 Z" />
    </clipPath>
    <clipPath
       id="clipPath115"
       clipPathUnits="userSpaceOnUse">
      <path
         inkscape:connector-curvature="0"
         id="path113"
         d="M -100.204,364.567 H 112.244 V 351.443 H -100.204 Z" />
    </clipPath>
    <clipPath
       id="clipPath119"
       clipPathUnits="userSpaceOnUse">
      <path
         inkscape:connector-curvature="0"
         id="path117"
         d="M 0.092804,386.529 H 163.736 V 369.786 H 0.092804 Z" />
    </clipPath>
    <clipPath
       id="clipPath123"
       clipPathUnits="userSpaceOnUse">
      <path
         inkscape:connector-curvature="0"
         id="path121"
         d="M 16.1589,465.18 H 252.162 V 441.035 H 16.1589 Z" />
    </clipPath>
    <clipPath
       id="clipPath127"
       clipPathUnits="userSpaceOnUse">
      <path
         inkscape:connector-curvature="0"
         id="path125"
         d="M 536.21,242.582 H 871.585 V 203.958 H 536.21 Z" />
    </clipPath>
    <clipPath
       id="clipPath131"
       clipPathUnits="userSpaceOnUse">
      <path
         inkscape:connector-curvature="0"
         id="path129"
         d="M -36.7051,266.169 H 340.814 V 227.544 H -36.7051 Z" />
    </clipPath>
    <clipPath
       id="clipPath135"
       clipPathUnits="userSpaceOnUse">
      <path
         inkscape:connector-curvature="0"
         id="path133"
         d="m 110.534,483.56 h 191.631 v -8.824 H 110.534 Z" />
    </clipPath>
    <clipPath
       id="clipPath139"
       clipPathUnits="userSpaceOnUse">
      <path
         inkscape:connector-curvature="0"
         id="path137"
         d="m 446.359,304.986 h 170.239 v -8.823 H 446.359 Z" />
    </clipPath>
    <clipPath
       id="clipPath143"
       clipPathUnits="userSpaceOnUse">
      <path
         inkscape:connector-curvature="0"
         id="path141"
         d="M -44.4013,283.436 H 326.683 v -8.825 H -44.4013 Z" />
    </clipPath>
    <clipPath
       id="clipPath147"
       clipPathUnits="userSpaceOnUse">
      <path
         inkscape:connector-curvature="0"
         id="path145"
         d="M -39.5214,500.164 H 391.552 V 491.34 H -39.5214 Z" />
    </clipPath>
    <clipPath
       id="clipPath151"
       clipPathUnits="userSpaceOnUse">
      <path
         inkscape:connector-curvature="0"
         id="path149"
         d="m 389.204,507.155 h 382.951 v -8.824 H 389.204 Z" />
    </clipPath>
    <clipPath
       id="clipPath155"
       clipPathUnits="userSpaceOnUse">
      <path
         inkscape:connector-curvature="0"
         id="path153"
         d="m 426.267,397.206 h 382.951 v -8.824 H 426.267 Z" />
    </clipPath>
    <clipPath
       id="clipPath323"
       clipPathUnits="userSpaceOnUse">
      <path
         inkscape:connector-curvature="0"
         id="path321"
         d="M 0,500 H 750 V 0 H 0 Z" />
    </clipPath>
    <clipPath
       id="clipPath603"
       clipPathUnits="userSpaceOnUse">
      <path
         inkscape:connector-curvature="0"
         id="path601"
         d="m 91.787,121.45 c 0.549,-3.325 2.194,-6.722 3.319,-9.758 v 0 c 1.829,-5.063 2.812,-11.39 6.186,-15.89 v 0 c 2.794,1.581 5.694,2.737 8.788,3.293 v 0 c -0.383,0.227 -0.745,0.476 -1.055,0.786 v 0 c -1.125,1.265 -1.828,3.373 -2.389,4.92 v 0 c -2.11,4.922 -5.344,10.263 -6.187,15.607 v 0 l -5.906,3.232 c -0.852,-0.902 -1.763,-1.634 -2.756,-2.19" />
    </clipPath>
    <clipPath
       id="clipPath635"
       clipPathUnits="userSpaceOnUse">
      <path
         inkscape:connector-curvature="0"
         id="path633"
         d="M 0,500 H 750 V 0 H 0 Z" />
    </clipPath>
    <clipPath
       id="clipPath663"
       clipPathUnits="userSpaceOnUse">
      <path
         inkscape:connector-curvature="0"
         id="path661"
         d="m 140.396,109.06 c -0.843,-5.341 -4.078,-10.685 -6.186,-15.605 v 0 c -0.562,-1.547 -1.265,-3.657 -2.39,-4.922 v 0 c -0.309,-0.31 -0.671,-0.558 -1.054,-0.783 v 0 c 3.094,-0.559 5.993,-1.714 8.787,-3.293 v 0 c 3.374,4.498 4.358,10.826 6.187,15.887 v 0 c 1.125,3.037 2.769,6.433 3.318,9.759 v 0 c -0.993,0.556 -1.904,1.29 -2.756,2.192 v 0 z" />
    </clipPath>
    <clipPath
       id="clipPath695"
       clipPathUnits="userSpaceOnUse">
      <path
         inkscape:connector-curvature="0"
         id="path693"
         d="M 0,500 H 750 V 0 H 0 Z" />
    </clipPath>
  </defs>
  <sodipodi:namedview
     id="base"
     pagecolor="#ffffff"
     bordercolor="#666666"
     borderopacity="1.0"
     inkscape:pageopacity="0.0"
     inkscape:pageshadow="2"
     inkscape:zoom="0.49497475"
     inkscape:cx="487.56532"
     inkscape:cy="348.6411"
     inkscape:document-units="mm"
     inkscape:current-layer="layer1"
     showgrid="false"
     inkscape:window-width="1280"
     inkscape:window-height="716"
     inkscape:window-x="0"
     inkscape:window-y="1"
     inkscape:window-maximized="1"
     units="mm"
     width="7.5in" />
  <metadata
     id="metadata5">
    <rdf:RDF>
      <cc:Work
         rdf:about="">
        <dc:format>image/svg+xml</dc:format>
        <dc:type
           rdf:resource="http://purl.org/dc/dcmitype/StillImage" />
        <dc:title></dc:title>
      </cc:Work>
    </rdf:RDF>
  </metadata>
  <g
     inkscape:label="Layer 1"
     inkscape:groupmode="layer"
     id="layer1"
     transform="translate(0,-178.04299)">
    <g
       id="g2800"
       transform="matrix(0.91632966,0,0,0.71113331,-15.79466,97.702639)">
      <path
         inkscape:connector-curvature="0"
         id="path39"
         style="fill:#53308d;fill-opacity:1;fill-rule:nonzero;stroke:none;stroke-width:0.35277778"
         d="M 17.387083,280.87301 H 281.97006 V 104.48413 H 17.387083 Z" />
      <g
         transform="matrix(0.35277777,0,0,-0.35277777,17.387083,280.87301)"
         id="g41">
        <g
           clip-path="url(#clipPath47)"
           id="g43">
          <g
             id="g49">
            <g
               id="g51" />
            <g
               id="g63">
              <g
                 style="opacity:0.5"
                 id="g61"
                 clip-path="url(#clipPath55)">
                <g
                   id="g59"
                   transform="translate(856.9542,-69.1524)">
                  <path
                     inkscape:connector-curvature="0"
                     id="path57"
                     style="fill:#8db2c3;fill-opacity:1;fill-rule:nonzero;stroke:none"
                     d="m 0,0 c 2.253,137.062 3.191,174.687 3.534,177.153 1.196,8.138 8.775,13.746 13.959,20.896 C 8.121,195.63 2.338,190.02 -1.85,185.071 c 1.795,7.919 3.789,16.056 9.573,23.535 -11.367,-5.609 -12.962,-16.826 -16.753,-24.305 -1.197,8.47 -0.199,16.717 0.399,25.183 -3.988,-5.057 -7.379,-9.897 -8.774,-15.395 -0.997,2.42 -1.197,4.949 -1.596,7.368 -1.795,-3.959 -3.39,-9.018 -3.19,-13.087 -3.39,6.818 -6.182,13.417 -10.569,20.016 2.393,-7.149 3.788,-17.267 -0.598,-24.195 -0.598,2.969 -2.393,5.718 -4.387,8.468 0.173,-2.951 -0.109,-8.042 -2.775,-11.139 -0.129,7.093 1.103,14.204 1.378,21.366 -2.394,-5.497 -5.583,-10.777 -6.78,-16.384 -2.793,5.937 -5.981,12.536 -10.37,18.145 1.397,-6.269 2.193,-12.867 1.196,-19.246 -2.79,3.3 -4.985,6.928 -7.777,10.229 0.599,-4.069 1.595,-8.029 0.398,-12.209 -1.594,5.28 -5.982,10.228 -8.972,15.288 1.196,-4.95 2.193,-10.118 -0.599,-14.957 -0.199,2.31 -1.795,5.06 -3.589,7.148 0,-2.968 -0.998,-5.499 -2.793,-8.358 0,4.618 -0.797,10.008 3.59,14.076 -7.179,-2.969 -13.161,-9.347 -13.362,-14.296 -1.196,1.43 -1.394,3.079 -1.594,4.509 -0.935,-1.717 -2.104,-3.435 -3.05,-5.154 0.351,4.488 1.581,9.114 3.25,12.852 -2.793,-2.968 -6.581,-6.049 -9.373,-9.128 -1.196,3.52 0.599,8.468 2.194,11.988 -5.783,-3.3 -9.175,-8.688 -11.568,-12.978 -0.598,2.86 -1.196,5.83 -1.992,8.688 -0.401,-3.847 -0.8,-7.917 -4.188,-11.437 0,6.378 1.593,12.537 4.984,18.585 -3.391,-4.068 -7.977,-7.697 -10.17,-11.986 -1.994,-3.629 -2.991,-7.589 -6.183,-10.887 -3.19,7.588 -3.389,15.945 -1.594,23.753 -4.986,-4.179 -7.378,-9.236 -8.575,-14.077 -0.797,1.871 -0.998,4.069 -2.793,5.831 -0.198,-3.521 0.201,-7.151 -1.196,-10.669 -0.997,6.268 -4.787,11.987 -9.372,17.705 0.798,-5.938 3.59,-11.767 1.594,-17.815 -1.992,2.2 -5.185,4.509 -6.382,6.929 0,-3.757 -0.923,-8.677 -3.306,-12.513 -0.338,5.747 -0.275,11.439 1.313,17.131 -2.394,-4.837 -7.977,-9.348 -10.37,-14.296 -3.191,5.609 -6.98,12.647 -7.976,18.475 0.399,-6.488 1.994,-12.976 0.199,-19.465 -2.193,3.519 -3.988,7.367 -5.984,10.997 0.598,-4.069 0,-8.137 -0.796,-12.096 -1.966,3.792 -4.693,8.008 -5.537,12.022 0.728,-4.448 0.274,-9.691 -3.239,-13.673 -0.795,3.63 -1.197,7.039 -0.996,10.668 -1.795,-1.21 -3.59,-2.529 -4.787,-4.069 1.197,4.838 0.799,10.117 5.585,14.406 -6.382,-3.519 -12.166,-8.358 -13.96,-13.307 v 5.169 c -1.299,-1.504 -2.702,-3.001 -4.225,-4.416 1.719,5.704 5.684,11.413 10.207,15.635 -5.184,-1.871 -10.769,-4.069 -13.76,-7.15 0.998,3.849 2.991,7.588 6.182,11.108 -9.971,-2.2 -17.748,-7.369 -21.338,-12.758 1.195,7.918 6.582,15.288 10.769,22.656 -5.185,-3.74 -9.172,-7.918 -12.363,-12.318 -3.59,-4.728 -3.791,-9.676 -6.581,-14.406 -5.585,7.588 -2.392,21.555 -0.997,26.064 -4.986,-4.619 -6.184,-9.677 -8.178,-14.846 -0.398,2.419 -0.597,4.837 -0.597,7.258 -1.795,-4.07 -1.993,-8.248 -3.19,-12.317 -3.39,5.827 -7.179,12.425 -8.377,18.475 0,-9.568 3.789,-19.904 -0.797,-29.363 -1.795,3.848 -3.39,8.137 -4.587,12.097 -0.398,-3.3 -1.196,-7.588 -3.988,-10.447 -0.2,1.87 -0.798,3.738 -1.196,5.498 -1.245,-1.22 -2.297,-2.595 -3.358,-3.913 0.304,1.616 0.659,3.22 0.965,4.793 1.196,5.719 2.194,11.437 3.589,17.047 -3.788,-4.619 -5.184,-9.788 -8.774,-14.518 -0.399,2.64 -0.997,5.39 -1.994,8.029 -1.196,3.188 -2.994,6.047 -4.786,9.677 1.196,-6.599 1.795,-14.186 -0.797,-20.675 -1.996,4.509 -3.59,8.579 -7.179,12.868 0.797,-4.509 1.395,-8.579 0.199,-13.087 -2.794,4.508 -5.187,9.017 -8.375,13.526 1.195,-4.948 4.785,-11.987 -0.201,-16.495 0.398,2.529 -1.197,5.607 -3.789,7.697 0,-2.859 -0.399,-6.159 -3.192,-8.577 -1.594,4.287 -0.398,10.447 2.593,14.515 -6.979,-3.849 -10.968,-9.898 -12.363,-15.285 -2.194,4.289 -1.795,9.677 0.198,14.076 -4.984,-3.74 -6.978,-8.468 -8.176,-12.978 -1.793,5.279 -1.195,10.119 -0.198,15.398 -5.583,-4.18 -5.982,-9.348 -7.378,-14.188 -1.996,3.19 -4.388,6.489 -6.581,9.678 1.196,-3.519 1.993,-7.588 0.599,-11.108 -0.998,1.32 -2.194,2.75 -3.592,3.96 -0.982,-2.016 -1.775,-4.085 -2.852,-6.094 -0.203,1.09 -0.376,2.116 -0.538,3.015 -0.997,5.498 1.994,11.438 7.179,16.386 -7.578,-4.619 -15.156,-13.856 -15.355,-20.125 -6.58,6.269 -1.595,15.946 -1.995,22.765 -2.99,-4.619 -9.77,-9.239 -9.571,-14.297 -0.399,1.979 -1.795,3.848 -2.593,5.828 -0.998,-3.519 -1.395,-7.148 -1.395,-10.776 -2.595,6.267 -5.983,12.317 -9.372,18.145 2.59,-7.589 3.59,-16.276 0,-23.865 -1.795,2.86 -1.598,6.269 -2.991,9.348 -1.598,-3.189 -2.992,-6.377 -3.991,-9.568 0,6.708 0.798,13.417 1.597,20.126 -3.59,-5.058 -6.184,-9.897 -8.975,-14.956 -1.595,5.497 -4.585,10.996 -8.376,16.166 1.396,-5.5 2.593,-11.438 1.996,-17.047 -3.391,2.53 -5.387,6.378 -8.377,9.128 -0.2,-3.079 0.597,-6.488 -0.2,-9.567 -2.792,3.299 -3.989,7.038 -6.579,10.338 1.475,-3.768 1.405,-10.077 -3.361,-13.697 0.28,3.686 0.838,7.436 1.168,11.057 -3.191,-1.98 -6.384,-3.96 -8.376,-6.378 0.599,5.718 2.591,11.656 6.581,16.824 -7.18,-3.958 -14.359,-6.273 -16.354,-11.771 -0.505,3.535 -0.009,2.988 0.756,6.383 0.53,0.655 1.047,1.317 1.54,1.996 -0.391,-0.102 -0.768,-0.216 -1.148,-0.328 0.017,0.067 0.032,0.134 0.048,0.202 -0.209,-0.116 -0.398,-0.241 -0.598,-0.361 -3.068,-0.96 -5.721,-2.274 -8.053,-3.775 -0.424,2.144 -0.394,4.339 -0.521,6.445 -4.604,-3.299 -5.427,-7.38 -5.654,-11.438 -0.498,-0.494 -0.973,-0.99 -1.435,-1.487 -0.352,0.58 -0.703,1.16 -1.048,1.742 1.633,6.637 3.819,13.326 8.637,19.557 -6.373,-3.144 -9.674,-8.052 -12.012,-13.076 -0.237,0.573 -0.459,1.151 -0.652,1.734 -0.336,-1.403 -0.436,-2.818 -0.442,-4.237 -0.919,-2.219 -1.719,-4.408 -2.582,-6.423 -0.464,0.321 -0.939,0.642 -1.419,0.962 -0.587,7.334 0.233,14.543 0.755,21.92 -3.988,-5.059 -7.378,-9.898 -8.774,-15.397 -0.997,2.421 -1.196,4.95 -1.596,7.369 -1.794,-3.959 -3.39,-9.018 -3.19,-13.087 -3.391,6.818 -6.183,13.416 -10.568,20.016 2.392,-7.148 3.787,-17.267 -0.599,-24.195 -0.599,2.97 -2.394,5.719 -4.388,8.468 0.172,-2.951 -0.108,-8.042 -2.773,-11.14 -0.131,7.093 1.101,14.204 1.377,21.368 -2.395,-5.498 -5.584,-10.778 -6.78,-16.386 -2.793,5.938 -5.982,12.537 -10.371,18.144 1.397,-6.267 2.194,-12.866 1.198,-19.245 -2.791,3.3 -4.987,6.929 -7.778,10.228 0.598,-4.069 1.596,-8.028 0.399,-12.206 -1.596,5.278 -5.983,10.227 -8.975,15.286 1.197,-4.949 2.195,-10.118 -0.598,-14.957 -0.199,2.309 -1.795,5.059 -3.589,7.149 0,-2.97 -0.998,-5.5 -2.791,-8.359 0,4.62 -0.799,10.009 3.588,14.076 -7.178,-2.968 -13.161,-9.346 -13.361,-14.295 -1.196,1.429 -1.395,3.078 -1.595,4.508 -0.934,-1.717 -2.103,-3.435 -3.049,-5.153 0.351,4.488 1.582,9.113 3.249,12.852 -2.791,-2.97 -6.581,-6.049 -9.372,-9.129 -1.197,3.52 0.598,8.47 2.193,11.989 -5.782,-3.301 -9.174,-8.689 -11.567,-12.978 -0.598,2.86 -1.196,5.829 -1.993,8.687 -0.4,-3.848 -0.799,-7.917 -4.187,-11.437 0,6.379 1.594,12.537 4.984,18.587 -3.39,-4.069 -7.976,-7.698 -10.17,-11.987 -1.994,-3.629 -2.992,-7.588 -6.181,-10.887 -3.192,7.587 -3.392,15.945 -1.597,23.754 -4.985,-4.18 -7.378,-9.238 -8.573,-14.078 -0.799,1.87 -0.998,4.069 -2.793,5.83 -0.2,-3.52 0.199,-7.149 -1.198,-10.668 -0.997,6.268 -4.787,11.986 -9.372,17.706 0.798,-5.94 3.589,-11.768 1.595,-17.817 -1.994,2.201 -5.185,4.509 -6.381,6.929 0,-3.757 -0.925,-8.678 -3.306,-12.513 -0.34,5.748 -0.277,11.441 1.312,17.132 -2.393,-4.839 -7.978,-9.348 -10.371,-14.297 -3.189,5.609 -6.979,12.647 -7.976,18.475 0.398,-6.488 1.994,-12.977 0.199,-19.465 -2.194,3.52 -3.989,7.369 -5.983,10.998 0.598,-4.07 0,-8.138 -0.797,-12.097 -1.964,3.792 -4.693,8.008 -5.537,12.024 0.729,-4.449 0.275,-9.692 -3.238,-13.674 -0.797,3.63 -1.196,7.037 -0.997,10.667 -1.795,-1.21 -3.589,-2.529 -4.786,-4.068 1.197,4.838 0.799,10.117 5.584,14.405 -6.381,-3.519 -12.164,-8.357 -13.959,-13.306 v 5.169 c -1.301,-1.506 -2.701,-3.003 -4.225,-4.417 1.717,5.705 5.684,11.413 10.207,15.634 -5.185,-1.87 -10.768,-4.069 -13.761,-7.149 0.998,3.85 2.993,7.59 6.183,11.107 -9.971,-2.198 -17.749,-7.367 -21.338,-12.756 1.195,7.918 6.581,15.286 10.769,22.656 -5.185,-3.741 -9.173,-7.919 -12.365,-12.317 -3.589,-4.729 -3.789,-0.298 -6.58,-5.025 -5.585,7.588 -2.392,12.173 -0.997,16.681 -4.986,-4.618 -6.182,-9.677 -8.176,-14.846 -0.399,2.419 -0.599,4.839 -0.599,7.258 -1.794,-4.068 -1.993,-8.248 -3.19,-12.317 -3.391,5.828 -7.179,12.427 -8.375,18.476 0,-9.569 3.788,-19.907 -0.799,-29.364 -1.794,3.85 -3.389,8.138 -4.586,12.097 -0.399,-3.299 -1.197,-7.589 -3.989,-10.447 -0.199,1.87 -0.796,3.74 -1.197,5.499 -1.244,-1.22 -2.296,-2.596 -3.357,-3.913 0.304,1.616 0.66,3.219 0.966,4.793 1.196,5.718 2.192,11.437 3.589,17.046 -3.79,-4.62 -5.186,-9.787 -8.776,-14.517 -0.398,2.639 -0.996,5.389 -1.992,8.027 -1.197,3.191 -2.992,6.05 -4.787,9.679 1.197,-6.6 1.795,-14.186 -0.797,-20.675 -1.996,4.508 -3.59,8.577 -7.18,12.866 0.798,-4.508 1.397,-8.578 0.199,-13.085 -2.792,4.507 -5.185,9.016 -8.375,13.526 1.197,-4.949 4.787,-11.987 -0.199,-16.496 0.398,2.529 -1.197,5.608 -3.79,7.697 0,-2.859 -0.398,-6.158 -3.19,-8.577 -1.596,4.289 -0.399,10.448 2.592,14.517 -6.979,-3.85 -10.967,-9.899 -12.364,-15.288 -2.193,4.29 -1.795,9.678 0.2,14.078 -4.986,-3.74 -6.981,-8.468 -8.176,-12.977 -1.795,5.277 -1.198,10.118 -0.2,15.396 -5.584,-4.179 -5.982,-9.348 -7.378,-14.186 -1.996,3.188 -4.388,6.488 -6.581,9.676 1.196,-3.518 1.995,-7.587 0.598,-11.106 -0.996,1.319 -2.193,2.749 -3.59,3.959 -0.984,-2.015 -1.776,-4.086 -2.853,-6.095 -0.202,1.09 -0.375,2.117 -0.537,3.015 -0.998,5.499 1.994,11.438 7.178,16.387 -7.577,-4.619 -15.155,-13.857 -15.354,-20.125 -6.581,6.268 -1.596,15.946 -1.994,22.764 -2.992,-4.62 -9.772,-9.238 -9.573,-14.297 -0.398,1.98 -1.794,3.849 -2.591,5.829 -0.998,-3.519 -1.397,-7.148 -1.397,-10.778 -2.594,6.269 -5.982,12.318 -9.373,18.146 2.592,-7.588 3.59,-16.275 0,-23.863 -1.795,2.859 -1.596,6.267 -2.991,9.347 -1.597,-3.19 -2.991,-6.379 -3.989,-9.567 0,6.708 0.799,13.417 1.596,20.124 -3.589,-5.059 -6.182,-9.897 -8.973,-14.956 -1.597,5.498 -4.588,10.996 -8.377,16.166 1.396,-5.499 2.592,-11.438 1.994,-17.046 -3.39,2.53 -5.385,6.378 -8.375,9.129 -0.199,-3.08 0.598,-6.49 -0.199,-9.568 -2.793,3.298 -3.99,7.037 -6.581,10.337 1.477,-3.767 1.405,-10.076 -3.361,-13.697 0.282,3.686 0.839,7.436 1.168,11.057 -3.191,-1.979 -6.383,-3.959 -8.377,-6.378 0.599,5.718 2.592,11.657 6.582,16.826 -7.179,-3.96 -14.359,-10.118 -16.353,-15.617 -0.599,4.18 0.199,8.028 1.196,12.098 -3.789,-2.091 -6.182,-4.84 -7.378,-7.7 -1.795,3.191 -1.596,6.709 -1.795,10.01 -5.983,-4.29 -5.584,-9.899 -5.783,-15.067 -2.393,3.959 -4.986,7.917 -6.381,12.096 -0.998,-4.179 0,-8.466 -0.199,-12.646 -4.588,3.299 -10.172,7.038 -15.954,9.458 5.384,-5.389 13.958,-14.736 12.163,-21.114 L -902.366,0" />
                </g>
              </g>
            </g>
          </g>
          <g
             id="g65">
            <g
               id="g67" />
            <g
               id="g79">
              <g
                 style="opacity:0.30000299"
                 id="g77"
                 clip-path="url(#clipPath71)">
                <g
                   id="g75"
                   transform="translate(705.6944,78.9443)">
                  <path
                     inkscape:connector-curvature="0"
                     id="path73"
                     style="fill:#8db2c3;fill-opacity:1;fill-rule:nonzero;stroke:none"
                     d="m 0,0 c 0,-8.1 -149.687,-14.666 -334.333,-14.666 -184.648,0 -334.334,6.566 -334.334,14.666 0,8.102 149.686,14.668 334.334,14.668 C -149.687,14.668 0,8.102 0,0" />
                </g>
              </g>
            </g>
          </g>
          <g
             id="g81">
            <g
               id="g83" />
            <g
               id="g95">
              <g
                 style="opacity:0.5"
                 id="g93"
                 clip-path="url(#clipPath87)">
                <g
                   id="g91"
                   transform="translate(-159.5263,-162.2891)">
                  <path
                     inkscape:connector-curvature="0"
                     id="path89"
                     style="fill:#8db2c3;fill-opacity:1;fill-rule:nonzero;stroke:none"
                     d="m 0,0 c -2.827,171.996 -4.005,181.566 -4.435,184.66 -1.501,10.211 -11.01,17.249 -17.516,26.221 11.761,-3.035 19.017,-10.075 24.272,-16.285 -2.252,9.937 -4.755,20.148 -12.011,29.534 14.262,-7.038 16.265,-21.114 21.022,-30.501 1.501,10.629 0.25,20.977 -0.501,31.602 5.005,-6.346 9.26,-12.419 11.011,-19.319 1.251,3.036 1.501,6.21 2.003,9.246 2.252,-4.969 4.253,-11.316 4.003,-16.422 4.254,8.556 7.757,16.836 13.262,25.118 -3.003,-8.971 -4.754,-21.668 0.751,-30.362 0.75,3.725 3.002,7.175 5.505,10.626 -0.217,-3.704 0.136,-10.092 3.482,-13.979 0.163,8.902 -1.384,17.824 -1.73,26.812 3.005,-6.898 7.006,-13.523 8.509,-20.558 3.505,7.449 7.506,15.729 13.013,22.769 -1.753,-7.868 -2.752,-16.146 -1.501,-24.152 3.501,4.14 6.256,8.693 9.759,12.836 -0.751,-5.107 -2.001,-10.076 -0.5,-15.321 2.001,6.625 7.507,12.836 11.26,19.184 -1.501,-6.211 -2.753,-12.696 0.751,-18.768 0.25,2.898 2.252,6.348 4.504,8.969 0,-3.724 1.252,-6.9 3.505,-10.488 0,5.795 1,12.558 -4.505,17.664 9.008,-3.725 16.516,-11.731 16.768,-17.94 1.501,1.795 1.749,3.864 2,5.659 1.173,-2.155 2.64,-4.311 3.827,-6.469 -0.44,5.633 -1.985,11.437 -4.078,16.129 3.505,-3.726 8.258,-7.59 11.761,-11.455 1.501,4.418 -0.751,10.627 -2.752,15.043 7.256,-4.141 11.513,-10.903 14.516,-16.285 0.751,3.587 1.501,7.316 2.5,10.902 0.504,-4.828 1.003,-9.936 5.256,-14.353 0,8.004 -2,15.734 -6.255,23.323 4.255,-5.106 10.01,-9.66 12.762,-15.04 2.503,-4.555 3.754,-9.525 7.759,-13.663 4.003,9.522 4.253,20.009 2.001,29.807 6.255,-5.244 9.258,-11.59 10.759,-17.666 1.001,2.35 1.252,5.108 3.505,7.318 0.249,-4.417 -0.251,-8.972 1.501,-13.388 1.251,7.867 6.008,15.043 11.761,22.218 -1.001,-7.453 -4.505,-14.766 -2,-22.357 2.5,2.761 6.506,5.66 8.009,8.697 0,-4.715 1.158,-10.89 4.148,-15.703 0.424,7.211 0.346,14.354 -1.647,21.498 3.004,-6.072 10.009,-11.732 13.013,-17.941 4.003,7.039 8.758,15.871 10.008,23.184 -0.5,-8.141 -2.502,-16.284 -0.25,-24.426 2.753,4.416 5.005,9.246 7.51,13.801 -0.75,-5.108 0,-10.211 0.999,-15.18 2.467,4.758 5.89,10.051 6.948,15.086 -0.913,-5.582 -0.345,-12.16 4.065,-17.156 0.998,4.553 1.502,8.832 1.25,13.385 2.253,-1.518 4.505,-3.173 6.007,-5.106 -1.502,6.07 -1.003,12.695 -7.009,18.078 8.009,-4.416 15.266,-10.489 17.519,-16.699 v 6.488 c 1.63,-1.889 3.39,-3.768 5.301,-5.543 -2.156,7.157 -7.133,14.322 -12.809,19.62 6.505,-2.348 13.514,-5.106 17.268,-8.973 -1.253,4.831 -3.754,9.522 -7.758,13.94 12.512,-2.761 22.272,-9.247 26.777,-16.01 -1.5,9.938 -8.26,19.184 -13.515,28.43 6.508,-4.693 11.512,-9.935 15.515,-15.456 4.504,-5.935 4.757,-12.144 8.258,-18.078 7.008,9.521 3.002,27.049 1.251,32.707 6.257,-5.795 7.76,-12.145 10.262,-18.631 0.5,3.036 0.75,6.07 0.75,9.107 2.253,-5.105 2.5,-10.349 4.003,-15.455 4.255,7.314 9.01,15.592 10.512,23.184 0,-12.006 -4.755,-24.978 1,-36.848 2.253,4.83 4.255,10.213 5.756,15.182 0.5,-4.142 1.501,-9.522 5.004,-13.11 0.251,2.346 1.001,4.69 1.501,6.899 1.563,-1.531 2.883,-3.256 4.214,-4.91 -0.382,2.027 -0.826,4.041 -1.211,6.013 -1.5,7.178 -2.753,14.354 -4.504,21.393 4.754,-5.797 6.506,-12.283 11.011,-18.218 0.5,3.312 1.252,6.763 2.503,10.075 1.5,4 3.756,7.588 6.005,12.145 -1.5,-8.283 -2.253,-17.804 1.001,-25.945 2.505,5.658 4.505,10.764 9.009,16.146 -1,-5.658 -1.752,-10.766 -0.25,-16.422 3.506,5.656 6.509,11.317 10.509,16.975 -1.5,-6.211 -6.005,-15.043 0.252,-20.699 -0.5,3.173 1.502,7.035 4.755,9.658 0,-3.588 0.5,-7.73 4.005,-10.764 2.001,5.38 0.5,13.11 -3.254,18.214 8.759,-4.829 13.764,-12.419 15.515,-19.181 2.753,5.383 2.252,12.145 -0.249,17.664 6.255,-4.692 8.757,-10.626 10.26,-16.285 2.25,6.624 1.5,12.698 0.249,19.322 7.006,-5.246 7.507,-11.73 9.258,-17.804 2.504,4.004 5.507,8.144 8.258,12.144 -1.501,-4.415 -2.501,-9.521 -0.751,-13.937 1.252,1.654 2.752,3.451 4.507,4.969 1.233,-2.532 2.228,-5.125 3.578,-7.649 0.255,1.367 0.474,2.656 0.676,3.785 1.251,6.899 -2.501,14.352 -9.009,20.563 9.51,-5.798 19.02,-17.389 19.27,-25.256 8.257,7.867 2.001,20.011 2.502,28.568 3.753,-5.798 12.261,-11.594 12.011,-17.941 0.501,2.483 2.252,4.829 3.253,7.312 1.253,-4.414 1.751,-8.969 1.751,-13.521 3.256,7.864 7.508,15.455 11.761,22.769 -3.25,-9.523 -4.505,-20.423 0,-29.948 2.253,3.589 2.005,7.867 3.754,11.731 2.005,-4.001 3.754,-8.003 5.007,-12.005 0,8.416 -1.001,16.836 -2.003,25.254 4.504,-6.348 7.76,-12.42 11.262,-18.768 2.003,6.899 5.755,13.799 10.51,20.286 -1.751,-6.901 -3.253,-14.352 -2.503,-21.391 4.254,3.173 6.759,8.004 10.512,11.455 0.25,-3.865 -0.75,-8.143 0.25,-12.007 3.503,4.14 5.006,8.833 8.256,12.974 -1.851,-4.729 -1.763,-12.645 4.218,-17.188 -0.352,4.625 -1.052,9.33 -1.466,13.875 4.005,-2.485 8.011,-4.97 10.511,-8.004 -0.751,7.176 -3.251,14.627 -8.258,21.113 9.009,-4.966 18.019,-7.873 20.522,-14.771 0.634,4.434 0.012,3.75 -0.949,8.008 -0.664,0.823 -1.314,1.654 -1.932,2.506 0.491,-0.128 0.963,-0.272 1.441,-0.413 -0.021,0.084 -0.041,0.17 -0.062,0.254 0.264,-0.146 0.5,-0.3 0.75,-0.452 3.852,-1.205 7.18,-2.854 10.107,-4.737 0.533,2.689 0.495,5.444 0.654,8.088 5.778,-4.141 6.81,-9.262 7.096,-14.354 0.625,-0.621 1.221,-1.242 1.8,-1.866 0.442,0.728 0.883,1.455 1.314,2.185 -2.048,8.33 -4.791,16.723 -10.838,24.543 7.998,-3.946 12.139,-10.106 15.074,-16.409 0.297,0.719 0.576,1.444 0.819,2.175 0.42,-1.76 0.545,-3.536 0.555,-5.315 1.153,-2.785 2.157,-5.533 3.239,-8.061 0.583,0.403 1.179,0.805 1.78,1.207 0.738,9.203 -0.291,18.25 -0.947,27.508 5.005,-6.35 9.26,-12.423 11.01,-19.322 1.253,3.037 1.503,6.211 2.003,9.246 2.251,-4.968 4.255,-11.316 4.003,-16.422 4.255,8.557 7.759,16.836 13.263,25.117 -3.003,-8.969 -4.753,-21.668 0.751,-30.361 0.751,3.726 3.004,7.177 5.505,10.626 -0.215,-3.702 0.137,-10.092 3.481,-13.979 0.164,8.902 -1.382,17.825 -1.727,26.813 3.004,-6.9 7.007,-13.523 8.507,-20.562 3.505,7.452 7.507,15.733 13.014,22.769 -1.754,-7.864 -2.754,-16.146 -1.504,-24.15 3.504,4.141 6.258,8.696 9.761,12.834 -0.75,-5.105 -2.003,-10.073 -0.5,-15.317 2.003,6.624 7.508,12.835 11.262,19.184 -1.502,-6.212 -2.754,-12.699 0.75,-18.771 0.25,2.899 2.253,6.35 4.505,8.973 0,-3.729 1.252,-6.903 3.502,-10.49 0,5.796 1.003,12.558 -4.503,17.663 9.009,-3.724 16.514,-11.728 16.766,-17.939 1.502,1.793 1.752,3.863 2.002,5.658 1.172,-2.154 2.639,-4.311 3.828,-6.466 -0.442,5.63 -1.986,11.434 -4.078,16.127 3.502,-3.727 8.257,-7.59 11.761,-11.456 1.501,4.416 -0.752,10.629 -2.753,15.043 7.256,-4.14 11.513,-10.902 14.514,-16.285 0.752,3.59 1.502,7.317 2.502,10.903 0.502,-4.83 1.002,-9.936 5.255,-14.352 0,8.004 -2,15.732 -6.255,23.324 4.255,-5.107 10.01,-9.662 12.763,-15.043 2.501,-4.554 3.753,-9.522 7.756,-13.662 4.004,9.522 4.256,20.01 2.004,29.809 6.256,-5.246 9.258,-11.594 10.758,-17.666 1.003,2.345 1.253,5.105 3.504,7.315 0.25,-4.417 -0.25,-8.97 1.504,-13.387 1.25,7.867 6.007,15.042 11.761,22.219 -1.002,-7.454 -4.504,-14.767 -2.002,-22.356 2.503,2.76 6.507,5.656 8.007,8.693 0,-4.715 1.16,-10.889 4.15,-15.701 0.426,7.211 0.347,14.355 -1.649,21.498 3.004,-6.072 10.014,-11.73 13.016,-17.941 4.003,7.039 8.759,15.871 10.009,23.183 -0.499,-8.142 -2.502,-16.283 -0.249,-24.426 2.752,4.416 5.004,9.248 7.507,13.801 -0.75,-5.107 0,-10.213 1,-15.18 2.465,4.757 5.889,10.049 6.949,15.088 -0.915,-5.582 -0.345,-12.162 4.063,-17.159 1,4.556 1.5,8.831 1.25,13.386 2.253,-1.518 4.504,-3.174 6.007,-5.105 -1.503,6.072 -1.003,12.697 -7.007,18.077 8.007,-4.415 15.264,-10.488 17.517,-16.697 v 6.487 c 1.632,-1.891 3.39,-3.769 5.3,-5.543 -2.154,7.16 -7.131,14.322 -12.808,19.619 6.508,-2.348 13.513,-5.108 17.269,-8.973 -1.252,4.832 -3.756,9.525 -7.76,13.94 12.514,-2.76 22.274,-9.246 26.777,-16.008 -1.499,9.935 -8.258,19.182 -13.512,28.43 6.505,-4.694 11.51,-9.938 15.514,-15.456 4.506,-5.935 4.756,-0.375 8.258,-6.306 7.008,9.521 3.003,15.275 1.25,20.932 6.258,-5.793 7.76,-12.142 10.262,-18.629 0.5,3.035 0.752,6.071 0.752,9.107 2.251,-5.104 2.501,-10.35 4.004,-15.455 4.255,7.312 9.007,15.594 10.507,23.184 0,-12.007 -4.752,-24.979 1.004,-36.846 2.25,4.83 4.252,10.21 5.754,15.179 0.5,-4.14 1.502,-9.524 5.006,-13.111 0.25,2.348 1,4.694 1.502,6.901 1.562,-1.531 2.881,-3.256 4.213,-4.911 -0.383,2.03 -0.828,4.041 -1.213,6.016 -1.5,7.176 -2.75,14.352 -4.504,21.39 4.757,-5.796 6.509,-12.283 11.014,-18.217 0.5,3.311 1.25,6.763 2.5,10.073 1.502,4.004 3.754,7.592 6.007,12.147 -1.503,-8.283 -2.253,-17.803 1,-25.946 2.505,5.658 4.505,10.764 9.008,16.147 -1,-5.658 -1.751,-10.766 -0.25,-16.422 3.504,5.656 6.508,11.314 10.511,16.975 -1.501,-6.211 -6.007,-15.043 0.25,-20.702 -0.499,3.174 1.503,7.039 4.756,9.66 0,-3.589 0.5,-7.728 4.004,-10.763 2.001,5.382 0.5,13.11 -3.253,18.216 8.758,-4.831 13.762,-12.422 15.515,-19.183 2.753,5.381 2.253,12.144 -0.251,17.664 6.257,-4.691 8.76,-10.625 10.26,-16.283 2.253,6.622 1.503,12.696 0.25,19.318 7.008,-5.243 7.507,-11.728 9.259,-17.801 2.504,4.002 5.507,8.143 8.26,12.142 -1.502,-4.413 -2.504,-9.52 -0.752,-13.935 1.25,1.655 2.753,3.45 4.504,4.967 1.236,-2.529 2.23,-5.127 3.582,-7.649 0.254,1.37 0.471,2.657 0.674,3.784 1.252,6.902 -2.502,14.354 -9.008,20.565 9.508,-5.797 19.018,-17.391 19.268,-25.254 8.258,7.863 2.003,20.009 2.503,28.564 3.752,-5.797 12.26,-11.592 12.01,-17.941 0.5,2.486 2.253,4.832 3.253,7.315 1.253,-4.415 1.753,-8.97 1.753,-13.524 3.255,7.866 7.507,15.458 11.762,22.77 -3.252,-9.522 -4.505,-20.423 0,-29.945 2.253,3.589 2.003,7.864 3.754,11.729 2.003,-4.002 3.753,-8.004 5.006,-12.006 0,8.418 -1.003,16.838 -2.004,25.255 4.505,-6.349 7.758,-12.421 11.259,-18.768 2.004,6.898 5.758,13.798 10.514,20.285 -1.753,-6.9 -3.253,-14.352 -2.503,-21.391 4.253,3.176 6.757,8.004 10.51,11.457 0.25,-3.866 -0.75,-8.145 0.25,-12.007 3.505,4.139 5.005,8.83 8.259,12.971 -1.855,-4.726 -1.764,-12.643 4.217,-17.186 -0.354,4.625 -1.053,9.33 -1.467,13.875 4.006,-2.485 8.011,-4.969 10.512,-8.004 -0.751,7.174 -3.251,14.628 -8.259,21.114 9.009,-4.97 18.018,-12.696 20.521,-19.597 0.751,5.245 -0.25,10.075 -1.501,15.18 4.755,-2.624 7.759,-6.072 9.259,-9.661 2.251,4.003 2.001,8.42 2.251,12.561 7.51,-5.384 7.008,-12.423 7.258,-18.908 3.002,4.969 6.258,9.936 8.008,15.18 1.253,-5.244 0,-10.625 0.25,-15.869 5.755,4.138 12.763,8.831 20.02,11.868 -6.757,-6.763 -17.516,-18.491 -15.265,-26.496 L 1132.359,0" />
                </g>
              </g>
            </g>
          </g>
          <g
             id="g97">
            <g
               id="g99" />
            <g
               id="g315">
              <g
                 style="opacity:0.5"
                 id="g313"
                 clip-path="url(#clipPath103)">
                <g
                   id="g167">
                  <g
                     id="g157" />
                  <g
                     id="g165">
                    <g
                       style="opacity:0.33999604"
                       id="g163"
                       clip-path="url(#clipPath107)">
                      <g
                         id="g161"
                         transform="translate(302.2618,435.1758)">
                        <path
                           inkscape:connector-curvature="0"
                           id="path159"
                           style="fill:#f6f9f4;fill-opacity:1;fill-rule:nonzero;stroke:none"
                           d="m 0,0 c 6.211,2.042 14.761,4.451 22.392,2.151 9.091,-2.739 12.614,-0.109 22.212,1.592 9.035,1.702 16.375,4.083 24.844,0 10.729,5.445 20.891,-1.361 32.748,-0.34 14.681,1.361 20.326,6.125 36.701,4.083 35.139,-4.812 14.532,-2.819 56.093,1.034 3.815,0.353 13.817,-1.076 14.381,-1.416 10.73,15.313 47.535,7.869 58.263,-2 2.822,5.105 17.504,6.806 19.197,0 8.468,2.722 16.6,0.758 21.756,-1.361 6.457,-2.653 13.252,0.681 20.591,0 7.341,-0.68 28.796,-3.743 35.008,-6.805 z" />
                      </g>
                    </g>
                  </g>
                </g>
                <g
                   id="g179">
                  <g
                     id="g169" />
                  <g
                     id="g177">
                    <g
                       style="opacity:0.33999604"
                       id="g175"
                       clip-path="url(#clipPath111)">
                      <g
                         id="g173"
                         transform="translate(540.8692,470.5)">
                        <path
                           inkscape:connector-curvature="0"
                           id="path171"
                           style="fill:#f6f9f4;fill-opacity:1;fill-rule:nonzero;stroke:none"
                           d="m 0,0 c 26.326,4.776 52.651,0.796 80.293,3.449 11.189,1.062 34.224,14.064 43.438,6.634 0.987,7.695 14.808,9.021 19.086,2.653 1.975,3.981 7.898,5.042 12.833,4.246 1.318,5.572 13.163,7.695 19.415,6.634 8.557,-1.327 11.189,-6.103 13.164,-11.941 1.974,-6.634 0,-7.96 9.214,-9.022 4.935,-0.53 12.833,1.062 12.176,-2.919 z" />
                      </g>
                    </g>
                  </g>
                </g>
                <g
                   id="g191">
                  <g
                     id="g181" />
                  <g
                     id="g189">
                    <g
                       style="opacity:0.33999604"
                       id="g187"
                       clip-path="url(#clipPath115)">
                      <g
                         id="g185"
                         transform="translate(-100.2041,353.5664)">
                        <path
                           inkscape:connector-curvature="0"
                           id="path183"
                           style="fill:#f6f9f4;fill-opacity:1;fill-rule:nonzero;stroke:none"
                           d="m 0,0 c 3.623,1.416 8.611,3.086 13.063,1.491 5.303,-1.899 7.358,-0.075 12.958,1.105 5.269,1.179 9.551,2.831 14.493,0 C 46.772,6.37 52.7,1.652 59.617,2.36 c 8.564,0.943 11.857,4.246 21.409,2.831 20.498,-3.337 8.477,-1.955 32.722,0.716 2.226,0.245 8.061,-0.745 8.39,-0.98 6.258,10.617 27.728,5.455 33.987,-1.388 1.646,3.539 10.211,4.72 11.198,0 4.941,1.888 9.684,0.525 12.693,-0.943 3.766,-1.84 7.729,0.471 12.011,0 4.282,-0.473 16.798,-2.596 20.421,-4.719 z" />
                      </g>
                    </g>
                  </g>
                </g>
                <g
                   id="g203">
                  <g
                     id="g193" />
                  <g
                     id="g201">
                    <g
                       style="opacity:0.33999604"
                       id="g199"
                       clip-path="url(#clipPath119)">
                      <g
                         id="g197"
                         transform="translate(0.0928,369.9707)">
                        <path
                           inkscape:connector-curvature="0"
                           id="path195"
                           style="fill:#f6f9f4;fill-opacity:1;fill-rule:nonzero;stroke:none"
                           d="m 0,0 c 20.548,3.312 41.096,0.552 62.671,2.392 8.733,0.735 26.712,9.751 33.904,4.599 0.771,5.336 11.558,6.256 14.898,1.84 1.541,2.76 6.164,3.496 10.016,2.944 1.029,3.864 10.275,5.335 15.155,4.6 6.677,-0.92 8.732,-4.232 10.274,-8.28 1.541,-4.6 0,-5.52 7.191,-6.256 3.853,-0.367 10.017,0.736 9.504,-2.024 z" />
                      </g>
                    </g>
                  </g>
                </g>
                <g
                   id="g215">
                  <g
                     id="g205" />
                  <g
                     id="g213">
                    <g
                       style="opacity:0.33999604"
                       id="g211"
                       clip-path="url(#clipPath123)">
                      <g
                         id="g209"
                         transform="translate(252.1622,441.2998)">
                        <path
                           inkscape:connector-curvature="0"
                           id="path207"
                           style="fill:#f6f9f4;fill-opacity:1;fill-rule:nonzero;stroke:none"
                           d="m 0,0 c -29.635,4.776 -59.268,0.796 -90.383,3.45 -12.596,1.061 -38.524,14.063 -48.896,6.634 -1.111,7.694 -16.669,9.021 -21.485,2.653 -2.222,3.98 -8.889,5.041 -14.446,4.245 -1.482,5.573 -14.817,7.696 -21.854,6.634 -9.631,-1.327 -12.595,-6.103 -14.818,-11.94 -2.222,-6.634 0,-7.96 -10.372,-9.023 -5.556,-0.53 -14.445,1.063 -13.706,-2.918 z" />
                      </g>
                    </g>
                  </g>
                </g>
                <g
                   id="g227">
                  <g
                     id="g217" />
                  <g
                     id="g225">
                    <g
                       style="opacity:0.33999604"
                       id="g223"
                       clip-path="url(#clipPath127)">
                      <g
                         id="g221"
                         transform="translate(871.585,204.3828)">
                        <path
                           inkscape:connector-curvature="0"
                           id="path219"
                           style="fill:#f6f9f4;fill-opacity:1;fill-rule:nonzero;stroke:none"
                           d="m 0,0 c -42.112,7.639 -84.223,1.272 -128.439,5.519 -17.899,1.698 -54.747,22.494 -69.486,10.611 -1.578,12.309 -23.687,14.431 -30.53,4.244 -3.159,6.367 -12.633,8.065 -20.53,6.791 -2.106,8.913 -21.056,12.311 -31.057,10.611 -13.686,-2.122 -17.896,-9.763 -21.056,-19.1 -3.158,-10.611 0,-12.734 -14.739,-14.432 -7.894,-0.848 -20.527,1.698 -19.476,-4.669 z" />
                      </g>
                    </g>
                  </g>
                </g>
                <g
                   id="g239">
                  <g
                     id="g229" />
                  <g
                     id="g237">
                    <g
                       style="opacity:0.33999604"
                       id="g235"
                       clip-path="url(#clipPath131)">
                      <g
                         id="g233"
                         transform="translate(340.8135,227.9687)">
                        <path
                           inkscape:connector-curvature="0"
                           id="path231"
                           style="fill:#f6f9f4;fill-opacity:1;fill-rule:nonzero;stroke:none"
                           d="m 0,0 c -47.404,7.64 -94.807,1.272 -144.58,5.519 -20.148,1.698 -61.625,22.494 -78.216,10.611 -1.776,12.309 -26.664,14.431 -34.367,4.244 -3.557,6.367 -14.221,8.065 -23.109,6.791 -2.372,8.914 -23.703,12.311 -34.96,10.612 -15.406,-2.123 -20.145,-9.764 -23.702,-19.101 -3.554,-10.611 0,-12.734 -16.592,-14.432 -8.886,-0.848 -23.107,1.698 -21.923,-4.669 z" />
                      </g>
                    </g>
                  </g>
                </g>
                <g
                   id="g251">
                  <g
                     id="g241" />
                  <g
                     id="g249">
                    <g
                       style="opacity:0.33999604"
                       id="g247"
                       clip-path="url(#clipPath135)">
                      <g
                         id="g245"
                         transform="translate(115.7207,476.8174)">
                        <path
                           inkscape:connector-curvature="0"
                           id="path243"
                           style="fill:#f6f9f4;fill-opacity:1;fill-rule:nonzero;stroke:none"
                           d="m 0,0 c 8.148,0.354 18.495,4.914 26.176,3.538 12.842,-2.3 15.557,4.423 26.67,2.653 12.875,-2.205 29.413,-2.544 39.018,-1.945 11.854,0.707 20.002,4.245 31.363,1.415 5.433,-1.415 -0.496,-3.891 14.57,-1.238 5.699,1.004 7.901,1.06 14.569,0.53 11.36,-1.061 24.695,-0.53 34.078,-1.061 C 178.79,3.185 158.047,4.246 145.205,2.3 129.401,0.178 120.264,-0.885 104.211,0.885 91.616,2.477 76.307,3.008 63.465,1.946 49.636,1.062 42.229,-4.068 27.411,-1.238 20.743,0.178 18.273,0.178 11.606,-0.177 7.161,-0.354 1.729,-0.707 -5.187,-0.53 Z" />
                      </g>
                    </g>
                  </g>
                </g>
                <g
                   id="g263">
                  <g
                     id="g253" />
                  <g
                     id="g261">
                    <g
                       style="opacity:0.33999604"
                       id="g259"
                       clip-path="url(#clipPath139)">
                      <g
                         id="g257"
                         transform="translate(450.9669,298.2441)">
                        <path
                           inkscape:connector-curvature="0"
                           id="path255"
                           style="fill:#f6f9f4;fill-opacity:1;fill-rule:nonzero;stroke:none"
                           d="M 0,0 C 7.239,0.354 16.431,4.913 23.254,3.537 34.662,1.238 37.075,7.96 46.946,6.191 58.385,3.985 73.076,3.647 81.609,4.245 c 10.531,0.708 17.77,4.246 27.862,1.415 4.827,-1.415 -0.44,-3.891 12.943,-1.238 5.064,1.004 7.02,1.061 12.943,0.531 10.092,-1.061 21.939,-0.531 30.274,-1.061 -6.8,-0.707 -25.228,0.353 -36.636,-1.593 C 114.956,0.177 106.838,-0.885 92.577,0.885 81.39,2.477 67.788,3.007 56.38,1.945 44.096,1.062 37.515,-4.068 24.352,-1.238 18.428,0.177 16.233,0.177 10.311,-0.177 6.362,-0.354 1.536,-0.708 -4.607,-0.53 Z" />
                      </g>
                    </g>
                  </g>
                </g>
                <g
                   id="g275">
                  <g
                     id="g265" />
                  <g
                     id="g273">
                    <g
                       style="opacity:0.33999604"
                       id="g271"
                       clip-path="url(#clipPath143)">
                      <g
                         id="g269"
                         transform="translate(-34.3584,276.6934)">
                        <path
                           inkscape:connector-curvature="0"
                           id="path267"
                           style="fill:#f6f9f4;fill-opacity:1;fill-rule:nonzero;stroke:none"
                           d="m 0,0 c 15.78,0.354 35.814,4.913 50.688,3.538 24.868,-2.301 30.127,4.422 51.645,2.653 24.933,-2.206 56.956,-2.544 75.559,-1.946 22.952,0.708 38.732,4.246 60.73,1.415 10.523,-1.415 -0.957,-3.891 28.215,-1.237 11.037,1.004 15.301,1.06 28.214,0.53 21.997,-1.061 47.82,-0.53 65.99,-1.061 C 346.219,3.185 306.051,4.245 281.183,2.3 250.58,0.177 232.885,-0.885 201.8,0.885 177.411,2.477 147.764,3.008 122.896,1.946 96.118,1.062 81.772,-4.069 53.08,-1.239 40.167,0.177 35.385,0.177 22.475,-0.178 13.867,-0.354 3.347,-0.708 -10.043,-0.53 Z" />
                      </g>
                    </g>
                  </g>
                </g>
                <g
                   id="g287">
                  <g
                     id="g277" />
                  <g
                     id="g285">
                    <g
                       style="opacity:0.33999604"
                       id="g283"
                       clip-path="url(#clipPath147)">
                      <g
                         id="g281"
                         transform="translate(-27.8554,493.4219)">
                        <path
                           inkscape:connector-curvature="0"
                           id="path279"
                           style="fill:#f6f9f4;fill-opacity:1;fill-rule:nonzero;stroke:none"
                           d="m 0,0 c 18.331,0.354 41.604,4.913 58.883,3.538 28.888,-2.3 34.997,4.422 59.994,2.653 28.963,-2.206 66.164,-2.544 87.772,-1.946 26.663,0.708 44.995,4.246 70.549,1.415 12.223,-1.415 -1.112,-3.891 32.777,-1.237 12.82,1.004 17.773,1.06 32.773,0.53 C 368.302,3.892 398.3,4.423 419.407,3.892 402.188,3.185 355.526,4.245 326.639,2.3 291.089,0.177 270.532,-0.885 234.423,0.885 206.093,2.477 171.651,3.008 142.764,1.946 111.656,1.062 94.992,-4.068 61.661,-1.239 46.661,0.177 41.105,0.177 26.108,-0.177 16.109,-0.353 3.889,-0.708 -11.666,-0.53 Z" />
                      </g>
                    </g>
                  </g>
                </g>
                <g
                   id="g299">
                  <g
                     id="g289" />
                  <g
                     id="g297">
                    <g
                       style="opacity:0.33999604"
                       id="g295"
                       clip-path="url(#clipPath151)">
                      <g
                         id="g293"
                         transform="translate(399.5674,500.4131)">
                        <path
                           inkscape:connector-curvature="0"
                           id="path291"
                           style="fill:#f6f9f4;fill-opacity:1;fill-rule:nonzero;stroke:none"
                           d="m 0,0 c 16.284,0.354 36.961,4.913 52.31,3.538 25.664,-2.3 31.09,4.422 53.297,2.653 25.73,-2.205 58.778,-2.544 77.974,-1.946 23.688,0.709 39.973,4.246 62.673,1.415 10.858,-1.415 -0.987,-3.891 29.118,-1.237 11.39,1.004 15.79,1.06 29.114,0.531 C 327.187,3.892 353.837,4.423 372.588,3.892 357.291,3.185 315.839,4.245 290.177,2.3 258.595,0.177 240.333,-0.885 208.254,0.885 183.086,2.477 152.489,3.008 126.827,1.946 99.192,1.062 84.39,-4.068 54.778,-1.239 41.453,0.177 36.518,0.177 23.193,-0.177 14.312,-0.353 3.455,-0.708 -10.363,-0.53 Z" />
                      </g>
                    </g>
                  </g>
                </g>
                <g
                   id="g311">
                  <g
                     id="g301" />
                  <g
                     id="g309">
                    <g
                       style="opacity:0.33999604"
                       id="g307"
                       clip-path="url(#clipPath155)">
                      <g
                         id="g305"
                         transform="translate(436.6299,390.4639)">
                        <path
                           inkscape:connector-curvature="0"
                           id="path303"
                           style="fill:#f6f9f4;fill-opacity:1;fill-rule:nonzero;stroke:none"
                           d="m 0,0 c 16.284,0.354 36.961,4.913 52.31,3.537 25.663,-2.3 31.09,4.423 53.297,2.653 25.73,-2.205 58.778,-2.543 77.973,-1.945 23.688,0.708 39.974,4.246 62.673,1.415 10.859,-1.415 -0.987,-3.891 29.118,-1.237 11.391,1.003 15.79,1.06 29.115,0.53 22.701,-1.061 49.351,-0.53 68.102,-1.061 C 357.291,3.185 315.839,4.245 290.176,2.299 258.594,0.177 240.333,-0.885 208.253,0.884 183.086,2.477 152.489,3.008 126.827,1.946 99.192,1.062 84.389,-4.069 54.777,-1.239 41.453,0.177 36.518,0.177 23.193,-0.178 14.312,-0.354 3.455,-0.708 -10.363,-0.53 Z" />
                      </g>
                    </g>
                  </g>
                </g>
              </g>
            </g>
          </g>
        </g>
      </g>
    </g>
  </g>
</svg>
