<?xml version="1.0" encoding="UTF-8" standalone="no"?>
<!-- Created with Inkscape (http://www.inkscape.org/) -->

<svg
   xmlns:dc="http://purl.org/dc/elements/1.1/"
   xmlns:cc="http://creativecommons.org/ns#"
   xmlns:rdf="http://www.w3.org/1999/02/22-rdf-syntax-ns#"
   xmlns:svg="http://www.w3.org/2000/svg"
   xmlns="http://www.w3.org/2000/svg"
   xmlns:sodipodi="http://sodipodi.sourceforge.net/DTD/sodipodi-0.dtd"
   xmlns:inkscape="http://www.inkscape.org/namespaces/inkscape"
   width="32.598999mm"
   height="49.672001mm"
   viewBox="0 0 32.598999 49.672001"
   version="1.1"
   id="svg4971"
   inkscape:version="0.92.2 5c3e80d, 2017-08-06"
   sodipodi:docname="body.svg">
  <defs
     id="defs4965">
    <clipPath
       id="clipPath695"
       clipPathUnits="userSpaceOnUse">
      <path
         inkscape:connector-curvature="0"
         id="path693"
         d="M 0,500 H 750 V 0 H 0 Z" />
    </clipPath>
    <clipPath
       id="clipPath663"
       clipPathUnits="userSpaceOnUse">
      <path
         inkscape:connector-curvature="0"
         id="path661"
         d="m 140.396,109.06 c -0.843,-5.341 -4.078,-10.685 -6.186,-15.605 v 0 c -0.562,-1.547 -1.265,-3.657 -2.39,-4.922 v 0 c -0.309,-0.31 -0.671,-0.558 -1.054,-0.783 v 0 c 3.094,-0.559 5.993,-1.714 8.787,-3.293 v 0 c 3.374,4.498 4.358,10.826 6.187,15.887 v 0 c 1.125,3.037 2.769,6.433 3.318,9.759 v 0 c -0.993,0.556 -1.904,1.29 -2.756,2.192 v 0 z" />
    </clipPath>
    <clipPath
       id="clipPath635"
       clipPathUnits="userSpaceOnUse">
      <path
         inkscape:connector-curvature="0"
         id="path633"
         d="M 0,500 H 750 V 0 H 0 Z" />
    </clipPath>
    <clipPath
       id="clipPath603"
       clipPathUnits="userSpaceOnUse">
      <path
         inkscape:connector-curvature="0"
         id="path601"
         d="m 91.787,121.45 c 0.549,-3.325 2.194,-6.722 3.319,-9.758 v 0 c 1.829,-5.063 2.812,-11.39 6.186,-15.89 v 0 c 2.794,1.581 5.694,2.737 8.788,3.293 v 0 c -0.383,0.227 -0.745,0.476 -1.055,0.786 v 0 c -1.125,1.265 -1.828,3.373 -2.389,4.92 v 0 c -2.11,4.922 -5.344,10.263 -6.187,15.607 v 0 l -5.906,3.232 c -0.852,-0.902 -1.763,-1.634 -2.756,-2.19" />
    </clipPath>
    <clipPath
       id="clipPath323"
       clipPathUnits="userSpaceOnUse">
      <path
         inkscape:connector-curvature="0"
         id="path321"
         d="M 0,500 H 750 V 0 H 0 Z" />
    </clipPath>
  </defs>
  <sodipodi:namedview
     id="base"
     pagecolor="#ffffff"
     bordercolor="#666666"
     borderopacity="1.0"
     inkscape:pageopacity="0.0"
     inkscape:pageshadow="2"
     inkscape:zoom="0.70710678"
     inkscape:cx="358.55181"
     inkscape:cy="-95.657715"
     inkscape:document-units="mm"
     inkscape:current-layer="layer1"
     showgrid="false"
     inkscape:window-width="1280"
     inkscape:window-height="716"
     inkscape:window-x="0"
     inkscape:window-y="1"
     inkscape:window-maximized="1" />
  <metadata
     id="metadata4968">
    <rdf:RDF>
      <cc:Work
         rdf:about="">
        <dc:format>image/svg+xml</dc:format>
        <dc:type
           rdf:resource="http://purl.org/dc/dcmitype/StillImage" />
        <dc:title></dc:title>
      </cc:Work>
    </rdf:RDF>
  </metadata>
  <g
     inkscape:label="Layer 1"
     inkscape:groupmode="layer"
     id="layer1"
     transform="translate(0,-247.32801)">
    <g
       id="g1153"
       transform="matrix(0.35277777,0,0,-0.35277777,4.304661,289.96895)">
      <path
         d="m 0,0 c 0,-24.661 -5.006,-49.68 -7.865,-73.985 -0.713,-5.004 -2.5,-8.935 -3.217,-13.582 -0.713,-5.004 0.717,-10.008 -0.356,-14.654 -0.716,-4.287 -3.216,-7.506 -3.574,-12.51 0,-5.717 0,-7.506 -3.931,-12.51 2.144,-1.429 5.004,-2.144 7.505,-2.502 -1.429,-3.215 -3.574,-7.146 -6.076,-9.65 7.149,-0.358 8.219,1.787 11.795,-5.361 0,7.148 1.43,15.369 2.86,22.162 1.787,-4.289 6.076,-6.078 8.933,-9.295 0.36,5.72 0.715,11.439 2.504,17.156 1.43,-1.43 3.217,-2.145 5.002,-2.502 -5.361,13.582 4.649,34.67 7.506,48.609 1.787,8.936 3.217,17.872 5.361,26.805 1.432,5.721 6.076,23.949 6.076,24.663 2.502,-1.072 10.317,-1.153 10.317,-1.153 1.43,-1.785 4.131,-27.869 4.49,-35.733 2.859,4.647 3.422,7.221 5.924,11.868 2.144,-1.43 3.932,-3.575 6.076,-5.362 0.717,2.86 1.072,5.717 2.145,8.578 2.144,-5.718 4.646,-11.437 6.433,-17.156 4.647,1.072 8.936,2.145 13.225,3.932 -0.715,3.217 -2.147,6.789 -2.86,10.008 1.43,-0.358 2.86,-0.358 3.932,-1.073 -3.574,10.366 -7.148,19.301 -8.935,30.022 C 71.84,-3.931 68.266,6.434 68.623,15.727 47.178,13.582 26.447,14.654 5.359,15.012 Z"
         style="fill:#815dc8;fill-opacity:1;fill-rule:nonzero;stroke:none"
         id="path1155"
         inkscape:connector-curvature="0" />
    </g>
    <g
       id="g1157"
       transform="matrix(0.35277777,0,0,-0.35277777,12.949091,296.03165)">
      <path
         d="m 0,0 c 2.433,0.206 4.877,0.244 7.313,0.236 2.439,0.004 4.874,-0.1 7.305,-0.205 2.43,-0.128 4.859,-0.258 7.284,-0.436 l 3.64,-0.245 c 1.214,-0.107 2.429,-0.169 3.645,-0.286 -1.216,-0.11 -2.435,-0.146 -3.655,-0.204 l -3.658,-0.034 c -2.438,-0.002 -4.873,0.101 -7.305,0.207 -2.429,0.13 -4.858,0.259 -7.283,0.438 C 4.858,-0.361 2.435,-0.206 0,0"
         style="fill:#5a439a;fill-opacity:1;fill-rule:nonzero;stroke:none"
         id="path1159"
         inkscape:connector-curvature="0" />
    </g>
    <g
       id="g1161"
       transform="matrix(0.35277777,0,0,-0.35277777,16.777971,296.09779)">
      <path
         d="M 0,0 C -0.012,4.035 0.124,8.03 -0.012,12.017 -0.117,16.007 -0.49,19.965 -1.123,23.948 0.28,20.155 0.855,16.083 0.987,12.047 1.093,8.002 0.771,3.959 0,0"
         style="fill:#5a439a;fill-opacity:1;fill-rule:nonzero;stroke:none"
         id="path1163"
         inkscape:connector-curvature="0" />
    </g>
    <g
       id="g1165"
       transform="matrix(0.35277777,0,0,-0.35277777,19.21915,296.22973)">
      <path
         d="m 0,0 c 0.023,2.307 0.161,4.602 0.288,6.894 l 0.386,6.864 c 0.129,2.285 0.198,4.571 0.256,6.859 0.031,1.144 0.036,2.289 0.023,3.436 0.021,1.148 -0.016,2.295 -0.016,3.449 C 1.162,26.37 1.297,25.225 1.442,24.079 1.555,22.932 1.636,21.78 1.699,20.627 1.822,18.321 1.779,16.01 1.672,13.707 1.541,11.405 1.349,9.108 1.051,6.825 0.764,4.541 0.435,2.265 0,0"
         style="fill:#5a439a;fill-opacity:1;fill-rule:nonzero;stroke:none"
         id="path1167"
         inkscape:connector-curvature="0" />
    </g>
    <g
       id="g1265"
       transform="matrix(0.35277777,0,0,-0.35277777,2.854292,290.53622)">
      <path
         d="m 0,0 c 1.072,1.251 3.039,2.68 3.932,4.468 2.144,4.289 -0.537,9.293 1.609,13.403 0.893,1.965 3.037,3.038 3.395,5.361 0.357,2.145 -1.25,3.753 -1.788,5.897 -1.072,4.826 3.038,8.579 4.112,13.046 1.25,5.719 -0.178,12.331 -1.61,17.692 -1.609,5.898 -4.109,9.829 -7.505,14.476 -2.502,3.574 -6.077,7.506 -8.043,11.437 -1.965,4.289 1.074,8.042 3.576,11.259 11.435,15.011 33.238,21.087 51.289,21.981 8.041,0.357 16.976,0.893 25.017,0 8.758,-1.073 9.295,-12.688 8.758,-20.016 -0.715,-9.65 -4.469,-19.3 -6.433,-28.772 -1.073,-5.003 -1.608,-10.186 -2.502,-15.19 -0.358,-2.68 -0.536,-5.182 -0.536,-7.863 0,-2.859 1.071,-4.11 1.608,-6.791 0.537,-2.144 0.715,-4.825 0,-6.969 -0.537,-2.145 -2.502,-3.753 -2.68,-6.255 -0.179,-2.145 0.893,-3.753 1.428,-5.719 0.715,-2.323 0.894,-4.825 1.609,-7.148 1.252,-4.647 4.647,-6.791 6.971,-10.545 1.428,-1.965 1.428,-1.428 -0.894,-3.573 -1.43,-1.609 -3.04,-2.86 -3.932,-4.825 -1.61,0.356 -2.86,1.787 -4.11,2.859 -0.179,-2.503 0,-5.004 0,-7.327 -1.072,-0.358 -2.324,-0.715 -3.576,-0.894 -0.535,3.932 -0.713,8.043 -1.07,11.974 -1.252,-0.179 -2.682,-0.179 -3.932,-0.179 0.178,-2.144 0.893,-4.289 1.43,-6.254 -1.787,-0.358 -3.396,1.429 -5.184,1.608 -0.892,-3.575 1.788,-8.399 2.502,-11.974 0.717,-4.109 -3.394,-4.647 -6.611,-6.433 -4.289,10.366 -8.4,20.73 -13.939,30.559 -2.86,-7.327 -9.653,-12.689 -14.118,-19.122 -1.966,-2.859 -4.111,-5.361 -6.255,-8.221 -1.61,-2.144 -1.252,-2.858 -3.575,-2.144 -1.252,0.536 -3.754,2.323 -4.468,3.396 3.216,3.395 4.468,7.505 6.613,11.437 -3.037,-0.894 -5.899,-2.502 -8.936,-3.038 0.358,2.323 1.787,4.647 2.502,7.149 -2.679,-1.788 -6.968,-3.396 -8.935,-5.005 z"
         style="fill:#a9e8ee;fill-opacity:1;fill-rule:nonzero;stroke:none"
         id="path1267"
         inkscape:connector-curvature="0" />
    </g>
    <g
       id="g1269"
       transform="matrix(0.35277777,0,0,-0.35277777,8.5917209,281.26871)">
      <path
         d="m 0,0 c 3.334,-2.767 7.214,-4.782 11.315,-5.999 4.107,-1.226 8.39,-1.765 12.684,-1.78 4.287,-0.088 8.607,0.223 12.751,1.279 2.066,0.526 4.091,1.272 5.908,2.388 1.833,1.082 3.433,2.593 4.507,4.477 L 47.163,0.358 47.18,0.714 47.196,0.358 V 0.355 L 47.194,0.35 c -0.889,-1.989 -2.456,-3.645 -4.26,-4.889 -1.828,-1.23 -3.879,-2.084 -5.976,-2.713 -4.22,-1.223 -8.623,-1.548 -12.975,-1.523 -4.35,0.099 -8.752,0.632 -12.899,2.05 C 9.015,-6.017 7.01,-5.116 5.135,-4 3.275,-2.859 1.525,-1.541 0,0"
         style="fill:#80cbcf;fill-opacity:1;fill-rule:nonzero;stroke:none"
         id="path1271"
         inkscape:connector-curvature="0" />
    </g>
    <g
       id="g1273"
       transform="matrix(0.35277777,0,0,-0.35277777,11.554531,280.89029)">
      <path
         d="m 0,0 c 2.884,-0.012 5.756,-0.008 8.622,0.097 2.866,0.116 5.727,0.272 8.581,0.531 2.857,0.235 5.704,0.571 8.555,0.913 1.426,0.169 2.849,0.363 4.272,0.568 L 34.313,2.68 C 32.925,2.283 31.52,1.963 30.117,1.626 28.707,1.323 27.292,1.043 25.873,0.78 23.034,0.256 20.167,-0.109 17.289,-0.368 14.409,-0.604 11.519,-0.735 8.629,-0.668 5.74,-0.614 2.854,-0.423 0,0"
         style="fill:#80cbcf;fill-opacity:1;fill-rule:nonzero;stroke:none"
         id="path1275"
         inkscape:connector-curvature="0" />
    </g>
    <g
       id="g1277"
       transform="matrix(0.35277777,0,0,-0.35277777,9.4116516,270.4251)">
      <path
         d="m 0,0 c 2.674,-3.099 6.326,-5.122 10.164,-6.258 3.854,-1.138 7.91,-1.542 11.929,-1.35 4.025,0.127 8.028,0.848 11.877,2.048 1.926,0.598 3.809,1.346 5.608,2.267 1.814,0.894 3.526,1.995 5.098,3.293 C 41.8,-2.922 38.068,-4.901 34.215,-6.289 30.337,-7.667 26.244,-8.398 22.132,-8.606 18.022,-8.719 13.85,-8.319 9.931,-6.987 7.979,-6.314 6.096,-5.427 4.387,-4.272 2.697,-3.096 1.165,-1.678 0,0"
         style="fill:#80cbcf;fill-opacity:1;fill-rule:nonzero;stroke:none"
         id="path1279"
         inkscape:connector-curvature="0" />
    </g>
    <g
       id="g1281"
       transform="matrix(0.35277777,0,0,-0.35277777,12.122252,269.98363)">
      <path
         d="m 0,0 c 1.746,-0.08 3.487,-0.156 5.229,-0.135 1.74,-0.01 3.479,0.034 5.211,0.148 3.464,0.226 6.914,0.626 10.304,1.325 3.393,0.68 6.723,1.658 9.926,2.964 1.601,0.653 3.162,1.41 4.662,2.279 1.52,0.84 2.955,1.825 4.342,2.89 C 38.436,8.234 37.041,7.157 35.59,6.164 34.12,5.198 32.572,4.349 30.979,3.598 27.787,2.098 24.388,1.072 20.943,0.359 17.49,-0.328 13.98,-0.708 10.47,-0.752 6.961,-0.806 3.448,-0.588 0,0"
         style="fill:#80cbcf;fill-opacity:1;fill-rule:nonzero;stroke:none"
         id="path1283"
         inkscape:connector-curvature="0" />
    </g>
    <g
       id="g1285"
       transform="matrix(0.35277777,0,0,-0.35277777,19.27909,289.69886)">
      <path
         d="m 0,0 c -1.462,2.799 -3.284,5.419 -4.29,8.491 -0.487,1.532 -0.662,3.185 -0.479,4.798 0.095,0.81 0.252,1.595 0.5,2.384 0.25,0.764 0.541,1.51 0.844,2.245 0.604,1.469 1.252,2.894 1.44,4.385 0.209,1.507 -0.088,2.978 -0.511,4.527 -0.371,1.584 -0.446,3.291 -0.068,4.908 0.367,1.617 1.058,3.085 1.712,4.522 0.66,1.447 1.419,2.823 1.822,4.291 0.426,1.46 0.601,3.005 0.268,4.45 -0.338,1.409 -1.274,2.742 -1.947,4.209 -0.342,0.738 -0.636,1.535 -0.731,2.388 -0.094,0.851 0.034,1.727 0.333,2.514 0.287,0.76 0.711,1.524 1.244,2.15 0.531,0.638 1.16,1.161 1.744,1.677 0.584,0.516 1.121,1.053 1.47,1.712 0.354,0.653 0.534,1.4 0.588,2.164 0.145,1.554 0.044,3.128 -0.295,4.66 C 3.293,67.994 2.716,69.501 1.693,70.718 2.8,69.573 3.481,68.071 3.902,66.539 4.321,65 4.503,63.387 4.431,61.785 4.402,60.974 4.229,60.141 3.852,59.389 3.478,58.631 2.889,58.016 2.309,57.472 1.724,56.925 1.146,56.413 0.682,55.818 0.209,55.222 -0.128,54.576 -0.381,53.85 -0.897,52.441 -0.607,50.946 0.074,49.578 0.719,48.181 1.687,46.892 2.126,45.209 2.521,43.56 2.329,41.855 1.891,40.289 1.669,39.501 1.383,38.737 1.053,37.997 l -1,-2.158 c -0.67,-1.427 -1.343,-2.84 -1.69,-4.314 -0.356,-1.469 -0.306,-3.002 0.025,-4.496 0.394,-1.49 0.734,-3.194 0.48,-4.841 C -1.351,20.521 -2.096,19.047 -2.728,17.62 -3.048,16.901 -3.353,16.182 -3.616,15.449 -3.863,14.737 -4.043,13.97 -4.151,13.212 -4.371,11.687 -4.243,10.123 -3.829,8.625 -3.014,5.605 -1.265,2.894 0,0"
         style="fill:#80cbcf;fill-opacity:1;fill-rule:nonzero;stroke:none"
         id="path1287"
         inkscape:connector-curvature="0" />
    </g>
    <g
       id="g1333"
       transform="matrix(0.35277777,0,0,-0.35277777,16.409351,247.28767)">
      <path
         d="m 0,0 c -6.793,0.714 -9.293,-6.97 -11.617,-11.795 -2.322,-4.825 -4.289,-9.472 -7.684,-13.582 -2.681,-3.038 -6.076,-5.54 -8.935,-8.399 3.037,0 5.718,0.536 8.578,0.536 3.752,0.178 5.181,-0.536 8.041,-2.68 1.609,-1.252 3.396,-2.325 4.824,-3.753 0.895,-1.073 1.789,-2.86 3.219,-3.575 3.394,-1.251 3.931,3.038 6.433,3.932 1.608,-3.753 5.182,-7.149 7.327,-10.723 1.966,3.217 4.646,6.791 8.22,8.042 3.397,1.251 6.791,0 6.791,4.11 0,4.468 -0.892,5.719 4.467,6.434 3.039,0.357 6.791,0.715 9.65,1.787 -7.863,5.004 -8.933,32.525 -21.445,29.487 z"
         style="fill:#cefeff;fill-opacity:1;fill-rule:nonzero;stroke:none"
         id="path1335"
         inkscape:connector-curvature="0" />
    </g>
    <g
       id="g1337"
       transform="matrix(0.35277777,0,0,-0.35277777,19.93988,263.80554)">
      <path
         d="m 0,0 c -0.717,2.145 -1.252,4.468 -2.146,6.612 -1.071,3.038 -1.786,2.681 -4.825,3.575 -3.574,1.072 -7.506,1.787 -11.258,3.038 -5.718,2.144 -3.753,4.825 -1.429,9.471 3.931,8.399 7.328,16.441 17.691,17.157 10.545,0.893 15.012,-6.434 17.334,-15.727 0.36,-1.966 1.967,-4.825 1.074,-6.791 C 15.547,15.547 11.973,14.297 10.186,12.867 7.146,10.544 3.572,6.434 1.965,2.681 Z"
         style="fill:#a5cd50;fill-opacity:1;fill-rule:nonzero;stroke:none"
         id="path1339"
         inkscape:connector-curvature="0" />
    </g>
    <g
       id="g1341"
       transform="matrix(0.35277777,0,0,-0.35277777,15.904981,252.64669)">
      <path
         d="m 0,0 c 0.715,-5.003 5.002,-16.262 11.08,-16.62 6.611,-0.357 6.969,12.331 6.969,16.977 z"
         style="fill:#6b9404;fill-opacity:1;fill-rule:nonzero;stroke:none"
         id="path1343"
         inkscape:connector-curvature="0" />
    </g>
  </g>
</svg>
