<?xml version="1.0" encoding="UTF-8" standalone="no"?>
<!-- Created with Inkscape (http://www.inkscape.org/) -->

<svg
   xmlns:dc="http://purl.org/dc/elements/1.1/"
   xmlns:cc="http://creativecommons.org/ns#"
   xmlns:rdf="http://www.w3.org/1999/02/22-rdf-syntax-ns#"
   xmlns:svg="http://www.w3.org/2000/svg"
   xmlns="http://www.w3.org/2000/svg"
   xmlns:sodipodi="http://sodipodi.sourceforge.net/DTD/sodipodi-0.dtd"
   xmlns:inkscape="http://www.inkscape.org/namespaces/inkscape"
   width="27.599001mm"
   height="62.672001mm"
   viewBox="0 0 27.599001 62.672001"
   version="1.1"
   id="svg4971"
   inkscape:version="0.92.2 5c3e80d, 2017-08-06"
   sodipodi:docname="left-leg.svg">
  <defs
     id="defs4965">
    <clipPath
       id="clipPath695"
       clipPathUnits="userSpaceOnUse">
      <path
         inkscape:connector-curvature="0"
         id="path693"
         d="M 0,500 H 750 V 0 H 0 Z" />
    </clipPath>
    <clipPath
       id="clipPath663"
       clipPathUnits="userSpaceOnUse">
      <path
         inkscape:connector-curvature="0"
         id="path661"
         d="m 140.396,109.06 c -0.843,-5.341 -4.078,-10.685 -6.186,-15.605 v 0 c -0.562,-1.547 -1.265,-3.657 -2.39,-4.922 v 0 c -0.309,-0.31 -0.671,-0.558 -1.054,-0.783 v 0 c 3.094,-0.559 5.993,-1.714 8.787,-3.293 v 0 c 3.374,4.498 4.358,10.826 6.187,15.887 v 0 c 1.125,3.037 2.769,6.433 3.318,9.759 v 0 c -0.993,0.556 -1.904,1.29 -2.756,2.192 v 0 z" />
    </clipPath>
    <clipPath
       id="clipPath635"
       clipPathUnits="userSpaceOnUse">
      <path
         inkscape:connector-curvature="0"
         id="path633"
         d="M 0,500 H 750 V 0 H 0 Z" />
    </clipPath>
    <clipPath
       id="clipPath603"
       clipPathUnits="userSpaceOnUse">
      <path
         inkscape:connector-curvature="0"
         id="path601"
         d="m 91.787,121.45 c 0.549,-3.325 2.194,-6.722 3.319,-9.758 v 0 c 1.829,-5.063 2.812,-11.39 6.186,-15.89 v 0 c 2.794,1.581 5.694,2.737 8.788,3.293 v 0 c -0.383,0.227 -0.745,0.476 -1.055,0.786 v 0 c -1.125,1.265 -1.828,3.373 -2.389,4.92 v 0 c -2.11,4.922 -5.344,10.263 -6.187,15.607 v 0 l -5.906,3.232 c -0.852,-0.902 -1.763,-1.634 -2.756,-2.19" />
    </clipPath>
    <clipPath
       id="clipPath323"
       clipPathUnits="userSpaceOnUse">
      <path
         inkscape:connector-curvature="0"
         id="path321"
         d="M 0,500 H 750 V 0 H 0 Z" />
    </clipPath>
  </defs>
  <sodipodi:namedview
     id="base"
     pagecolor="#ffffff"
     bordercolor="#666666"
     borderopacity="1.0"
     inkscape:pageopacity="0.0"
     inkscape:pageshadow="2"
     inkscape:zoom="6.0425532"
     inkscape:cx="35.350558"
     inkscape:cy="230.38874"
     inkscape:document-units="mm"
     inkscape:current-layer="layer1"
     showgrid="false"
     inkscape:window-width="1280"
     inkscape:window-height="716"
     inkscape:window-x="0"
     inkscape:window-y="1"
     inkscape:window-maximized="1" />
  <metadata
     id="metadata4968">
    <rdf:RDF>
      <cc:Work
         rdf:about="">
        <dc:format>image/svg+xml</dc:format>
        <dc:type
           rdf:resource="http://purl.org/dc/dcmitype/StillImage" />
        <dc:title></dc:title>
      </cc:Work>
    </rdf:RDF>
  </metadata>
  <g
     inkscape:label="Layer 1"
     inkscape:groupmode="layer"
     id="layer1"
     transform="translate(0,-234.32802)">
    <g
       id="g1145"
       transform="matrix(0.35277777,0,0,-0.35277777,12.795564,271.21772)">
      <path
         d="m 0,0 c -0.514,4.279 -0.162,4.613 -2.174,7.697 1.072,4.289 2.279,8.309 -2.277,11.258 3.619,3.887 2.121,11.52 1.986,16.344 -0.133,2.681 0.024,5.101 -3.73,5.101 -4.825,0 -6.701,-5.361 -7.371,-9.248 -0.805,-5.898 -0.403,-12.064 0.939,-17.691 1.607,-6.703 1.742,-13.404 4.557,-19.703 z"
         style="fill:#6b9404;fill-opacity:1;fill-rule:nonzero;stroke:none"
         id="path1147"
         inkscape:connector-curvature="0" />
    </g>
    <g
       id="g1149"
       transform="matrix(0.35277777,0,0,-0.35277777,12.795564,271.21772)">
      <path
         d="m 0,0 c -4.393,2.344 -7.201,5.287 -4.318,11.717 -2.948,1.609 -6.702,8.845 -1.608,10.187 -1.607,3.215 -3.219,8.041 -0.804,11.258 0.859,0.983 2.503,1.733 4.265,2.137 -0.146,15.631 -0.99,51.746 -2.926,59.25 l -23.857,-6.166 c 2.412,-19.031 8.043,-38.869 8.311,-58.17 0,-5.897 -0.805,-11.526 -0.538,-17.424 0.27,-6.166 4.498,-10.459 6.166,-16.352 4.022,-14.207 9.383,-34.042 9.383,-33.24 3.485,-0.535 6.166,0.27 9.651,0.27 C 3.156,-29.734 1.469,-14.549 0,0"
         style="fill:#a5cd50;fill-opacity:1;fill-rule:nonzero;stroke:none"
         id="path1151"
         inkscape:connector-curvature="0" />
    </g>
    <g
       id="g1153"
       transform="matrix(0.35277777,0,0,-0.35277777,-14.670124,228.91107)">
      <path
         d="m 42.84,-18.309 c 1.43,-1.785 4.131,-27.869 4.49,-35.733 2.859,4.647 3.422,7.221 5.924,11.868 2.144,-1.43 3.932,-3.575 6.076,-5.362 0.717,2.86 1.072,5.717 2.145,8.578 2.144,-5.718 4.646,-11.437 6.433,-17.156 4.647,1.072 8.936,2.145 13.225,3.932 -0.715,3.217 -2.147,6.789 -2.86,10.008 1.43,-0.358 2.86,-0.358 3.932,-1.073 -3.320617,9.631089 -6.641233,18.02689 -8.528616,27.767546 -13.802926,0.282611 -16.775995,0.336879 -31.425251,-0.05796 -0.973772,-0.02625 0.291612,-1.897414 0.588867,-2.771586 z"
         style="fill:#815dc8;fill-opacity:1;fill-rule:nonzero;stroke:none"
         id="path1155"
         inkscape:connector-curvature="0"
         sodipodi:nodetypes="ccccccccccsc" />
    </g>
    <g
       id="g1193"
       transform="matrix(0.35277777,0,0,-0.35277777,22.204785,292.90047)">
      <path
         d="m 0,0 c 0.939,-0.135 1.877,-0.402 2.682,-0.939 1.877,-1.073 2.65,-3.405 0.775,-5.147 -1.877,-1.744 -5.869,-2.762 -8.146,-2.896 -3.084,-0.133 -6.032,0 -8.981,0.671 -3.351,0.67 -5.631,2.815 -7.641,5.362 -1.876,2.279 -2.412,6.164 -4.691,7.371 -4.959,2.68 -13.805,3.351 -11.391,11.795 0.668,2.547 2.948,1.072 4.957,-0.133 2.682,-1.475 5.497,-2.816 8.178,-4.156 2.545,-1.34 5.227,-2.145 7.639,-3.619 2.277,-1.475 4.556,-3.082 7.103,-4.02 z"
         style="fill:#d69b3d;fill-opacity:1;fill-rule:nonzero;stroke:none"
         id="path1195"
         inkscape:connector-curvature="0" />
    </g>
    <g
       id="g1197"
       transform="matrix(0.35277777,0,0,-0.35277777,15.869244,283.87017)">
      <path
         d="m 0,0 c 5.496,-7.639 22.451,-15.273 20.641,-26.537 -0.543,-3.375 -11.03,-4.658 -15.184,-3.318 -7.103,2.412 -8.139,11.628 -14.975,14.175 -2.812,1.073 -6.164,2.01 -7.906,4.692 -1.609,2.277 -1.342,5.226 -1.207,7.906 0.133,2.547 -1.986,7.355 0.158,8.098 3.094,1.072 3.192,-2.065 3.996,-3.541 1.877,-3.215 4.424,-3.082 7.774,-3.215 z"
         style="fill:#916023;fill-opacity:1;fill-rule:nonzero;stroke:none"
         id="path1199"
         inkscape:connector-curvature="0" />
    </g>
    <g
       id="g1201"
       transform="matrix(0.35277777,0,0,-0.35277777,11.945303,284.32493)">
      <path
         d="m 0,0 c 2.814,-2.68 7.236,-5.277 11.391,-3.268 3.754,1.877 0.804,4.961 -0.536,7.776 C 9.246,7.725 7.369,9.064 3.617,8.797 2.143,8.662 0.268,8.26 -0.002,6.518 Z"
         style="fill:#c58833;fill-opacity:1;fill-rule:nonzero;stroke:none"
         id="path1203"
         inkscape:connector-curvature="0" />
    </g>
    <g
       id="g1205"
       transform="matrix(0.35277777,0,0,-0.35277777,20.529795,287.73111)">
      <path
         d="m 0,0 c -4.879,2.716 -11.182,0.172 -13.362,-4.835 -0.383,-0.878 0.909,-1.643 1.295,-0.758 1.846,4.239 7.084,6.651 11.309,4.298 C 0.089,-1.766 0.845,-0.471 0,0"
         style="fill:#674013;fill-opacity:1;fill-rule:nonzero;stroke:none"
         id="path1207"
         inkscape:connector-curvature="0" />
    </g>
    <g
       id="g1209"
       transform="matrix(0.35277777,0,0,-0.35277777,19.489384,286.69066)">
      <path
         d="m 0,0 c -4.879,2.717 -11.18,0.169 -13.362,-4.835 -0.383,-0.878 0.909,-1.643 1.295,-0.758 1.847,4.237 7.085,6.651 11.309,4.298 C 0.088,-1.767 0.845,-0.471 0,0"
         style="fill:#674013;fill-opacity:1;fill-rule:nonzero;stroke:none"
         id="path1211"
         inkscape:connector-curvature="0" />
    </g>
    <g
       id="g1213"
       transform="matrix(0.35277777,0,0,-0.35277777,18.260164,285.55655)">
      <path
         d="m 0,0 c -4.879,2.718 -11.18,0.174 -13.36,-4.833 -0.382,-0.878 0.909,-1.643 1.295,-0.758 1.846,4.238 7.083,6.65 11.307,4.296 C 0.088,-1.767 0.845,-0.471 0,0"
         style="fill:#674013;fill-opacity:1;fill-rule:nonzero;stroke:none"
         id="path1215"
         inkscape:connector-curvature="0" />
    </g>
  </g>
</svg>
