<?xml version="1.0" encoding="UTF-8" standalone="no"?>
<!-- Created with Inkscape (http://www.inkscape.org/) -->

<svg
   xmlns:dc="http://purl.org/dc/elements/1.1/"
   xmlns:cc="http://creativecommons.org/ns#"
   xmlns:rdf="http://www.w3.org/1999/02/22-rdf-syntax-ns#"
   xmlns:svg="http://www.w3.org/2000/svg"
   xmlns="http://www.w3.org/2000/svg"
   xmlns:sodipodi="http://sodipodi.sourceforge.net/DTD/sodipodi-0.dtd"
   xmlns:inkscape="http://www.inkscape.org/namespaces/inkscape"
   width="27.599001mm"
   height="48.672001mm"
   viewBox="0 0 27.599001 48.672001"
   version="1.1"
   id="svg4971"
   inkscape:version="0.92.2 5c3e80d, 2017-08-06"
   sodipodi:docname="left-arm.svg">
  <defs
     id="defs4965">
    <clipPath
       id="clipPath695"
       clipPathUnits="userSpaceOnUse">
      <path
         inkscape:connector-curvature="0"
         id="path693"
         d="M 0,500 H 750 V 0 H 0 Z" />
    </clipPath>
    <clipPath
       id="clipPath663"
       clipPathUnits="userSpaceOnUse">
      <path
         inkscape:connector-curvature="0"
         id="path661"
         d="m 140.396,109.06 c -0.843,-5.341 -4.078,-10.685 -6.186,-15.605 v 0 c -0.562,-1.547 -1.265,-3.657 -2.39,-4.922 v 0 c -0.309,-0.31 -0.671,-0.558 -1.054,-0.783 v 0 c 3.094,-0.559 5.993,-1.714 8.787,-3.293 v 0 c 3.374,4.498 4.358,10.826 6.187,15.887 v 0 c 1.125,3.037 2.769,6.433 3.318,9.759 v 0 c -0.993,0.556 -1.904,1.29 -2.756,2.192 v 0 z" />
    </clipPath>
    <clipPath
       id="clipPath635"
       clipPathUnits="userSpaceOnUse">
      <path
         inkscape:connector-curvature="0"
         id="path633"
         d="M 0,500 H 750 V 0 H 0 Z" />
    </clipPath>
    <clipPath
       id="clipPath603"
       clipPathUnits="userSpaceOnUse">
      <path
         inkscape:connector-curvature="0"
         id="path601"
         d="m 91.787,121.45 c 0.549,-3.325 2.194,-6.722 3.319,-9.758 v 0 c 1.829,-5.063 2.812,-11.39 6.186,-15.89 v 0 c 2.794,1.581 5.694,2.737 8.788,3.293 v 0 c -0.383,0.227 -0.745,0.476 -1.055,0.786 v 0 c -1.125,1.265 -1.828,3.373 -2.389,4.92 v 0 c -2.11,4.922 -5.344,10.263 -6.187,15.607 v 0 l -5.906,3.232 c -0.852,-0.902 -1.763,-1.634 -2.756,-2.19" />
    </clipPath>
    <clipPath
       id="clipPath323"
       clipPathUnits="userSpaceOnUse">
      <path
         inkscape:connector-curvature="0"
         id="path321"
         d="M 0,500 H 750 V 0 H 0 Z" />
    </clipPath>
  </defs>
  <sodipodi:namedview
     id="base"
     pagecolor="#ffffff"
     bordercolor="#666666"
     borderopacity="1.0"
     inkscape:pageopacity="0.0"
     inkscape:pageshadow="2"
     inkscape:zoom="0.75531915"
     inkscape:cx="349.23549"
     inkscape:cy="137.42924"
     inkscape:document-units="mm"
     inkscape:current-layer="layer1"
     showgrid="false"
     inkscape:window-width="1280"
     inkscape:window-height="716"
     inkscape:window-x="0"
     inkscape:window-y="1"
     inkscape:window-maximized="1" />
  <metadata
     id="metadata4968">
    <rdf:RDF>
      <cc:Work
         rdf:about="">
        <dc:format>image/svg+xml</dc:format>
        <dc:type
           rdf:resource="http://purl.org/dc/dcmitype/StillImage" />
        <dc:title></dc:title>
      </cc:Work>
    </rdf:RDF>
  </metadata>
  <g
     inkscape:label="Layer 1"
     inkscape:groupmode="layer"
     id="layer1"
     transform="translate(0,-248.32802)">
    <g
       id="g1217"
       transform="matrix(0.35277777,0,0,-0.35277777,6.3435793,282.98111)">
      <path
         d="m 0,0 c 4.467,-4.825 9.826,-8.936 14.652,-13.225 3.217,-2.859 6.969,-6.969 11.08,-8.578 1.965,-0.893 3.932,-0.714 5.362,1.072 1.967,2.145 0.357,2.86 -1.25,5.183 C 25.375,-9.292 20.908,-3.217 16.797,3.395 13.76,8.22 9.471,16.798 5.537,19.836 Z"
         style="fill:#a5cd50;fill-opacity:1;fill-rule:nonzero;stroke:none"
         id="path1219"
         inkscape:connector-curvature="0" />
    </g>
    <g
       id="g1221"
       transform="matrix(0.35277777,0,0,-0.35277777,1.1731598,267.28317)">
      <path
         d="m 0,0 c 1.787,-7.505 2.859,-15.547 3.039,-23.232 0.178,-4.825 0.893,-6.791 3.574,-10.901 2.323,-3.575 2.86,-6.613 2.5,-10.902 1.252,0.715 2.682,1.251 3.754,2.145 1.072,-3.216 2.502,-6.612 3.752,-9.65 1.252,1.965 3.217,3.217 5.184,4.467 -1.25,2.323 -2.68,5.719 -3.039,8.4 2.681,-2.324 6.076,-3.038 9.115,-4.647 -1.609,2.681 -3.574,6.612 -3.574,9.829 2.679,-2.502 7.506,-1.965 10.72,-0.715 -3.394,2.86 -6.611,5.183 -9.291,8.578 -1.787,2.145 -3.931,7.327 -6.791,7.506 0.18,2.145 1.965,3.575 1.073,5.897 -0.358,1.073 -1.61,1.251 -1.965,2.324 -0.36,0.893 0.178,2.323 0.178,3.216 0.177,4.647 -0.538,9.293 -0.895,13.939 -0.535,9.115 -1.07,18.408 -1.07,27.701 0,11.616 -6.256,18.228 -17.873,18.228 z"
         style="fill:#80cbcf;fill-opacity:1;fill-rule:nonzero;stroke:none"
         id="path1223"
         inkscape:connector-curvature="0" />
    </g>
    <g
       id="g1225"
       transform="matrix(0.35277777,0,0,-0.35277777,6.0906996,271.00286)">
      <path
         d="M 0,0 C -0.924,-0.428 -1.858,-0.815 -2.751,-1.283 -3.651,-1.727 -4.527,-2.212 -5.347,-2.76 -6.154,-3.317 -6.929,-3.925 -7.5,-4.67 -8.083,-5.398 -8.447,-6.257 -8.437,-7.148 l -0.382,0.486 c 0.852,-0.217 1.77,-0.098 2.677,0.16 0.913,0.249 1.814,0.648 2.754,0.986 0.935,0.349 1.918,0.664 2.946,0.755 1.023,0.076 2.079,-0.096 2.944,-0.6 -0.953,0.295 -1.941,0.344 -2.875,0.119 -0.938,-0.195 -1.825,-0.586 -2.719,-0.99 -0.889,-0.415 -1.795,-0.846 -2.778,-1.172 -0.978,-0.317 -2.094,-0.483 -3.181,-0.23 l -0.383,0.089 -0.001,0.397 c -0.003,1.15 0.497,2.253 1.2,3.077 0.713,0.826 1.57,1.466 2.476,1.976 0.903,0.52 1.854,0.922 2.817,1.265 C -1.97,-0.509 -0.996,-0.212 0,0"
         style="fill:#59a9aa;fill-opacity:1;fill-rule:nonzero;stroke:none"
         id="path1227"
         inkscape:connector-curvature="0" />
    </g>
    <g
       id="g1229"
       transform="matrix(0.35277777,0,0,-0.35277777,7.162829,273.52448)">
      <path
         d="m 0,0 c -0.654,-0.865 -1.567,-1.503 -2.495,-2.038 -0.935,-0.539 -1.929,-0.957 -2.944,-1.306 -1.021,-0.33 -2.066,-0.598 -3.137,-0.73 -1.061,-0.13 -2.18,-0.177 -3.219,0.142 1.066,0.099 2.064,0.359 3.067,0.623 0.999,0.28 1.992,0.578 2.972,0.913 0.986,0.318 1.956,0.682 2.922,1.058 C -1.872,-0.947 -0.922,-0.546 0,0"
         style="fill:#59a9aa;fill-opacity:1;fill-rule:nonzero;stroke:none"
         id="path1231"
         inkscape:connector-curvature="0" />
    </g>
    <g
       id="g1233"
       transform="matrix(0.35277777,0,0,-0.35277777,16.151749,292.40257)">
      <path
         d="m 0,0 c 4.703,-0.293 9.703,1.324 14.557,1.472 2.498,0 6.615,0.146 8.527,-1.618 2.059,-1.765 1.324,-7.793 3.822,-8.381 3.383,-0.736 3.676,5.735 3.088,7.793 C 29.113,2.647 24.408,3.383 21.76,4.853 16.025,7.646 8.232,9.853 2.203,6.617 1.91,6.47 1.617,6.176 1.322,6.029 Z"
         style="fill:#94cb3d;fill-opacity:1;fill-rule:nonzero;stroke:none"
         id="path1235"
         inkscape:connector-curvature="0" />
    </g>
    <g
       id="g1237"
       transform="matrix(0.35277777,0,0,-0.35277777,16.151749,292.40257)">
      <path
         d="M 0,0 1.168,6.063 1.178,6.111 1.252,6.17 C 2.457,7.131 3.992,7.724 5.509,8.102 7.047,8.465 8.636,8.577 10.208,8.51 13.358,8.354 16.445,7.561 19.353,6.396 20.081,6.105 20.8,5.793 21.512,5.46 l 1.043,-0.511 c 0.339,-0.159 0.689,-0.307 1.045,-0.45 1.421,-0.576 2.921,-1.082 4.311,-1.942 0.688,-0.433 1.351,-0.971 1.853,-1.675 0.251,-0.356 0.449,-0.724 0.604,-1.166 0.053,-0.173 0.122,-0.381 0.168,-0.597 0.046,-0.208 0.08,-0.412 0.107,-0.616 0.19,-1.62 0.087,-3.228 -0.372,-4.813 -0.25,-0.778 -0.594,-1.595 -1.326,-2.205 -0.362,-0.3 -0.842,-0.5 -1.322,-0.531 -0.468,-0.029 -0.947,0.038 -1.396,0.298 -0.864,0.56 -1.166,1.434 -1.416,2.186 -0.238,0.776 -0.387,1.548 -0.544,2.306 -0.159,0.756 -0.312,1.506 -0.547,2.205 -0.118,0.348 -0.257,0.683 -0.432,0.98 -0.084,0.149 -0.19,0.292 -0.278,0.396 -0.034,0.053 -0.129,0.131 -0.192,0.195 l -0.19,0.168 C 21.531,0.559 19.973,0.859 18.479,1.017 16.971,1.157 15.396,1.176 13.878,1.142 12.344,1.08 10.813,0.869 9.277,0.669 6.215,0.27 3.106,-0.288 0,0 m 0,0 c 3.111,-0.079 6.155,0.569 9.207,1.117 1.528,0.278 3.072,0.507 4.637,0.621 1.578,0.078 3.113,0.102 4.697,0 1.555,-0.137 3.217,-0.349 4.616,-1.391 l 0.248,-0.214 c 0.074,-0.075 0.134,-0.116 0.218,-0.218 0.168,-0.187 0.29,-0.36 0.4,-0.546 0.222,-0.37 0.382,-0.755 0.516,-1.14 0.267,-0.77 0.43,-1.542 0.596,-2.302 0.164,-0.759 0.319,-1.51 0.543,-2.216 0.218,-0.694 0.542,-1.375 1.022,-1.659 0.223,-0.134 0.547,-0.184 0.848,-0.161 0.296,0.024 0.563,0.136 0.799,0.332 0.474,0.392 0.789,1.062 0.996,1.749 0.4,1.397 0.47,2.949 0.321,4.406 -0.022,0.182 -0.051,0.36 -0.087,0.531 -0.032,0.165 -0.085,0.325 -0.143,0.524 -0.101,0.29 -0.264,0.616 -0.46,0.893 -0.396,0.567 -0.952,1.037 -1.569,1.433 -1.248,0.792 -2.703,1.307 -4.147,1.904 -0.362,0.15 -0.726,0.306 -1.086,0.48 L 21.131,4.665 C 20.44,4.995 19.739,5.307 19.029,5.598 16.194,6.75 13.225,7.649 10.172,7.87 8.649,7.976 7.113,7.91 5.621,7.6 4.135,7.275 2.665,6.809 1.393,5.888 l 0.084,0.108 z"
         style="fill:#6b9404;fill-opacity:1;fill-rule:nonzero;stroke:none"
         id="path1239"
         inkscape:connector-curvature="0" />
    </g>
    <g
       id="g1241"
       transform="matrix(0.35277777,0,0,-0.35277777,22.012549,293.64713)">
      <path
         d="M 0,0 C -0.439,-0.882 -0.293,-2.942 0.441,-3.676 3.09,-6.323 5,-1.618 5.881,0.293 c 0.885,2.354 3.09,6.324 2.941,8.823 -0.146,2.5 -3.381,4.116 -5.586,4.558 z"
         style="fill:#94cb3d;fill-opacity:1;fill-rule:nonzero;stroke:none"
         id="path1243"
         inkscape:connector-curvature="0" />
    </g>
    <g
       id="g1245"
       transform="matrix(0.35277777,0,0,-0.35277777,22.012549,293.64713)">
      <path
         d="m 0,0 c 0.527,2.282 1.047,4.566 1.5,6.865 l 1.383,6.893 0.066,0.335 0.359,-0.062 c 1.46,-0.254 2.854,-0.809 4.08,-1.708 0.6,-0.459 1.159,-1.027 1.531,-1.75 C 9.104,10.206 9.235,9.835 9.298,9.389 9.344,9.008 9.327,8.597 9.283,8.223 9.09,6.706 8.529,5.36 7.958,4.045 7.379,2.734 6.7,1.477 6.155,0.19 L 6.146,0.169 V 0.171 C 5.701,-0.725 5.254,-1.648 4.691,-2.503 4.127,-3.324 3.46,-4.242 2.401,-4.504 1.877,-4.62 1.333,-4.449 0.924,-4.146 0.508,-3.856 0.145,-3.457 -0.003,-2.963 -0.309,-2.011 -0.382,-0.936 0,0 m 0,0 c -0.368,-0.939 -0.278,-2.012 0.037,-2.949 0.162,-0.48 0.528,-0.843 0.944,-1.112 0.409,-0.273 0.916,-0.411 1.381,-0.276 0.934,0.295 1.519,1.198 2.007,2.031 0.487,0.865 0.859,1.787 1.246,2.722 L 5.606,0.396 C 6.085,1.762 6.656,3.062 7.16,4.377 7.66,5.685 8.147,7.019 8.304,8.331 8.336,8.662 8.346,8.966 8.303,9.291 8.27,9.549 8.175,9.862 8.04,10.128 7.771,10.679 7.316,11.161 6.804,11.574 5.769,12.403 4.479,12.982 3.165,13.318 L 3.59,13.59 1.736,6.809 C 1.111,4.55 0.551,2.276 0,0"
         style="fill:#6b9404;fill-opacity:1;fill-rule:nonzero;stroke:none"
         id="path1247"
         inkscape:connector-curvature="0" />
    </g>
    <g
       id="g1249"
       transform="matrix(0.35277777,0,0,-0.35277777,20.819849,292.81737)">
      <path
         d="m 0,0 c 0.293,-1.323 -0.146,-3.234 0.588,-4.411 2.648,-5.44 4.998,0.736 5.734,3.383 1.032,3.087 1.912,6.468 2.205,9.704 0.444,3.822 0.735,5.881 -3.822,5.881 -1.469,0 -2.795,0 -3.822,-1.029 z"
         style="fill:#94cb3d;fill-opacity:1;fill-rule:nonzero;stroke:none"
         id="path1251"
         inkscape:connector-curvature="0" />
    </g>
    <g
       id="g1253"
       transform="matrix(0.35277777,0,0,-0.35277777,20.819849,292.81737)">
      <path
         d="m 0,0 c 0.029,2.262 0.12,4.521 0.187,6.781 l 0.294,6.773 0.006,0.138 0.112,0.12 c 0.524,0.569 1.282,0.923 2.012,1.05 C 3.347,15 4.057,14.995 4.742,15.001 5.449,15 6.167,14.967 6.898,14.788 7.612,14.622 8.431,14.193 8.835,13.423 9.23,12.67 9.253,11.889 9.246,11.179 9.226,10.462 9.161,9.77 9.074,9.086 8.935,7.737 8.735,6.329 8.445,4.981 7.875,2.26 7.031,-0.368 6.088,-2.969 5.824,-3.617 5.531,-4.255 5.174,-4.869 4.809,-5.474 4.404,-6.085 3.765,-6.534 3.45,-6.752 3.024,-6.905 2.599,-6.843 2.174,-6.784 1.83,-6.545 1.564,-6.289 1.04,-5.754 0.717,-5.121 0.428,-4.489 L 0.437,-4.504 C 0.036,-3.784 0.027,-2.986 0.029,-2.241 0.03,-1.489 0.12,-0.743 0,0 m 0,0 c 0.185,-0.73 0.185,-1.495 0.227,-2.236 0.044,-0.736 0.127,-1.501 0.511,-2.08 L 0.74,-4.318 0.748,-4.333 c 0.317,-0.591 0.683,-1.174 1.156,-1.589 0.469,-0.447 1.049,-0.515 1.524,-0.129 0.48,0.362 0.844,0.935 1.155,1.512 0.309,0.586 0.564,1.208 0.789,1.842 0.789,2.598 1.663,5.197 2.158,7.864 0.266,1.338 0.433,2.652 0.558,4.033 0.068,0.679 0.159,1.351 0.181,2.005 0.022,0.649 -0.02,1.294 -0.269,1.768 -0.482,0.964 -1.976,1.121 -3.26,1.139 -1.36,0.026 -2.704,0 -3.572,-0.868 L 1.284,13.501 0.696,6.747 C 0.469,4.498 0.265,2.247 0,0"
         style="fill:#6b9404;fill-opacity:1;fill-rule:nonzero;stroke:none"
         id="path1255"
         inkscape:connector-curvature="0" />
    </g>
    <g
       id="g1257"
       transform="matrix(0.35277777,0,0,-0.35277777,15.477199,287.7858)">
      <path
         d="m 0,0 c 3.676,-0.882 8.088,0.882 11.764,1.324 3.822,0.588 5.439,-0.295 5.439,-4.852 0,-3.383 0,-6.176 -0.883,-9.264 -0.734,-2.794 -2.939,-7.499 -4.556,-2.353 -0.883,2.647 -0.149,5.882 -0.883,8.528 0,0 -6.617,0.147 -7.5,-3.529 -0.881,-3.822 2.207,-5.145 3.971,-8.379 1.029,-1.766 2.351,-8.824 -1.618,-6.029 -1.029,0.733 -2.058,3.381 -3.234,4.41 -1.178,1.029 -3.676,2.059 -4.559,3.382 -1.47,2.206 0.588,8.675 0.735,12.351"
         style="fill:#94cb3d;fill-opacity:1;fill-rule:nonzero;stroke:none"
         id="path1259"
         inkscape:connector-curvature="0" />
    </g>
    <g
       id="g1261"
       transform="matrix(0.35277777,0,0,-0.35277777,15.477199,287.7858)">
      <path
         d="m 0,0 c 1.955,-0.405 3.951,-0.099 5.875,0.294 1.936,0.402 3.839,0.97 5.828,1.259 0.971,0.16 2,0.291 3.042,0.097 0.517,-0.103 1.046,-0.316 1.46,-0.691 0.422,-0.368 0.7,-0.858 0.886,-1.352 0.357,-0.999 0.43,-2.028 0.45,-3.034 0.014,-0.994 0.023,-1.986 0.011,-2.985 -0.027,-1.991 -0.17,-4.022 -0.683,-5.985 -0.24,-0.965 -0.546,-1.957 -0.963,-2.887 -0.209,-0.468 -0.443,-0.93 -0.741,-1.374 -0.311,-0.429 -0.63,-0.905 -1.302,-1.167 -0.34,-0.128 -0.796,-0.068 -1.088,0.125 -0.302,0.185 -0.496,0.424 -0.659,0.657 -0.318,0.472 -0.514,0.96 -0.687,1.448 -0.088,0.246 -0.161,0.501 -0.23,0.73 -0.064,0.241 -0.129,0.523 -0.174,0.775 -0.095,0.511 -0.14,1.022 -0.179,1.529 -0.128,2.016 0.052,4.013 -0.44,5.812 l 0.464,-0.36 C 8.854,-7.155 6.635,-7.438 5.04,-8.559 4.236,-9.131 3.807,-9.924 3.726,-10.938 c -0.118,-0.978 0.116,-1.927 0.642,-2.779 1.059,-1.704 2.829,-3.161 3.697,-5.31 0.393,-1.055 0.626,-2.127 0.737,-3.237 0.049,-0.555 0.064,-1.12 -0.032,-1.705 -0.05,-0.292 -0.129,-0.594 -0.291,-0.892 -0.155,-0.294 -0.465,-0.599 -0.851,-0.689 -0.777,-0.151 -1.324,0.205 -1.805,0.486 -0.226,0.142 -0.505,0.339 -0.697,0.566 -0.2,0.219 -0.364,0.448 -0.521,0.678 -0.612,0.918 -1.088,1.875 -1.69,2.718 -0.553,0.857 -1.468,1.351 -2.374,1.935 -0.899,0.577 -1.853,1.125 -2.606,1.996 -0.386,0.457 -0.567,1.033 -0.647,1.582 -0.086,0.552 -0.087,1.101 -0.063,1.643 0.053,1.085 0.216,2.149 0.399,3.205 0.353,2.115 0.876,4.195 1.052,6.33 -0.063,-2.145 -0.499,-4.257 -0.781,-6.372 -0.144,-1.057 -0.266,-2.119 -0.28,-3.174 0.004,-1.034 0.063,-2.159 0.707,-2.891 0.67,-0.746 1.612,-1.278 2.519,-1.827 0.46,-0.276 0.924,-0.545 1.38,-0.864 0.459,-0.305 0.898,-0.732 1.216,-1.179 0.662,-0.888 1.164,-1.845 1.76,-2.694 0.15,-0.209 0.304,-0.412 0.468,-0.585 0.161,-0.178 0.329,-0.287 0.557,-0.427 0.411,-0.256 0.907,-0.453 1.205,-0.362 0.273,0.053 0.464,0.472 0.526,0.947 0.067,0.473 0.05,0.987 0.003,1.495 -0.107,1.018 -0.343,2.054 -0.705,3.001 -0.37,0.904 -0.998,1.768 -1.657,2.573 -0.661,0.817 -1.414,1.603 -2.014,2.577 -0.614,0.959 -0.934,2.195 -0.793,3.353 0.013,0.145 0.039,0.296 0.06,0.442 0.03,0.141 0.042,0.24 0.088,0.416 0.08,0.295 0.182,0.588 0.336,0.856 0.292,0.543 0.717,0.996 1.191,1.344 0.953,0.704 2.046,1.07 3.126,1.316 1.093,0.241 2.176,0.346 3.304,0.341 l 0.371,-0.001 0.092,-0.359 c 0.536,-2.063 0.312,-4.092 0.431,-6.019 0.061,-0.985 0.183,-1.868 0.512,-2.79 0.152,-0.446 0.334,-0.885 0.569,-1.237 0.116,-0.173 0.25,-0.322 0.374,-0.395 0.127,-0.074 0.208,-0.084 0.339,-0.046 0.274,0.086 0.603,0.443 0.852,0.812 0.256,0.378 0.477,0.801 0.675,1.236 0.4,0.878 0.688,1.784 0.935,2.74 0.49,1.878 0.704,3.824 0.766,5.791 0.034,0.983 0.046,1.974 0.054,2.962 0.004,0.969 -0.053,1.95 -0.347,2.83 -0.28,0.89 -0.961,1.542 -1.882,1.716 C 13.72,1.31 12.741,1.208 11.76,1.086 9.813,0.875 7.883,0.378 5.924,0.043 3.977,-0.292 1.934,-0.507 0,0"
         style="fill:#6b9404;fill-opacity:1;fill-rule:nonzero;stroke:none"
         id="path1263"
         inkscape:connector-curvature="0" />
    </g>
  </g>
</svg>
