<?xml version="1.0" encoding="UTF-8" standalone="no"?>
<!-- Created with Inkscape (http://www.inkscape.org/) -->

<svg
   xmlns:dc="http://purl.org/dc/elements/1.1/"
   xmlns:cc="http://creativecommons.org/ns#"
   xmlns:rdf="http://www.w3.org/1999/02/22-rdf-syntax-ns#"
   xmlns:svg="http://www.w3.org/2000/svg"
   xmlns="http://www.w3.org/2000/svg"
   xmlns:sodipodi="http://sodipodi.sourceforge.net/DTD/sodipodi-0.dtd"
   xmlns:inkscape="http://www.inkscape.org/namespaces/inkscape"
   width="15.599mm"
   height="58.672001mm"
   viewBox="0 0 15.599 58.672001"
   version="1.1"
   id="svg4971"
   inkscape:version="0.92.2 5c3e80d, 2017-08-06"
   sodipodi:docname="right-arm.svg">
  <defs
     id="defs4965">
    <clipPath
       id="clipPath695"
       clipPathUnits="userSpaceOnUse">
      <path
         inkscape:connector-curvature="0"
         id="path693"
         d="M 0,500 H 750 V 0 H 0 Z" />
    </clipPath>
    <clipPath
       id="clipPath663"
       clipPathUnits="userSpaceOnUse">
      <path
         inkscape:connector-curvature="0"
         id="path661"
         d="m 140.396,109.06 c -0.843,-5.341 -4.078,-10.685 -6.186,-15.605 v 0 c -0.562,-1.547 -1.265,-3.657 -2.39,-4.922 v 0 c -0.309,-0.31 -0.671,-0.558 -1.054,-0.783 v 0 c 3.094,-0.559 5.993,-1.714 8.787,-3.293 v 0 c 3.374,4.498 4.358,10.826 6.187,15.887 v 0 c 1.125,3.037 2.769,6.433 3.318,9.759 v 0 c -0.993,0.556 -1.904,1.29 -2.756,2.192 v 0 z" />
    </clipPath>
    <clipPath
       id="clipPath635"
       clipPathUnits="userSpaceOnUse">
      <path
         inkscape:connector-curvature="0"
         id="path633"
         d="M 0,500 H 750 V 0 H 0 Z" />
    </clipPath>
    <clipPath
       id="clipPath603"
       clipPathUnits="userSpaceOnUse">
      <path
         inkscape:connector-curvature="0"
         id="path601"
         d="m 91.787,121.45 c 0.549,-3.325 2.194,-6.722 3.319,-9.758 v 0 c 1.829,-5.063 2.812,-11.39 6.186,-15.89 v 0 c 2.794,1.581 5.694,2.737 8.788,3.293 v 0 c -0.383,0.227 -0.745,0.476 -1.055,0.786 v 0 c -1.125,1.265 -1.828,3.373 -2.389,4.92 v 0 c -2.11,4.922 -5.344,10.263 -6.187,15.607 v 0 l -5.906,3.232 c -0.852,-0.902 -1.763,-1.634 -2.756,-2.19" />
    </clipPath>
    <clipPath
       id="clipPath323"
       clipPathUnits="userSpaceOnUse">
      <path
         inkscape:connector-curvature="0"
         id="path321"
         d="M 0,500 H 750 V 0 H 0 Z" />
    </clipPath>
  </defs>
  <sodipodi:namedview
     id="base"
     pagecolor="#ffffff"
     bordercolor="#666666"
     borderopacity="1.0"
     inkscape:pageopacity="0.0"
     inkscape:pageshadow="2"
     inkscape:zoom="0.75531915"
     inkscape:cx="349.23549"
     inkscape:cy="37.807455"
     inkscape:document-units="mm"
     inkscape:current-layer="layer1"
     showgrid="false"
     inkscape:window-width="1280"
     inkscape:window-height="716"
     inkscape:window-x="0"
     inkscape:window-y="1"
     inkscape:window-maximized="1" />
  <metadata
     id="metadata4968">
    <rdf:RDF>
      <cc:Work
         rdf:about="">
        <dc:format>image/svg+xml</dc:format>
        <dc:type
           rdf:resource="http://purl.org/dc/dcmitype/StillImage" />
        <dc:title></dc:title>
      </cc:Work>
    </rdf:RDF>
  </metadata>
  <g
     inkscape:label="Layer 1"
     inkscape:groupmode="layer"
     id="layer1"
     transform="translate(0,-238.32801)">
    <g
       id="g1289"
       transform="matrix(0.35277777,0,0,-0.35277777,9.4916976,283.37347)">
      <path
         d="m 0,0 c 0.893,2.145 0.893,5.004 1.25,7.148 0.895,5.362 1.965,10.365 3.039,15.548 1.072,4.467 2.502,9.114 2.322,13.582 -0.177,4.467 -2.322,8.042 -1.966,12.509 0.716,9.829 4.111,19.837 5.898,29.487 0.537,2.68 3.574,10.901 2.145,13.581 -1.25,2.503 -9.473,2.86 -12.153,3.396 -1.072,0.357 -1.965,0.537 -3.037,0.715 C -3.217,87.03 -5.361,78.274 -5.719,69.16 -6.076,60.403 -7.15,51.646 -7.328,42.89 -7.506,35.206 -7.15,27.521 -7.15,19.836 c 0,-6.254 1.609,-14.654 -0.178,-20.551 z"
         style="fill:#a5cd50;fill-opacity:1;fill-rule:nonzero;stroke:none"
         id="path1291"
         inkscape:connector-curvature="0" />
    </g>
    <g
       id="g1293"
       transform="matrix(0.35277777,0,0,-0.35277777,7.5073266,280.99017)">
      <path
         d="m 0,0 c -2.188,-5.156 -7.652,-8.277 -11.557,-12.027 -2.187,-2.188 -7.341,-4.842 -7.029,-7.655 0.313,-2.812 3.123,-7.341 4.998,-9.371 1.094,-1.25 2.811,-2.656 4.373,-3.281 2.188,-0.781 2.031,-0.469 2.656,1.875 1.094,3.279 2.344,6.248 3.907,9.371 1.091,2.031 4.373,10.154 6.091,4.688 1.092,-3.282 -1.562,-6.719 -0.626,-9.998 0.626,-2.03 2.968,-4.373 5.156,-3.905 0.156,2.342 -0.469,4.686 -0.311,7.184 0.154,2.5 1.248,4.531 2.028,7.029 1.252,4.531 -2.342,7.967 -4.686,11.717"
         style="fill:#94cb3d;fill-opacity:1;fill-rule:nonzero;stroke:none"
         id="path1295"
         inkscape:connector-curvature="0" />
    </g>
    <g
       id="g1297"
       transform="matrix(0.35277777,0,0,-0.35277777,7.5073266,280.99017)">
      <path
         d="m 0,0 c -1.341,-3.384 -4.117,-5.922 -6.817,-8.24 -1.363,-1.172 -2.752,-2.306 -4.054,-3.522 -1.247,-1.3 -2.764,-2.359 -4.14,-3.467 -0.692,-0.558 -1.368,-1.134 -1.958,-1.77 -0.578,-0.631 -1.104,-1.349 -1.221,-2.11 -0.036,-0.187 -0.029,-0.378 -0.01,-0.557 0.032,-0.233 0.064,-0.417 0.116,-0.629 0.098,-0.415 0.23,-0.828 0.383,-1.235 0.305,-0.817 0.693,-1.61 1.106,-2.388 1.687,-3.074 3.851,-6.069 6.919,-7.697 0.383,-0.203 0.752,-0.344 1.173,-0.473 0.382,-0.139 0.885,-0.206 0.886,-0.136 0.096,0.043 0.265,0.548 0.36,0.95 l 0.166,0.65 c 0.033,0.123 0.044,0.188 0.098,0.359 l 0.108,0.319 c 0.573,1.703 1.218,3.406 1.926,5.064 0.699,1.661 1.494,3.302 2.307,4.888 0.802,1.606 1.556,3.26 2.745,4.749 0.313,0.364 0.646,0.733 1.163,0.999 0.256,0.128 0.597,0.218 0.947,0.149 0.35,-0.069 0.627,-0.273 0.817,-0.482 0.382,-0.426 0.572,-0.883 0.74,-1.331 0.082,-0.222 0.151,-0.458 0.212,-0.668 0.062,-0.251 0.11,-0.494 0.139,-0.733 0.228,-1.958 -0.432,-3.741 -0.795,-5.447 -0.4,-1.703 -0.461,-3.466 0.552,-4.849 0.462,-0.701 1.058,-1.33 1.754,-1.782 0.69,-0.449 1.506,-0.705 2.269,-0.548 l -0.295,-0.34 c 0.167,2.221 -0.382,4.517 -0.258,6.878 0.085,2.403 1.136,4.561 1.896,6.693 0.418,1.048 0.597,2.177 0.475,3.293 -0.112,1.119 -0.51,2.201 -1.026,3.217 -1.044,2.035 -2.506,3.843 -3.683,5.823 1.263,-1.925 2.789,-3.664 3.909,-5.704 0.557,-1.016 1.006,-2.118 1.162,-3.292 0.166,-1.171 0.011,-2.386 -0.389,-3.489 -0.719,-2.197 -1.704,-4.31 -1.73,-6.566 -0.083,-2.252 0.513,-4.513 0.39,-6.903 l -0.015,-0.278 -0.28,-0.063 c -1.016,-0.227 -2.043,0.099 -2.852,0.604 -0.819,0.512 -1.499,1.2 -2.032,1.99 -0.534,0.775 -0.914,1.747 -0.965,2.707 -0.075,0.963 0.07,1.901 0.258,2.795 0.379,1.775 0.965,3.491 0.749,5.144 -0.102,0.742 -0.431,1.719 -0.863,2.211 -0.242,0.239 -0.374,0.26 -0.671,0.128 -0.287,-0.144 -0.586,-0.443 -0.849,-0.762 -1.051,-1.329 -1.809,-2.971 -2.592,-4.573 -0.806,-1.615 -1.574,-3.208 -2.286,-4.847 -0.71,-1.638 -1.349,-3.289 -1.93,-4.984 l -0.111,-0.317 -0.079,-0.29 -0.171,-0.653 c -0.059,-0.22 -0.119,-0.444 -0.206,-0.683 -0.091,-0.23 -0.186,-0.525 -0.518,-0.781 -0.363,-0.255 -0.744,-0.212 -0.993,-0.175 -0.266,0.045 -0.496,0.113 -0.719,0.184 -0.437,0.136 -0.907,0.32 -1.316,0.542 -1.657,0.891 -3.054,2.143 -4.231,3.552 -1.171,1.419 -2.156,2.949 -3.014,4.56 -0.427,0.806 -0.805,1.64 -1.115,2.51 -0.153,0.435 -0.288,0.88 -0.387,1.341 -0.051,0.225 -0.091,0.485 -0.116,0.696 -0.025,0.267 -0.023,0.529 0.025,0.784 0.194,1.03 0.83,1.799 1.456,2.469 0.644,0.668 1.351,1.245 2.065,1.799 1.437,1.113 2.902,2.089 4.173,3.361 1.342,1.213 2.77,2.306 4.17,3.424 C -4.3,-5.71 -1.507,-3.303 0,0"
         style="fill:#6b9404;fill-opacity:1;fill-rule:nonzero;stroke:none"
         id="path1299"
         inkscape:connector-curvature="0" />
    </g>
    <g
       id="g1301"
       transform="matrix(0.35277777,0,0,-0.35277777,2.6587055,286.22462)">
      <path
         d="m 0,0 c -0.625,-2.813 -1.562,-5.623 -2.5,-8.436 -0.938,-2.187 -1.562,-4.062 -0.467,-6.25 0.779,-1.404 3.748,-6.248 4.996,-6.871 1.25,2.655 0.938,6.561 1.407,9.528 0.312,2.5 0.47,4.998 0.781,7.498"
         style="fill:#94cb3d;fill-opacity:1;fill-rule:nonzero;stroke:none"
         id="path1303"
         inkscape:connector-curvature="0" />
    </g>
    <g
       id="g1305"
       transform="matrix(0.35277777,0,0,-0.35277777,2.6587055,286.22462)">
      <path
         d="M 0,0 C -0.225,-1.452 -0.575,-2.887 -0.94,-4.311 -1.305,-5.737 -1.753,-7.139 -2.174,-8.544 L -2.176,-8.55 -2.184,-8.571 c -0.461,-1.155 -0.874,-2.325 -0.922,-3.484 -0.026,-0.578 0.06,-1.147 0.246,-1.69 0.09,-0.264 0.216,-0.551 0.342,-0.776 l 0.474,-0.798 c 0.645,-1.064 1.318,-2.115 2.028,-3.131 0.358,-0.505 0.713,-1.011 1.094,-1.487 0.364,-0.456 0.812,-0.98 1.168,-1.186 L 1.591,-21.35 c 0.562,1.212 0.798,2.61 0.955,4.01 0.145,1.408 0.239,2.843 0.418,4.285 0.234,1.431 0.402,2.839 0.604,4.262 0.203,1.421 0.379,2.85 0.649,4.262 L 3.984,-8.832 c -0.061,-1.434 -0.203,-2.879 -0.343,-4.292 -0.108,-1.413 -0.093,-2.85 -0.221,-4.299 -0.128,-1.442 -0.306,-2.933 -0.952,-4.341 l -0.223,-0.485 -0.433,0.259 c -0.73,0.436 -1.069,0.935 -1.504,1.434 -0.405,0.503 -0.785,1.014 -1.142,1.539 -0.718,1.048 -1.39,2.117 -2.035,3.204 -0.162,0.273 -0.319,0.548 -0.472,0.83 -0.17,0.328 -0.286,0.623 -0.392,0.954 -0.204,0.649 -0.288,1.344 -0.239,2.019 0.09,1.364 0.642,2.566 1.156,3.71 l -0.01,-0.027 1.481,4.14 C -0.852,-2.807 -0.413,-1.412 0,0"
         style="fill:#6b9404;fill-opacity:1;fill-rule:nonzero;stroke:none"
         id="path1307"
         inkscape:connector-curvature="0" />
    </g>
    <g
       id="g1309"
       transform="matrix(0.35277777,0,0,-0.35277777,3.0996855,286.44581)">
      <path
         d="m 0,0 c 1.562,-4.996 -0.937,-9.371 -0.937,-14.369 0,-3.125 0.468,-6.248 0.625,-9.217 0.156,-1.562 -0.313,-3.906 1.718,-3.594 1.407,0.313 2.186,3.282 2.498,4.375 0.782,3.28 0.157,6.873 0.782,10.153 0.468,2.812 1.718,5.312 2.343,8.123"
         style="fill:#94cb3d;fill-opacity:1;fill-rule:nonzero;stroke:none"
         id="path1311"
         inkscape:connector-curvature="0" />
    </g>
    <g
       id="g1313"
       transform="matrix(0.35277777,0,0,-0.35277777,3.0996855,286.44581)">
      <path
         d="m 0,0 c 0.779,-2.059 0.771,-4.347 0.48,-6.515 -0.306,-2.177 -0.834,-4.301 -0.97,-6.439 -0.107,-2.116 0.089,-4.299 0.296,-6.456 0.105,-1.084 0.219,-2.171 0.302,-3.268 0.035,-0.554 0.089,-1.085 0.107,-1.655 0.015,-0.551 0.015,-1.088 0.099,-1.555 0.041,-0.23 0.104,-0.441 0.194,-0.575 0.089,-0.137 0.184,-0.195 0.348,-0.237 0.143,-0.03 0.444,-0.028 0.56,0.029 0.117,0.042 0.313,0.178 0.457,0.338 0.619,0.692 1.003,1.736 1.326,2.735 0.709,2.024 0.683,4.154 0.775,6.344 0.034,1.091 0.077,2.193 0.208,3.295 0.139,1.102 0.368,2.186 0.691,3.243 0.671,2.101 1.574,4.079 2.156,6.187 -0.361,-2.16 -1.186,-4.216 -1.683,-6.318 -0.265,-1.043 -0.448,-2.109 -0.535,-3.175 -0.082,-1.071 -0.08,-2.151 -0.068,-3.241 0.013,-1.09 0.028,-2.189 -0.064,-3.299 -0.076,-1.095 -0.268,-2.275 -0.61,-3.304 -0.341,-1.06 -0.673,-2.146 -1.493,-3.115 -0.225,-0.238 -0.463,-0.457 -0.859,-0.609 -0.397,-0.128 -0.663,-0.121 -1.054,-0.069 -0.371,0.063 -0.772,0.315 -0.976,0.644 -0.215,0.323 -0.3,0.65 -0.356,0.953 -0.098,0.611 -0.082,1.169 -0.093,1.708 -0.008,0.52 -0.055,1.076 -0.081,1.61 -0.067,1.08 -0.166,2.163 -0.256,3.252 -0.162,2.181 -0.388,4.366 -0.154,6.604 0.239,2.217 0.855,4.325 1.252,6.451 C 0.442,-4.323 0.559,-2.123 0,0"
         style="fill:#6b9404;fill-opacity:1;fill-rule:nonzero;stroke:none"
         id="path1315"
         inkscape:connector-curvature="0" />
    </g>
    <g
       id="g1317"
       transform="matrix(0.35277777,0,0,-0.35277777,4.8628666,287.60267)">
      <path
         d="m 0,0 c 0,-4.375 -1.875,-8.279 -1.562,-12.496 0.156,-3.281 0.468,-6.717 1.406,-9.842 1.406,-5.31 3.904,-1.562 4.06,2.031 0.315,4.686 -0.466,8.436 1.094,12.809 0.783,2.344 1.633,11.336 3.818,11.961"
         style="fill:#94cb3d;fill-opacity:1;fill-rule:nonzero;stroke:none"
         id="path1319"
         inkscape:connector-curvature="0" />
    </g>
    <g
       id="g1321"
       transform="matrix(0.35277777,0,0,-0.35277777,4.8628666,287.60267)">
      <path
         d="m 0,0 c 0.117,-2.397 -0.422,-4.772 -0.813,-7.11 -0.208,-1.169 -0.391,-2.339 -0.439,-3.508 -0.024,-0.584 -0.017,-1.167 0.032,-1.745 l 0.137,-1.783 c 0.221,-2.36 0.478,-4.715 1.068,-6.987 0.32,-1.101 0.578,-2.363 1.202,-3.104 0.343,-0.345 0.487,-0.343 0.861,-0.031 0.335,0.321 0.6,0.827 0.803,1.335 0.427,1.051 0.576,2.14 0.616,3.341 0.063,1.172 0.064,2.357 0.061,3.549 -0.004,2.373 -0.012,4.844 0.667,7.205 0.151,0.578 0.382,1.19 0.556,1.711 0.164,0.55 0.292,1.132 0.418,1.711 0.251,1.161 0.477,2.334 0.746,3.5 0.275,1.164 0.572,2.327 0.96,3.464 0.197,0.566 0.415,1.13 0.7,1.661 C 7.869,3.716 8.222,4.29 8.816,4.463 8.244,4.242 7.955,3.661 7.707,3.144 7.465,2.605 7.282,2.041 7.123,1.471 6.81,0.328 6.587,-0.84 6.385,-2.012 L 5.778,-5.536 C 5.673,-6.126 5.567,-6.715 5.414,-7.314 5.233,-7.932 5.059,-8.443 4.929,-9.025 c -0.532,-2.273 -0.538,-4.629 -0.493,-7.011 0.018,-1.193 0.032,-2.394 -0.017,-3.603 -0.023,-1.177 -0.17,-2.494 -0.641,-3.663 -0.244,-0.59 -0.534,-1.175 -1.065,-1.683 -0.263,-0.242 -0.65,-0.497 -1.149,-0.478 -0.501,0.026 -0.865,0.327 -1.095,0.595 -0.469,0.563 -0.684,1.165 -0.883,1.758 -0.185,0.61 -0.331,1.149 -0.483,1.756 -0.564,2.359 -0.852,4.762 -0.954,7.157 l -0.068,1.788 c -0.027,0.612 -0.013,1.224 0.036,1.83 0.099,1.212 0.327,2.398 0.589,3.565 C -0.737,-4.688 -0.111,-2.392 0,0"
         style="fill:#6b9404;fill-opacity:1;fill-rule:nonzero;stroke:none"
         id="path1323"
         inkscape:connector-curvature="0" />
    </g>
    <g
       id="g1325"
       transform="matrix(0.35277777,0,0,-0.35277777,5.8509266,251.74112)">
      <path
         d="m 0,0 c 5.361,0.804 7.771,9.65 8.578,14.073 0.535,3.887 1.826,17.53 4.824,19.837 3.485,2.68 7.371,-3.217 8.711,-5.094 1.879,-2.412 2.547,-7.237 3.354,-10.32 1.875,-5.897 0.4,-13.269 0.4,-19.434 0,-2.949 -0.267,-5.898 0.268,-8.712 -3.752,-0.402 -9.783,6.701 -10.186,10.186 -0.135,-3.887 -1.072,-8.444 -0.402,-12.197 -1.072,2.145 -2.412,5.227 -3.887,6.97 -2.414,-2.279 -5.629,-2.413 -8.445,-3.753 0.537,2.815 2.146,6.97 3.486,9.248 z"
         style="fill:#bbf1f4;fill-opacity:1;fill-rule:nonzero;stroke:none"
         id="path1327"
         inkscape:connector-curvature="0" />
    </g>
  </g>
</svg>
