<?xml version="1.0" encoding="UTF-8" standalone="no"?>
<!-- Created with Inkscape (http://www.inkscape.org/) -->

<svg
   xmlns:dc="http://purl.org/dc/elements/1.1/"
   xmlns:cc="http://creativecommons.org/ns#"
   xmlns:rdf="http://www.w3.org/1999/02/22-rdf-syntax-ns#"
   xmlns:svg="http://www.w3.org/2000/svg"
   xmlns="http://www.w3.org/2000/svg"
   xmlns:sodipodi="http://sodipodi.sourceforge.net/DTD/sodipodi-0.dtd"
   xmlns:inkscape="http://www.inkscape.org/namespaces/inkscape"
   width="15.599mm"
   height="58.672001mm"
   viewBox="0 0 15.599 58.672001"
   version="1.1"
   id="svg4971"
   inkscape:version="0.92.2 5c3e80d, 2017-08-06"
   sodipodi:docname="zombie1.svg">
  <defs
     id="defs4965">
    <clipPath
       id="clipPath695"
       clipPathUnits="userSpaceOnUse">
      <path
         inkscape:connector-curvature="0"
         id="path693"
         d="M 0,500 H 750 V 0 H 0 Z" />
    </clipPath>
    <clipPath
       id="clipPath663"
       clipPathUnits="userSpaceOnUse">
      <path
         inkscape:connector-curvature="0"
         id="path661"
         d="m 140.396,109.06 c -0.843,-5.341 -4.078,-10.685 -6.186,-15.605 v 0 c -0.562,-1.547 -1.265,-3.657 -2.39,-4.922 v 0 c -0.309,-0.31 -0.671,-0.558 -1.054,-0.783 v 0 c 3.094,-0.559 5.993,-1.714 8.787,-3.293 v 0 c 3.374,4.498 4.358,10.826 6.187,15.887 v 0 c 1.125,3.037 2.769,6.433 3.318,9.759 v 0 c -0.993,0.556 -1.904,1.29 -2.756,2.192 v 0 z" />
    </clipPath>
    <clipPath
       id="clipPath635"
       clipPathUnits="userSpaceOnUse">
      <path
         inkscape:connector-curvature="0"
         id="path633"
         d="M 0,500 H 750 V 0 H 0 Z" />
    </clipPath>
    <clipPath
       id="clipPath603"
       clipPathUnits="userSpaceOnUse">
      <path
         inkscape:connector-curvature="0"
         id="path601"
         d="m 91.787,121.45 c 0.549,-3.325 2.194,-6.722 3.319,-9.758 v 0 c 1.829,-5.063 2.812,-11.39 6.186,-15.89 v 0 c 2.794,1.581 5.694,2.737 8.788,3.293 v 0 c -0.383,0.227 -0.745,0.476 -1.055,0.786 v 0 c -1.125,1.265 -1.828,3.373 -2.389,4.92 v 0 c -2.11,4.922 -5.344,10.263 -6.187,15.607 v 0 l -5.906,3.232 c -0.852,-0.902 -1.763,-1.634 -2.756,-2.19" />
    </clipPath>
    <clipPath
       id="clipPath323"
       clipPathUnits="userSpaceOnUse">
      <path
         inkscape:connector-curvature="0"
         id="path321"
         d="M 0,500 H 750 V 0 H 0 Z" />
    </clipPath>
  </defs>
  <sodipodi:namedview
     id="base"
     pagecolor="#ffffff"
     bordercolor="#666666"
     borderopacity="1.0"
     inkscape:pageopacity="0.0"
     inkscape:pageshadow="2"
     inkscape:zoom="0.75531915"
     inkscape:cx="349.23549"
     inkscape:cy="37.807455"
     inkscape:document-units="mm"
     inkscape:current-layer="layer1"
     showgrid="false"
     inkscape:window-width="1280"
     inkscape:window-height="716"
     inkscape:window-x="0"
     inkscape:window-y="1"
     inkscape:window-maximized="1" />
  <metadata
     id="metadata4968">
    <rdf:RDF>
      <cc:Work
         rdf:about="">
        <dc:format>image/svg+xml</dc:format>
        <dc:type
           rdf:resource="http://purl.org/dc/dcmitype/StillImage" />
        <dc:title></dc:title>
      </cc:Work>
    </rdf:RDF>
  </metadata>
  <g
     inkscape:label="Layer 1"
     inkscape:groupmode="layer"
     id="layer1"
     transform="translate(0,-238.32801)">
    <g
       id="g1141"
       transform="matrix(0.35277777,0,0,-0.35277777,9.6805065,316.188)">
      <path
         d="M 0,0 C 0.537,-14.207 -2.947,-32.436 -8.041,-45.57 H 0.27 c 4.021,0.267 4.021,0 5.091,4.021 1.608,5.36 2.682,11.258 4.022,17.154 2.68,11.528 6.433,23.053 8.846,34.581 1.609,7.505 3.753,15.011 3.216,22.785 -0.267,5.361 -1.877,5.898 -7.238,6.166 -2.144,0 -6.971,0.535 -7.773,-1.073 z"
         style="fill:#a5cd50;fill-opacity:1;fill-rule:nonzero;stroke:none"
         id="path1143"
         inkscape:connector-curvature="0" />
    </g>
    <g
       id="g1145"
       transform="matrix(0.35277777,0,0,-0.35277777,41.370566,314.08029)">
      <path
         d="m 0,0 c -0.514,4.279 -0.162,4.613 -2.174,7.697 1.072,4.289 2.279,8.309 -2.277,11.258 3.619,3.887 2.121,11.52 1.986,16.344 -0.133,2.681 0.024,5.101 -3.73,5.101 -4.825,0 -6.701,-5.361 -7.371,-9.248 -0.805,-5.898 -0.403,-12.064 0.939,-17.691 1.607,-6.703 1.742,-13.404 4.557,-19.703 z"
         style="fill:#6b9404;fill-opacity:1;fill-rule:nonzero;stroke:none"
         id="path1147"
         inkscape:connector-curvature="0" />
    </g>
    <g
       id="g1149"
       transform="matrix(0.35277777,0,0,-0.35277777,41.370566,314.08029)">
      <path
         d="m 0,0 c -4.393,2.344 -7.201,5.287 -4.318,11.717 -2.948,1.609 -6.702,8.845 -1.608,10.187 -1.607,3.215 -3.219,8.041 -0.804,11.258 0.859,0.983 2.503,1.733 4.265,2.137 -0.146,15.631 -0.99,51.746 -2.926,59.25 l -23.857,-6.166 c 2.412,-19.031 8.043,-38.869 8.311,-58.17 0,-5.897 -0.805,-11.526 -0.538,-17.424 0.27,-6.166 4.498,-10.459 6.166,-16.352 4.022,-14.207 9.383,-34.042 9.383,-33.24 3.485,-0.535 6.166,0.27 9.651,0.27 C 3.156,-29.734 1.469,-14.549 0,0"
         style="fill:#a5cd50;fill-opacity:1;fill-rule:nonzero;stroke:none"
         id="path1151"
         inkscape:connector-curvature="0" />
    </g>
    <g
       id="g1153"
       transform="matrix(0.35277777,0,0,-0.35277777,13.904876,271.77364)">
      <path
         d="m 0,0 c 0,-24.661 -5.006,-49.68 -7.865,-73.985 -0.713,-5.004 -2.5,-8.935 -3.217,-13.582 -0.713,-5.004 0.717,-10.008 -0.356,-14.654 -0.716,-4.287 -3.216,-7.506 -3.574,-12.51 0,-5.717 0,-7.506 -3.931,-12.51 2.144,-1.429 5.004,-2.144 7.505,-2.502 -1.429,-3.215 -3.574,-7.146 -6.076,-9.65 7.149,-0.358 8.219,1.787 11.795,-5.361 0,7.148 1.43,15.369 2.86,22.162 1.787,-4.289 6.076,-6.078 8.933,-9.295 0.36,5.72 0.715,11.439 2.504,17.156 1.43,-1.43 3.217,-2.145 5.002,-2.502 -5.361,13.582 4.649,34.67 7.506,48.609 1.787,8.936 3.217,17.872 5.361,26.805 1.432,5.721 6.076,23.949 6.076,24.663 2.502,-1.072 10.317,-1.153 10.317,-1.153 1.43,-1.785 4.131,-27.869 4.49,-35.733 2.859,4.647 3.422,7.221 5.924,11.868 2.144,-1.43 3.932,-3.575 6.076,-5.362 0.717,2.86 1.072,5.717 2.145,8.578 2.144,-5.718 4.646,-11.437 6.433,-17.156 4.647,1.072 8.936,2.145 13.225,3.932 -0.715,3.217 -2.147,6.789 -2.86,10.008 1.43,-0.358 2.86,-0.358 3.932,-1.073 -3.574,10.366 -7.148,19.301 -8.935,30.022 C 71.84,-3.931 68.266,6.434 68.623,15.727 47.178,13.582 26.447,14.654 5.359,15.012 Z"
         style="fill:#815dc8;fill-opacity:1;fill-rule:nonzero;stroke:none"
         id="path1155"
         inkscape:connector-curvature="0" />
    </g>
    <g
       id="g1157"
       transform="matrix(0.35277777,0,0,-0.35277777,22.549306,277.83634)">
      <path
         d="m 0,0 c 2.433,0.206 4.877,0.244 7.313,0.236 2.439,0.004 4.874,-0.1 7.305,-0.205 2.43,-0.128 4.859,-0.258 7.284,-0.436 l 3.64,-0.245 c 1.214,-0.107 2.429,-0.169 3.645,-0.286 -1.216,-0.11 -2.435,-0.146 -3.655,-0.204 l -3.658,-0.034 c -2.438,-0.002 -4.873,0.101 -7.305,0.207 -2.429,0.13 -4.858,0.259 -7.283,0.438 C 4.858,-0.361 2.435,-0.206 0,0"
         style="fill:#5a439a;fill-opacity:1;fill-rule:nonzero;stroke:none"
         id="path1159"
         inkscape:connector-curvature="0" />
    </g>
    <g
       id="g1161"
       transform="matrix(0.35277777,0,0,-0.35277777,26.378186,277.90248)">
      <path
         d="M 0,0 C -0.012,4.035 0.124,8.03 -0.012,12.017 -0.117,16.007 -0.49,19.965 -1.123,23.948 0.28,20.155 0.855,16.083 0.987,12.047 1.093,8.002 0.771,3.959 0,0"
         style="fill:#5a439a;fill-opacity:1;fill-rule:nonzero;stroke:none"
         id="path1163"
         inkscape:connector-curvature="0" />
    </g>
    <g
       id="g1165"
       transform="matrix(0.35277777,0,0,-0.35277777,28.819365,278.03442)">
      <path
         d="m 0,0 c 0.023,2.307 0.161,4.602 0.288,6.894 l 0.386,6.864 c 0.129,2.285 0.198,4.571 0.256,6.859 0.031,1.144 0.036,2.289 0.023,3.436 0.021,1.148 -0.016,2.295 -0.016,3.449 C 1.162,26.37 1.297,25.225 1.442,24.079 1.555,22.932 1.636,21.78 1.699,20.627 1.822,18.321 1.779,16.01 1.672,13.707 1.541,11.405 1.349,9.108 1.051,6.825 0.764,4.541 0.435,2.265 0,0"
         style="fill:#5a439a;fill-opacity:1;fill-rule:nonzero;stroke:none"
         id="path1167"
         inkscape:connector-curvature="0" />
    </g>
    <g
       id="g1169"
       transform="matrix(0.35277777,0,0,-0.35277777,-0.01263376,338.97868)">
      <path
         d="m 0,0 c -0.937,-0.135 -1.875,-0.402 -2.68,-0.937 -1.877,-1.073 -2.65,-3.405 -0.775,-5.149 1.877,-1.742 5.869,-2.76 8.146,-2.894 3.082,-0.133 6.032,0 8.981,0.669 3.349,0.672 5.629,2.817 7.639,5.362 1.876,2.279 2.414,6.166 4.693,7.373 4.957,2.68 13.803,3.349 11.391,11.793 -0.67,2.549 -2.95,1.074 -4.959,-0.133 C 29.756,14.609 26.941,13.27 24.26,11.93 21.715,10.59 19.033,9.785 16.621,8.311 14.342,6.836 12.063,5.227 9.516,4.289 Z"
         style="fill:#d69b3d;fill-opacity:1;fill-rule:nonzero;stroke:none"
         id="path1171"
         inkscape:connector-curvature="0" />
    </g>
    <g
       id="g1173"
       transform="matrix(0.35277777,0,0,-0.35277777,6.3235766,329.94771)">
      <path
         d="m 0,0 c -5.496,-7.639 -22.451,-15.275 -20.641,-26.537 0.543,-3.375 11.03,-4.658 15.184,-3.318 7.103,2.412 8.137,11.626 14.973,14.173 2.816,1.073 6.166,2.012 7.908,4.692 1.609,2.279 1.34,5.226 1.207,7.908 -0.135,2.547 1.986,7.353 -0.158,8.098 C 15.377,6.088 15.279,2.949 14.475,1.475 12.6,-1.742 10.053,-1.607 6.701,-1.742 Z"
         style="fill:#916023;fill-opacity:1;fill-rule:nonzero;stroke:none"
         id="path1175"
         inkscape:connector-curvature="0" />
    </g>
    <g
       id="g1177"
       transform="matrix(0.35277777,0,0,-0.35277777,10.247556,330.40247)">
      <path
         d="m 0,0 c -2.814,-2.682 -7.236,-5.277 -11.391,-3.268 -3.754,1.877 -0.804,4.959 0.536,7.776 1.607,3.215 3.486,4.556 7.238,4.287 1.474,-0.133 3.351,-0.535 3.619,-2.277 z"
         style="fill:#c58833;fill-opacity:1;fill-rule:nonzero;stroke:none"
         id="path1179"
         inkscape:connector-curvature="0" />
    </g>
    <g
       id="g1181"
       transform="matrix(0.35277777,0,0,-0.35277777,1.9303965,334.26613)">
      <path
         d="m 0,0 c 4.225,2.354 9.462,-0.06 11.31,-4.296 0.385,-0.885 1.677,-0.12 1.294,0.758 C 10.422,1.466 4.12,4.014 -0.758,1.295 -1.603,0.824 -0.846,-0.472 0,0"
         style="fill:#674013;fill-opacity:1;fill-rule:nonzero;stroke:none"
         id="path1183"
         inkscape:connector-curvature="0" />
    </g>
    <g
       id="g1185"
       transform="matrix(0.35277777,0,0,-0.35277777,2.9701455,333.22572)">
      <path
         d="m 0,0 c 4.226,2.353 9.463,-0.06 11.31,-4.298 0.385,-0.885 1.677,-0.12 1.294,0.758 C 10.424,1.467 4.121,4.011 -0.758,1.295 -1.603,0.824 -0.847,-0.471 0,0"
         style="fill:#674013;fill-opacity:1;fill-rule:nonzero;stroke:none"
         id="path1187"
         inkscape:connector-curvature="0" />
    </g>
    <g
       id="g1189"
       transform="matrix(0.35277777,0,0,-0.35277777,4.1993566,332.0909)">
      <path
         d="m 0,0 c 4.226,2.353 9.463,-0.058 11.31,-4.296 0.385,-0.885 1.677,-0.12 1.294,0.758 C 10.423,1.469 4.121,4.012 -0.758,1.295 -1.603,0.824 -0.847,-0.472 0,0"
         style="fill:#674013;fill-opacity:1;fill-rule:nonzero;stroke:none"
         id="path1191"
         inkscape:connector-curvature="0" />
    </g>
    <g
       id="g1193"
       transform="matrix(0.35277777,0,0,-0.35277777,50.779786,335.76304)">
      <path
         d="m 0,0 c 0.939,-0.135 1.877,-0.402 2.682,-0.939 1.877,-1.073 2.65,-3.405 0.775,-5.147 -1.877,-1.744 -5.869,-2.762 -8.146,-2.896 -3.084,-0.133 -6.032,0 -8.981,0.671 -3.351,0.67 -5.631,2.815 -7.641,5.362 -1.876,2.279 -2.412,6.164 -4.691,7.371 -4.959,2.68 -13.805,3.351 -11.391,11.795 0.668,2.547 2.948,1.072 4.957,-0.133 2.682,-1.475 5.497,-2.816 8.178,-4.156 2.545,-1.34 5.227,-2.145 7.639,-3.619 2.277,-1.475 4.556,-3.082 7.103,-4.02 z"
         style="fill:#d69b3d;fill-opacity:1;fill-rule:nonzero;stroke:none"
         id="path1195"
         inkscape:connector-curvature="0" />
    </g>
    <g
       id="g1197"
       transform="matrix(0.35277777,0,0,-0.35277777,44.444246,326.73274)">
      <path
         d="m 0,0 c 5.496,-7.639 22.451,-15.273 20.641,-26.537 -0.543,-3.375 -11.03,-4.658 -15.184,-3.318 -7.103,2.412 -8.139,11.628 -14.975,14.175 -2.812,1.073 -6.164,2.01 -7.906,4.692 -1.609,2.277 -1.342,5.226 -1.207,7.906 0.133,2.547 -1.986,7.355 0.158,8.098 3.094,1.072 3.192,-2.065 3.996,-3.541 1.877,-3.215 4.424,-3.082 7.774,-3.215 z"
         style="fill:#916023;fill-opacity:1;fill-rule:nonzero;stroke:none"
         id="path1199"
         inkscape:connector-curvature="0" />
    </g>
    <g
       id="g1201"
       transform="matrix(0.35277777,0,0,-0.35277777,40.520306,327.1875)">
      <path
         d="m 0,0 c 2.814,-2.68 7.236,-5.277 11.391,-3.268 3.754,1.877 0.804,4.961 -0.536,7.776 C 9.246,7.725 7.369,9.064 3.617,8.797 2.143,8.662 0.268,8.26 -0.002,6.518 Z"
         style="fill:#c58833;fill-opacity:1;fill-rule:nonzero;stroke:none"
         id="path1203"
         inkscape:connector-curvature="0" />
    </g>
    <g
       id="g1205"
       transform="matrix(0.35277777,0,0,-0.35277777,49.104796,330.59368)">
      <path
         d="m 0,0 c -4.879,2.716 -11.182,0.172 -13.362,-4.835 -0.383,-0.878 0.909,-1.643 1.295,-0.758 1.846,4.239 7.084,6.651 11.309,4.298 C 0.089,-1.766 0.845,-0.471 0,0"
         style="fill:#674013;fill-opacity:1;fill-rule:nonzero;stroke:none"
         id="path1207"
         inkscape:connector-curvature="0" />
    </g>
    <g
       id="g1209"
       transform="matrix(0.35277777,0,0,-0.35277777,48.064386,329.55323)">
      <path
         d="m 0,0 c -4.879,2.717 -11.18,0.169 -13.362,-4.835 -0.383,-0.878 0.909,-1.643 1.295,-0.758 1.847,4.237 7.085,6.651 11.309,4.298 C 0.088,-1.767 0.845,-0.471 0,0"
         style="fill:#674013;fill-opacity:1;fill-rule:nonzero;stroke:none"
         id="path1211"
         inkscape:connector-curvature="0" />
    </g>
    <g
       id="g1213"
       transform="matrix(0.35277777,0,0,-0.35277777,46.835166,328.41912)">
      <path
         d="m 0,0 c -4.879,2.718 -11.18,0.174 -13.36,-4.833 -0.382,-0.878 0.909,-1.643 1.295,-0.758 1.846,4.238 7.083,6.65 11.307,4.296 C 0.088,-1.767 0.845,-0.471 0,0"
         style="fill:#674013;fill-opacity:1;fill-rule:nonzero;stroke:none"
         id="path1215"
         inkscape:connector-curvature="0" />
    </g>
    <g
       id="g1217"
       transform="matrix(0.35277777,0,0,-0.35277777,43.914416,264.46024)">
      <path
         d="m 0,0 c 4.467,-4.825 9.826,-8.936 14.652,-13.225 3.217,-2.859 6.969,-6.969 11.08,-8.578 1.965,-0.893 3.932,-0.714 5.362,1.072 1.967,2.145 0.357,2.86 -1.25,5.183 C 25.375,-9.292 20.908,-3.217 16.797,3.395 13.76,8.22 9.471,16.798 5.537,19.836 Z"
         style="fill:#a5cd50;fill-opacity:1;fill-rule:nonzero;stroke:none"
         id="path1219"
         inkscape:connector-curvature="0" />
    </g>
    <g
       id="g1221"
       transform="matrix(0.35277777,0,0,-0.35277777,38.743996,248.7623)">
      <path
         d="m 0,0 c 1.787,-7.505 2.859,-15.547 3.039,-23.232 0.178,-4.825 0.893,-6.791 3.574,-10.901 2.323,-3.575 2.86,-6.613 2.5,-10.902 1.252,0.715 2.682,1.251 3.754,2.145 1.072,-3.216 2.502,-6.612 3.752,-9.65 1.252,1.965 3.217,3.217 5.184,4.467 -1.25,2.323 -2.68,5.719 -3.039,8.4 2.681,-2.324 6.076,-3.038 9.115,-4.647 -1.609,2.681 -3.574,6.612 -3.574,9.829 2.679,-2.502 7.506,-1.965 10.72,-0.715 -3.394,2.86 -6.611,5.183 -9.291,8.578 -1.787,2.145 -3.931,7.327 -6.791,7.506 0.18,2.145 1.965,3.575 1.073,5.897 -0.358,1.073 -1.61,1.251 -1.965,2.324 -0.36,0.893 0.178,2.323 0.178,3.216 0.177,4.647 -0.538,9.293 -0.895,13.939 -0.535,9.115 -1.07,18.408 -1.07,27.701 0,11.616 -6.256,18.228 -17.873,18.228 z"
         style="fill:#80cbcf;fill-opacity:1;fill-rule:nonzero;stroke:none"
         id="path1223"
         inkscape:connector-curvature="0" />
    </g>
    <g
       id="g1225"
       transform="matrix(0.35277777,0,0,-0.35277777,43.661536,252.48199)">
      <path
         d="M 0,0 C -0.924,-0.428 -1.858,-0.815 -2.751,-1.283 -3.651,-1.727 -4.527,-2.212 -5.347,-2.76 -6.154,-3.317 -6.929,-3.925 -7.5,-4.67 -8.083,-5.398 -8.447,-6.257 -8.437,-7.148 l -0.382,0.486 c 0.852,-0.217 1.77,-0.098 2.677,0.16 0.913,0.249 1.814,0.648 2.754,0.986 0.935,0.349 1.918,0.664 2.946,0.755 1.023,0.076 2.079,-0.096 2.944,-0.6 -0.953,0.295 -1.941,0.344 -2.875,0.119 -0.938,-0.195 -1.825,-0.586 -2.719,-0.99 -0.889,-0.415 -1.795,-0.846 -2.778,-1.172 -0.978,-0.317 -2.094,-0.483 -3.181,-0.23 l -0.383,0.089 -0.001,0.397 c -0.003,1.15 0.497,2.253 1.2,3.077 0.713,0.826 1.57,1.466 2.476,1.976 0.903,0.52 1.854,0.922 2.817,1.265 C -1.97,-0.509 -0.996,-0.212 0,0"
         style="fill:#59a9aa;fill-opacity:1;fill-rule:nonzero;stroke:none"
         id="path1227"
         inkscape:connector-curvature="0" />
    </g>
    <g
       id="g1229"
       transform="matrix(0.35277777,0,0,-0.35277777,44.733666,255.00361)">
      <path
         d="m 0,0 c -0.654,-0.865 -1.567,-1.503 -2.495,-2.038 -0.935,-0.539 -1.929,-0.957 -2.944,-1.306 -1.021,-0.33 -2.066,-0.598 -3.137,-0.73 -1.061,-0.13 -2.18,-0.177 -3.219,0.142 1.066,0.099 2.064,0.359 3.067,0.623 0.999,0.28 1.992,0.578 2.972,0.913 0.986,0.318 1.956,0.682 2.922,1.058 C -1.872,-0.947 -0.922,-0.546 0,0"
         style="fill:#59a9aa;fill-opacity:1;fill-rule:nonzero;stroke:none"
         id="path1231"
         inkscape:connector-curvature="0" />
    </g>
    <g
       id="g1233"
       transform="matrix(0.35277777,0,0,-0.35277777,53.722586,273.8817)">
      <path
         d="m 0,0 c 4.703,-0.293 9.703,1.324 14.557,1.472 2.498,0 6.615,0.146 8.527,-1.618 2.059,-1.765 1.324,-7.793 3.822,-8.381 3.383,-0.736 3.676,5.735 3.088,7.793 C 29.113,2.647 24.408,3.383 21.76,4.853 16.025,7.646 8.232,9.853 2.203,6.617 1.91,6.47 1.617,6.176 1.322,6.029 Z"
         style="fill:#94cb3d;fill-opacity:1;fill-rule:nonzero;stroke:none"
         id="path1235"
         inkscape:connector-curvature="0" />
    </g>
    <g
       id="g1237"
       transform="matrix(0.35277777,0,0,-0.35277777,53.722586,273.8817)">
      <path
         d="M 0,0 1.168,6.063 1.178,6.111 1.252,6.17 C 2.457,7.131 3.992,7.724 5.509,8.102 7.047,8.465 8.636,8.577 10.208,8.51 13.358,8.354 16.445,7.561 19.353,6.396 20.081,6.105 20.8,5.793 21.512,5.46 l 1.043,-0.511 c 0.339,-0.159 0.689,-0.307 1.045,-0.45 1.421,-0.576 2.921,-1.082 4.311,-1.942 0.688,-0.433 1.351,-0.971 1.853,-1.675 0.251,-0.356 0.449,-0.724 0.604,-1.166 0.053,-0.173 0.122,-0.381 0.168,-0.597 0.046,-0.208 0.08,-0.412 0.107,-0.616 0.19,-1.62 0.087,-3.228 -0.372,-4.813 -0.25,-0.778 -0.594,-1.595 -1.326,-2.205 -0.362,-0.3 -0.842,-0.5 -1.322,-0.531 -0.468,-0.029 -0.947,0.038 -1.396,0.298 -0.864,0.56 -1.166,1.434 -1.416,2.186 -0.238,0.776 -0.387,1.548 -0.544,2.306 -0.159,0.756 -0.312,1.506 -0.547,2.205 -0.118,0.348 -0.257,0.683 -0.432,0.98 -0.084,0.149 -0.19,0.292 -0.278,0.396 -0.034,0.053 -0.129,0.131 -0.192,0.195 l -0.19,0.168 C 21.531,0.559 19.973,0.859 18.479,1.017 16.971,1.157 15.396,1.176 13.878,1.142 12.344,1.08 10.813,0.869 9.277,0.669 6.215,0.27 3.106,-0.288 0,0 m 0,0 c 3.111,-0.079 6.155,0.569 9.207,1.117 1.528,0.278 3.072,0.507 4.637,0.621 1.578,0.078 3.113,0.102 4.697,0 1.555,-0.137 3.217,-0.349 4.616,-1.391 l 0.248,-0.214 c 0.074,-0.075 0.134,-0.116 0.218,-0.218 0.168,-0.187 0.29,-0.36 0.4,-0.546 0.222,-0.37 0.382,-0.755 0.516,-1.14 0.267,-0.77 0.43,-1.542 0.596,-2.302 0.164,-0.759 0.319,-1.51 0.543,-2.216 0.218,-0.694 0.542,-1.375 1.022,-1.659 0.223,-0.134 0.547,-0.184 0.848,-0.161 0.296,0.024 0.563,0.136 0.799,0.332 0.474,0.392 0.789,1.062 0.996,1.749 0.4,1.397 0.47,2.949 0.321,4.406 -0.022,0.182 -0.051,0.36 -0.087,0.531 -0.032,0.165 -0.085,0.325 -0.143,0.524 -0.101,0.29 -0.264,0.616 -0.46,0.893 -0.396,0.567 -0.952,1.037 -1.569,1.433 -1.248,0.792 -2.703,1.307 -4.147,1.904 -0.362,0.15 -0.726,0.306 -1.086,0.48 L 21.131,4.665 C 20.44,4.995 19.739,5.307 19.029,5.598 16.194,6.75 13.225,7.649 10.172,7.87 8.649,7.976 7.113,7.91 5.621,7.6 4.135,7.275 2.665,6.809 1.393,5.888 l 0.084,0.108 z"
         style="fill:#6b9404;fill-opacity:1;fill-rule:nonzero;stroke:none"
         id="path1239"
         inkscape:connector-curvature="0" />
    </g>
    <g
       id="g1241"
       transform="matrix(0.35277777,0,0,-0.35277777,59.583386,275.12626)">
      <path
         d="M 0,0 C -0.439,-0.882 -0.293,-2.942 0.441,-3.676 3.09,-6.323 5,-1.618 5.881,0.293 c 0.885,2.354 3.09,6.324 2.941,8.823 -0.146,2.5 -3.381,4.116 -5.586,4.558 z"
         style="fill:#94cb3d;fill-opacity:1;fill-rule:nonzero;stroke:none"
         id="path1243"
         inkscape:connector-curvature="0" />
    </g>
    <g
       id="g1245"
       transform="matrix(0.35277777,0,0,-0.35277777,59.583386,275.12626)">
      <path
         d="m 0,0 c 0.527,2.282 1.047,4.566 1.5,6.865 l 1.383,6.893 0.066,0.335 0.359,-0.062 c 1.46,-0.254 2.854,-0.809 4.08,-1.708 0.6,-0.459 1.159,-1.027 1.531,-1.75 C 9.104,10.206 9.235,9.835 9.298,9.389 9.344,9.008 9.327,8.597 9.283,8.223 9.09,6.706 8.529,5.36 7.958,4.045 7.379,2.734 6.7,1.477 6.155,0.19 L 6.146,0.169 V 0.171 C 5.701,-0.725 5.254,-1.648 4.691,-2.503 4.127,-3.324 3.46,-4.242 2.401,-4.504 1.877,-4.62 1.333,-4.449 0.924,-4.146 0.508,-3.856 0.145,-3.457 -0.003,-2.963 -0.309,-2.011 -0.382,-0.936 0,0 m 0,0 c -0.368,-0.939 -0.278,-2.012 0.037,-2.949 0.162,-0.48 0.528,-0.843 0.944,-1.112 0.409,-0.273 0.916,-0.411 1.381,-0.276 0.934,0.295 1.519,1.198 2.007,2.031 0.487,0.865 0.859,1.787 1.246,2.722 L 5.606,0.396 C 6.085,1.762 6.656,3.062 7.16,4.377 7.66,5.685 8.147,7.019 8.304,8.331 8.336,8.662 8.346,8.966 8.303,9.291 8.27,9.549 8.175,9.862 8.04,10.128 7.771,10.679 7.316,11.161 6.804,11.574 5.769,12.403 4.479,12.982 3.165,13.318 L 3.59,13.59 1.736,6.809 C 1.111,4.55 0.551,2.276 0,0"
         style="fill:#6b9404;fill-opacity:1;fill-rule:nonzero;stroke:none"
         id="path1247"
         inkscape:connector-curvature="0" />
    </g>
    <g
       id="g1249"
       transform="matrix(0.35277777,0,0,-0.35277777,58.390686,274.2965)">
      <path
         d="m 0,0 c 0.293,-1.323 -0.146,-3.234 0.588,-4.411 2.648,-5.44 4.998,0.736 5.734,3.383 1.032,3.087 1.912,6.468 2.205,9.704 0.444,3.822 0.735,5.881 -3.822,5.881 -1.469,0 -2.795,0 -3.822,-1.029 z"
         style="fill:#94cb3d;fill-opacity:1;fill-rule:nonzero;stroke:none"
         id="path1251"
         inkscape:connector-curvature="0" />
    </g>
    <g
       id="g1253"
       transform="matrix(0.35277777,0,0,-0.35277777,58.390686,274.2965)">
      <path
         d="m 0,0 c 0.029,2.262 0.12,4.521 0.187,6.781 l 0.294,6.773 0.006,0.138 0.112,0.12 c 0.524,0.569 1.282,0.923 2.012,1.05 C 3.347,15 4.057,14.995 4.742,15.001 5.449,15 6.167,14.967 6.898,14.788 7.612,14.622 8.431,14.193 8.835,13.423 9.23,12.67 9.253,11.889 9.246,11.179 9.226,10.462 9.161,9.77 9.074,9.086 8.935,7.737 8.735,6.329 8.445,4.981 7.875,2.26 7.031,-0.368 6.088,-2.969 5.824,-3.617 5.531,-4.255 5.174,-4.869 4.809,-5.474 4.404,-6.085 3.765,-6.534 3.45,-6.752 3.024,-6.905 2.599,-6.843 2.174,-6.784 1.83,-6.545 1.564,-6.289 1.04,-5.754 0.717,-5.121 0.428,-4.489 L 0.437,-4.504 C 0.036,-3.784 0.027,-2.986 0.029,-2.241 0.03,-1.489 0.12,-0.743 0,0 m 0,0 c 0.185,-0.73 0.185,-1.495 0.227,-2.236 0.044,-0.736 0.127,-1.501 0.511,-2.08 L 0.74,-4.318 0.748,-4.333 c 0.317,-0.591 0.683,-1.174 1.156,-1.589 0.469,-0.447 1.049,-0.515 1.524,-0.129 0.48,0.362 0.844,0.935 1.155,1.512 0.309,0.586 0.564,1.208 0.789,1.842 0.789,2.598 1.663,5.197 2.158,7.864 0.266,1.338 0.433,2.652 0.558,4.033 0.068,0.679 0.159,1.351 0.181,2.005 0.022,0.649 -0.02,1.294 -0.269,1.768 -0.482,0.964 -1.976,1.121 -3.26,1.139 -1.36,0.026 -2.704,0 -3.572,-0.868 L 1.284,13.501 0.696,6.747 C 0.469,4.498 0.265,2.247 0,0"
         style="fill:#6b9404;fill-opacity:1;fill-rule:nonzero;stroke:none"
         id="path1255"
         inkscape:connector-curvature="0" />
    </g>
    <g
       id="g1257"
       transform="matrix(0.35277777,0,0,-0.35277777,53.048036,269.26493)">
      <path
         d="m 0,0 c 3.676,-0.882 8.088,0.882 11.764,1.324 3.822,0.588 5.439,-0.295 5.439,-4.852 0,-3.383 0,-6.176 -0.883,-9.264 -0.734,-2.794 -2.939,-7.499 -4.556,-2.353 -0.883,2.647 -0.149,5.882 -0.883,8.528 0,0 -6.617,0.147 -7.5,-3.529 -0.881,-3.822 2.207,-5.145 3.971,-8.379 1.029,-1.766 2.351,-8.824 -1.618,-6.029 -1.029,0.733 -2.058,3.381 -3.234,4.41 -1.178,1.029 -3.676,2.059 -4.559,3.382 -1.47,2.206 0.588,8.675 0.735,12.351"
         style="fill:#94cb3d;fill-opacity:1;fill-rule:nonzero;stroke:none"
         id="path1259"
         inkscape:connector-curvature="0" />
    </g>
    <g
       id="g1261"
       transform="matrix(0.35277777,0,0,-0.35277777,53.048036,269.26493)">
      <path
         d="m 0,0 c 1.955,-0.405 3.951,-0.099 5.875,0.294 1.936,0.402 3.839,0.97 5.828,1.259 0.971,0.16 2,0.291 3.042,0.097 0.517,-0.103 1.046,-0.316 1.46,-0.691 0.422,-0.368 0.7,-0.858 0.886,-1.352 0.357,-0.999 0.43,-2.028 0.45,-3.034 0.014,-0.994 0.023,-1.986 0.011,-2.985 -0.027,-1.991 -0.17,-4.022 -0.683,-5.985 -0.24,-0.965 -0.546,-1.957 -0.963,-2.887 -0.209,-0.468 -0.443,-0.93 -0.741,-1.374 -0.311,-0.429 -0.63,-0.905 -1.302,-1.167 -0.34,-0.128 -0.796,-0.068 -1.088,0.125 -0.302,0.185 -0.496,0.424 -0.659,0.657 -0.318,0.472 -0.514,0.96 -0.687,1.448 -0.088,0.246 -0.161,0.501 -0.23,0.73 -0.064,0.241 -0.129,0.523 -0.174,0.775 -0.095,0.511 -0.14,1.022 -0.179,1.529 -0.128,2.016 0.052,4.013 -0.44,5.812 l 0.464,-0.36 C 8.854,-7.155 6.635,-7.438 5.04,-8.559 4.236,-9.131 3.807,-9.924 3.726,-10.938 c -0.118,-0.978 0.116,-1.927 0.642,-2.779 1.059,-1.704 2.829,-3.161 3.697,-5.31 0.393,-1.055 0.626,-2.127 0.737,-3.237 0.049,-0.555 0.064,-1.12 -0.032,-1.705 -0.05,-0.292 -0.129,-0.594 -0.291,-0.892 -0.155,-0.294 -0.465,-0.599 -0.851,-0.689 -0.777,-0.151 -1.324,0.205 -1.805,0.486 -0.226,0.142 -0.505,0.339 -0.697,0.566 -0.2,0.219 -0.364,0.448 -0.521,0.678 -0.612,0.918 -1.088,1.875 -1.69,2.718 -0.553,0.857 -1.468,1.351 -2.374,1.935 -0.899,0.577 -1.853,1.125 -2.606,1.996 -0.386,0.457 -0.567,1.033 -0.647,1.582 -0.086,0.552 -0.087,1.101 -0.063,1.643 0.053,1.085 0.216,2.149 0.399,3.205 0.353,2.115 0.876,4.195 1.052,6.33 -0.063,-2.145 -0.499,-4.257 -0.781,-6.372 -0.144,-1.057 -0.266,-2.119 -0.28,-3.174 0.004,-1.034 0.063,-2.159 0.707,-2.891 0.67,-0.746 1.612,-1.278 2.519,-1.827 0.46,-0.276 0.924,-0.545 1.38,-0.864 0.459,-0.305 0.898,-0.732 1.216,-1.179 0.662,-0.888 1.164,-1.845 1.76,-2.694 0.15,-0.209 0.304,-0.412 0.468,-0.585 0.161,-0.178 0.329,-0.287 0.557,-0.427 0.411,-0.256 0.907,-0.453 1.205,-0.362 0.273,0.053 0.464,0.472 0.526,0.947 0.067,0.473 0.05,0.987 0.003,1.495 -0.107,1.018 -0.343,2.054 -0.705,3.001 -0.37,0.904 -0.998,1.768 -1.657,2.573 -0.661,0.817 -1.414,1.603 -2.014,2.577 -0.614,0.959 -0.934,2.195 -0.793,3.353 0.013,0.145 0.039,0.296 0.06,0.442 0.03,0.141 0.042,0.24 0.088,0.416 0.08,0.295 0.182,0.588 0.336,0.856 0.292,0.543 0.717,0.996 1.191,1.344 0.953,0.704 2.046,1.07 3.126,1.316 1.093,0.241 2.176,0.346 3.304,0.341 l 0.371,-0.001 0.092,-0.359 c 0.536,-2.063 0.312,-4.092 0.431,-6.019 0.061,-0.985 0.183,-1.868 0.512,-2.79 0.152,-0.446 0.334,-0.885 0.569,-1.237 0.116,-0.173 0.25,-0.322 0.374,-0.395 0.127,-0.074 0.208,-0.084 0.339,-0.046 0.274,0.086 0.603,0.443 0.852,0.812 0.256,0.378 0.477,0.801 0.675,1.236 0.4,0.878 0.688,1.784 0.935,2.74 0.49,1.878 0.704,3.824 0.766,5.791 0.034,0.983 0.046,1.974 0.054,2.962 0.004,0.969 -0.053,1.95 -0.347,2.83 -0.28,0.89 -0.961,1.542 -1.882,1.716 C 13.72,1.31 12.741,1.208 11.76,1.086 9.813,0.875 7.883,0.378 5.924,0.043 3.977,-0.292 1.934,-0.507 0,0"
         style="fill:#6b9404;fill-opacity:1;fill-rule:nonzero;stroke:none"
         id="path1263"
         inkscape:connector-curvature="0" />
    </g>
    <g
       id="g1265"
       transform="matrix(0.35277777,0,0,-0.35277777,12.454507,272.34091)">
      <path
         d="m 0,0 c 1.072,1.251 3.039,2.68 3.932,4.468 2.144,4.289 -0.537,9.293 1.609,13.403 0.893,1.965 3.037,3.038 3.395,5.361 0.357,2.145 -1.25,3.753 -1.788,5.897 -1.072,4.826 3.038,8.579 4.112,13.046 1.25,5.719 -0.178,12.331 -1.61,17.692 -1.609,5.898 -4.109,9.829 -7.505,14.476 -2.502,3.574 -6.077,7.506 -8.043,11.437 -1.965,4.289 1.074,8.042 3.576,11.259 11.435,15.011 33.238,21.087 51.289,21.981 8.041,0.357 16.976,0.893 25.017,0 8.758,-1.073 9.295,-12.688 8.758,-20.016 -0.715,-9.65 -4.469,-19.3 -6.433,-28.772 -1.073,-5.003 -1.608,-10.186 -2.502,-15.19 -0.358,-2.68 -0.536,-5.182 -0.536,-7.863 0,-2.859 1.071,-4.11 1.608,-6.791 0.537,-2.144 0.715,-4.825 0,-6.969 -0.537,-2.145 -2.502,-3.753 -2.68,-6.255 -0.179,-2.145 0.893,-3.753 1.428,-5.719 0.715,-2.323 0.894,-4.825 1.609,-7.148 1.252,-4.647 4.647,-6.791 6.971,-10.545 1.428,-1.965 1.428,-1.428 -0.894,-3.573 -1.43,-1.609 -3.04,-2.86 -3.932,-4.825 -1.61,0.356 -2.86,1.787 -4.11,2.859 -0.179,-2.503 0,-5.004 0,-7.327 -1.072,-0.358 -2.324,-0.715 -3.576,-0.894 -0.535,3.932 -0.713,8.043 -1.07,11.974 -1.252,-0.179 -2.682,-0.179 -3.932,-0.179 0.178,-2.144 0.893,-4.289 1.43,-6.254 -1.787,-0.358 -3.396,1.429 -5.184,1.608 -0.892,-3.575 1.788,-8.399 2.502,-11.974 0.717,-4.109 -3.394,-4.647 -6.611,-6.433 -4.289,10.366 -8.4,20.73 -13.939,30.559 -2.86,-7.327 -9.653,-12.689 -14.118,-19.122 -1.966,-2.859 -4.111,-5.361 -6.255,-8.221 -1.61,-2.144 -1.252,-2.858 -3.575,-2.144 -1.252,0.536 -3.754,2.323 -4.468,3.396 3.216,3.395 4.468,7.505 6.613,11.437 -3.037,-0.894 -5.899,-2.502 -8.936,-3.038 0.358,2.323 1.787,4.647 2.502,7.149 -2.679,-1.788 -6.968,-3.396 -8.935,-5.005 z"
         style="fill:#a9e8ee;fill-opacity:1;fill-rule:nonzero;stroke:none"
         id="path1267"
         inkscape:connector-curvature="0" />
    </g>
    <g
       id="g1269"
       transform="matrix(0.35277777,0,0,-0.35277777,18.191936,263.0734)">
      <path
         d="m 0,0 c 3.334,-2.767 7.214,-4.782 11.315,-5.999 4.107,-1.226 8.39,-1.765 12.684,-1.78 4.287,-0.088 8.607,0.223 12.751,1.279 2.066,0.526 4.091,1.272 5.908,2.388 1.833,1.082 3.433,2.593 4.507,4.477 L 47.163,0.358 47.18,0.714 47.196,0.358 V 0.355 L 47.194,0.35 c -0.889,-1.989 -2.456,-3.645 -4.26,-4.889 -1.828,-1.23 -3.879,-2.084 -5.976,-2.713 -4.22,-1.223 -8.623,-1.548 -12.975,-1.523 -4.35,0.099 -8.752,0.632 -12.899,2.05 C 9.015,-6.017 7.01,-5.116 5.135,-4 3.275,-2.859 1.525,-1.541 0,0"
         style="fill:#80cbcf;fill-opacity:1;fill-rule:nonzero;stroke:none"
         id="path1271"
         inkscape:connector-curvature="0" />
    </g>
    <g
       id="g1273"
       transform="matrix(0.35277777,0,0,-0.35277777,21.154746,262.69498)">
      <path
         d="m 0,0 c 2.884,-0.012 5.756,-0.008 8.622,0.097 2.866,0.116 5.727,0.272 8.581,0.531 2.857,0.235 5.704,0.571 8.555,0.913 1.426,0.169 2.849,0.363 4.272,0.568 L 34.313,2.68 C 32.925,2.283 31.52,1.963 30.117,1.626 28.707,1.323 27.292,1.043 25.873,0.78 23.034,0.256 20.167,-0.109 17.289,-0.368 14.409,-0.604 11.519,-0.735 8.629,-0.668 5.74,-0.614 2.854,-0.423 0,0"
         style="fill:#80cbcf;fill-opacity:1;fill-rule:nonzero;stroke:none"
         id="path1275"
         inkscape:connector-curvature="0" />
    </g>
    <g
       id="g1277"
       transform="matrix(0.35277777,0,0,-0.35277777,19.011866,252.22979)">
      <path
         d="m 0,0 c 2.674,-3.099 6.326,-5.122 10.164,-6.258 3.854,-1.138 7.91,-1.542 11.929,-1.35 4.025,0.127 8.028,0.848 11.877,2.048 1.926,0.598 3.809,1.346 5.608,2.267 1.814,0.894 3.526,1.995 5.098,3.293 C 41.8,-2.922 38.068,-4.901 34.215,-6.289 30.337,-7.667 26.244,-8.398 22.132,-8.606 18.022,-8.719 13.85,-8.319 9.931,-6.987 7.979,-6.314 6.096,-5.427 4.387,-4.272 2.697,-3.096 1.165,-1.678 0,0"
         style="fill:#80cbcf;fill-opacity:1;fill-rule:nonzero;stroke:none"
         id="path1279"
         inkscape:connector-curvature="0" />
    </g>
    <g
       id="g1281"
       transform="matrix(0.35277777,0,0,-0.35277777,21.722467,251.78832)">
      <path
         d="m 0,0 c 1.746,-0.08 3.487,-0.156 5.229,-0.135 1.74,-0.01 3.479,0.034 5.211,0.148 3.464,0.226 6.914,0.626 10.304,1.325 3.393,0.68 6.723,1.658 9.926,2.964 1.601,0.653 3.162,1.41 4.662,2.279 1.52,0.84 2.955,1.825 4.342,2.89 C 38.436,8.234 37.041,7.157 35.59,6.164 34.12,5.198 32.572,4.349 30.979,3.598 27.787,2.098 24.388,1.072 20.943,0.359 17.49,-0.328 13.98,-0.708 10.47,-0.752 6.961,-0.806 3.448,-0.588 0,0"
         style="fill:#80cbcf;fill-opacity:1;fill-rule:nonzero;stroke:none"
         id="path1283"
         inkscape:connector-curvature="0" />
    </g>
    <g
       id="g1285"
       transform="matrix(0.35277777,0,0,-0.35277777,28.879305,271.50355)">
      <path
         d="m 0,0 c -1.462,2.799 -3.284,5.419 -4.29,8.491 -0.487,1.532 -0.662,3.185 -0.479,4.798 0.095,0.81 0.252,1.595 0.5,2.384 0.25,0.764 0.541,1.51 0.844,2.245 0.604,1.469 1.252,2.894 1.44,4.385 0.209,1.507 -0.088,2.978 -0.511,4.527 -0.371,1.584 -0.446,3.291 -0.068,4.908 0.367,1.617 1.058,3.085 1.712,4.522 0.66,1.447 1.419,2.823 1.822,4.291 0.426,1.46 0.601,3.005 0.268,4.45 -0.338,1.409 -1.274,2.742 -1.947,4.209 -0.342,0.738 -0.636,1.535 -0.731,2.388 -0.094,0.851 0.034,1.727 0.333,2.514 0.287,0.76 0.711,1.524 1.244,2.15 0.531,0.638 1.16,1.161 1.744,1.677 0.584,0.516 1.121,1.053 1.47,1.712 0.354,0.653 0.534,1.4 0.588,2.164 0.145,1.554 0.044,3.128 -0.295,4.66 C 3.293,67.994 2.716,69.501 1.693,70.718 2.8,69.573 3.481,68.071 3.902,66.539 4.321,65 4.503,63.387 4.431,61.785 4.402,60.974 4.229,60.141 3.852,59.389 3.478,58.631 2.889,58.016 2.309,57.472 1.724,56.925 1.146,56.413 0.682,55.818 0.209,55.222 -0.128,54.576 -0.381,53.85 -0.897,52.441 -0.607,50.946 0.074,49.578 0.719,48.181 1.687,46.892 2.126,45.209 2.521,43.56 2.329,41.855 1.891,40.289 1.669,39.501 1.383,38.737 1.053,37.997 l -1,-2.158 c -0.67,-1.427 -1.343,-2.84 -1.69,-4.314 -0.356,-1.469 -0.306,-3.002 0.025,-4.496 0.394,-1.49 0.734,-3.194 0.48,-4.841 C -1.351,20.521 -2.096,19.047 -2.728,17.62 -3.048,16.901 -3.353,16.182 -3.616,15.449 -3.863,14.737 -4.043,13.97 -4.151,13.212 -4.371,11.687 -4.243,10.123 -3.829,8.625 -3.014,5.605 -1.265,2.894 0,0"
         style="fill:#80cbcf;fill-opacity:1;fill-rule:nonzero;stroke:none"
         id="path1287"
         inkscape:connector-curvature="0" />
    </g>
    <g
       id="g1289"
       transform="matrix(0.35277777,0,0,-0.35277777,9.4916976,283.37347)">
      <path
         d="m 0,0 c 0.893,2.145 0.893,5.004 1.25,7.148 0.895,5.362 1.965,10.365 3.039,15.548 1.072,4.467 2.502,9.114 2.322,13.582 -0.177,4.467 -2.322,8.042 -1.966,12.509 0.716,9.829 4.111,19.837 5.898,29.487 0.537,2.68 3.574,10.901 2.145,13.581 -1.25,2.503 -9.473,2.86 -12.153,3.396 -1.072,0.357 -1.965,0.537 -3.037,0.715 C -3.217,87.03 -5.361,78.274 -5.719,69.16 -6.076,60.403 -7.15,51.646 -7.328,42.89 -7.506,35.206 -7.15,27.521 -7.15,19.836 c 0,-6.254 1.609,-14.654 -0.178,-20.551 z"
         style="fill:#a5cd50;fill-opacity:1;fill-rule:nonzero;stroke:none"
         id="path1291"
         inkscape:connector-curvature="0" />
    </g>
    <g
       id="g1293"
       transform="matrix(0.35277777,0,0,-0.35277777,7.5073266,280.99017)">
      <path
         d="m 0,0 c -2.188,-5.156 -7.652,-8.277 -11.557,-12.027 -2.187,-2.188 -7.341,-4.842 -7.029,-7.655 0.313,-2.812 3.123,-7.341 4.998,-9.371 1.094,-1.25 2.811,-2.656 4.373,-3.281 2.188,-0.781 2.031,-0.469 2.656,1.875 1.094,3.279 2.344,6.248 3.907,9.371 1.091,2.031 4.373,10.154 6.091,4.688 1.092,-3.282 -1.562,-6.719 -0.626,-9.998 0.626,-2.03 2.968,-4.373 5.156,-3.905 0.156,2.342 -0.469,4.686 -0.311,7.184 0.154,2.5 1.248,4.531 2.028,7.029 1.252,4.531 -2.342,7.967 -4.686,11.717"
         style="fill:#94cb3d;fill-opacity:1;fill-rule:nonzero;stroke:none"
         id="path1295"
         inkscape:connector-curvature="0" />
    </g>
    <g
       id="g1297"
       transform="matrix(0.35277777,0,0,-0.35277777,7.5073266,280.99017)">
      <path
         d="m 0,0 c -1.341,-3.384 -4.117,-5.922 -6.817,-8.24 -1.363,-1.172 -2.752,-2.306 -4.054,-3.522 -1.247,-1.3 -2.764,-2.359 -4.14,-3.467 -0.692,-0.558 -1.368,-1.134 -1.958,-1.77 -0.578,-0.631 -1.104,-1.349 -1.221,-2.11 -0.036,-0.187 -0.029,-0.378 -0.01,-0.557 0.032,-0.233 0.064,-0.417 0.116,-0.629 0.098,-0.415 0.23,-0.828 0.383,-1.235 0.305,-0.817 0.693,-1.61 1.106,-2.388 1.687,-3.074 3.851,-6.069 6.919,-7.697 0.383,-0.203 0.752,-0.344 1.173,-0.473 0.382,-0.139 0.885,-0.206 0.886,-0.136 0.096,0.043 0.265,0.548 0.36,0.95 l 0.166,0.65 c 0.033,0.123 0.044,0.188 0.098,0.359 l 0.108,0.319 c 0.573,1.703 1.218,3.406 1.926,5.064 0.699,1.661 1.494,3.302 2.307,4.888 0.802,1.606 1.556,3.26 2.745,4.749 0.313,0.364 0.646,0.733 1.163,0.999 0.256,0.128 0.597,0.218 0.947,0.149 0.35,-0.069 0.627,-0.273 0.817,-0.482 0.382,-0.426 0.572,-0.883 0.74,-1.331 0.082,-0.222 0.151,-0.458 0.212,-0.668 0.062,-0.251 0.11,-0.494 0.139,-0.733 0.228,-1.958 -0.432,-3.741 -0.795,-5.447 -0.4,-1.703 -0.461,-3.466 0.552,-4.849 0.462,-0.701 1.058,-1.33 1.754,-1.782 0.69,-0.449 1.506,-0.705 2.269,-0.548 l -0.295,-0.34 c 0.167,2.221 -0.382,4.517 -0.258,6.878 0.085,2.403 1.136,4.561 1.896,6.693 0.418,1.048 0.597,2.177 0.475,3.293 -0.112,1.119 -0.51,2.201 -1.026,3.217 -1.044,2.035 -2.506,3.843 -3.683,5.823 1.263,-1.925 2.789,-3.664 3.909,-5.704 0.557,-1.016 1.006,-2.118 1.162,-3.292 0.166,-1.171 0.011,-2.386 -0.389,-3.489 -0.719,-2.197 -1.704,-4.31 -1.73,-6.566 -0.083,-2.252 0.513,-4.513 0.39,-6.903 l -0.015,-0.278 -0.28,-0.063 c -1.016,-0.227 -2.043,0.099 -2.852,0.604 -0.819,0.512 -1.499,1.2 -2.032,1.99 -0.534,0.775 -0.914,1.747 -0.965,2.707 -0.075,0.963 0.07,1.901 0.258,2.795 0.379,1.775 0.965,3.491 0.749,5.144 -0.102,0.742 -0.431,1.719 -0.863,2.211 -0.242,0.239 -0.374,0.26 -0.671,0.128 -0.287,-0.144 -0.586,-0.443 -0.849,-0.762 -1.051,-1.329 -1.809,-2.971 -2.592,-4.573 -0.806,-1.615 -1.574,-3.208 -2.286,-4.847 -0.71,-1.638 -1.349,-3.289 -1.93,-4.984 l -0.111,-0.317 -0.079,-0.29 -0.171,-0.653 c -0.059,-0.22 -0.119,-0.444 -0.206,-0.683 -0.091,-0.23 -0.186,-0.525 -0.518,-0.781 -0.363,-0.255 -0.744,-0.212 -0.993,-0.175 -0.266,0.045 -0.496,0.113 -0.719,0.184 -0.437,0.136 -0.907,0.32 -1.316,0.542 -1.657,0.891 -3.054,2.143 -4.231,3.552 -1.171,1.419 -2.156,2.949 -3.014,4.56 -0.427,0.806 -0.805,1.64 -1.115,2.51 -0.153,0.435 -0.288,0.88 -0.387,1.341 -0.051,0.225 -0.091,0.485 -0.116,0.696 -0.025,0.267 -0.023,0.529 0.025,0.784 0.194,1.03 0.83,1.799 1.456,2.469 0.644,0.668 1.351,1.245 2.065,1.799 1.437,1.113 2.902,2.089 4.173,3.361 1.342,1.213 2.77,2.306 4.17,3.424 C -4.3,-5.71 -1.507,-3.303 0,0"
         style="fill:#6b9404;fill-opacity:1;fill-rule:nonzero;stroke:none"
         id="path1299"
         inkscape:connector-curvature="0" />
    </g>
    <g
       id="g1301"
       transform="matrix(0.35277777,0,0,-0.35277777,2.6587055,286.22462)">
      <path
         d="m 0,0 c -0.625,-2.813 -1.562,-5.623 -2.5,-8.436 -0.938,-2.187 -1.562,-4.062 -0.467,-6.25 0.779,-1.404 3.748,-6.248 4.996,-6.871 1.25,2.655 0.938,6.561 1.407,9.528 0.312,2.5 0.47,4.998 0.781,7.498"
         style="fill:#94cb3d;fill-opacity:1;fill-rule:nonzero;stroke:none"
         id="path1303"
         inkscape:connector-curvature="0" />
    </g>
    <g
       id="g1305"
       transform="matrix(0.35277777,0,0,-0.35277777,2.6587055,286.22462)">
      <path
         d="M 0,0 C -0.225,-1.452 -0.575,-2.887 -0.94,-4.311 -1.305,-5.737 -1.753,-7.139 -2.174,-8.544 L -2.176,-8.55 -2.184,-8.571 c -0.461,-1.155 -0.874,-2.325 -0.922,-3.484 -0.026,-0.578 0.06,-1.147 0.246,-1.69 0.09,-0.264 0.216,-0.551 0.342,-0.776 l 0.474,-0.798 c 0.645,-1.064 1.318,-2.115 2.028,-3.131 0.358,-0.505 0.713,-1.011 1.094,-1.487 0.364,-0.456 0.812,-0.98 1.168,-1.186 L 1.591,-21.35 c 0.562,1.212 0.798,2.61 0.955,4.01 0.145,1.408 0.239,2.843 0.418,4.285 0.234,1.431 0.402,2.839 0.604,4.262 0.203,1.421 0.379,2.85 0.649,4.262 L 3.984,-8.832 c -0.061,-1.434 -0.203,-2.879 -0.343,-4.292 -0.108,-1.413 -0.093,-2.85 -0.221,-4.299 -0.128,-1.442 -0.306,-2.933 -0.952,-4.341 l -0.223,-0.485 -0.433,0.259 c -0.73,0.436 -1.069,0.935 -1.504,1.434 -0.405,0.503 -0.785,1.014 -1.142,1.539 -0.718,1.048 -1.39,2.117 -2.035,3.204 -0.162,0.273 -0.319,0.548 -0.472,0.83 -0.17,0.328 -0.286,0.623 -0.392,0.954 -0.204,0.649 -0.288,1.344 -0.239,2.019 0.09,1.364 0.642,2.566 1.156,3.71 l -0.01,-0.027 1.481,4.14 C -0.852,-2.807 -0.413,-1.412 0,0"
         style="fill:#6b9404;fill-opacity:1;fill-rule:nonzero;stroke:none"
         id="path1307"
         inkscape:connector-curvature="0" />
    </g>
    <g
       id="g1309"
       transform="matrix(0.35277777,0,0,-0.35277777,3.0996855,286.44581)">
      <path
         d="m 0,0 c 1.562,-4.996 -0.937,-9.371 -0.937,-14.369 0,-3.125 0.468,-6.248 0.625,-9.217 0.156,-1.562 -0.313,-3.906 1.718,-3.594 1.407,0.313 2.186,3.282 2.498,4.375 0.782,3.28 0.157,6.873 0.782,10.153 0.468,2.812 1.718,5.312 2.343,8.123"
         style="fill:#94cb3d;fill-opacity:1;fill-rule:nonzero;stroke:none"
         id="path1311"
         inkscape:connector-curvature="0" />
    </g>
    <g
       id="g1313"
       transform="matrix(0.35277777,0,0,-0.35277777,3.0996855,286.44581)">
      <path
         d="m 0,0 c 0.779,-2.059 0.771,-4.347 0.48,-6.515 -0.306,-2.177 -0.834,-4.301 -0.97,-6.439 -0.107,-2.116 0.089,-4.299 0.296,-6.456 0.105,-1.084 0.219,-2.171 0.302,-3.268 0.035,-0.554 0.089,-1.085 0.107,-1.655 0.015,-0.551 0.015,-1.088 0.099,-1.555 0.041,-0.23 0.104,-0.441 0.194,-0.575 0.089,-0.137 0.184,-0.195 0.348,-0.237 0.143,-0.03 0.444,-0.028 0.56,0.029 0.117,0.042 0.313,0.178 0.457,0.338 0.619,0.692 1.003,1.736 1.326,2.735 0.709,2.024 0.683,4.154 0.775,6.344 0.034,1.091 0.077,2.193 0.208,3.295 0.139,1.102 0.368,2.186 0.691,3.243 0.671,2.101 1.574,4.079 2.156,6.187 -0.361,-2.16 -1.186,-4.216 -1.683,-6.318 -0.265,-1.043 -0.448,-2.109 -0.535,-3.175 -0.082,-1.071 -0.08,-2.151 -0.068,-3.241 0.013,-1.09 0.028,-2.189 -0.064,-3.299 -0.076,-1.095 -0.268,-2.275 -0.61,-3.304 -0.341,-1.06 -0.673,-2.146 -1.493,-3.115 -0.225,-0.238 -0.463,-0.457 -0.859,-0.609 -0.397,-0.128 -0.663,-0.121 -1.054,-0.069 -0.371,0.063 -0.772,0.315 -0.976,0.644 -0.215,0.323 -0.3,0.65 -0.356,0.953 -0.098,0.611 -0.082,1.169 -0.093,1.708 -0.008,0.52 -0.055,1.076 -0.081,1.61 -0.067,1.08 -0.166,2.163 -0.256,3.252 -0.162,2.181 -0.388,4.366 -0.154,6.604 0.239,2.217 0.855,4.325 1.252,6.451 C 0.442,-4.323 0.559,-2.123 0,0"
         style="fill:#6b9404;fill-opacity:1;fill-rule:nonzero;stroke:none"
         id="path1315"
         inkscape:connector-curvature="0" />
    </g>
    <g
       id="g1317"
       transform="matrix(0.35277777,0,0,-0.35277777,4.8628666,287.60267)">
      <path
         d="m 0,0 c 0,-4.375 -1.875,-8.279 -1.562,-12.496 0.156,-3.281 0.468,-6.717 1.406,-9.842 1.406,-5.31 3.904,-1.562 4.06,2.031 0.315,4.686 -0.466,8.436 1.094,12.809 0.783,2.344 1.633,11.336 3.818,11.961"
         style="fill:#94cb3d;fill-opacity:1;fill-rule:nonzero;stroke:none"
         id="path1319"
         inkscape:connector-curvature="0" />
    </g>
    <g
       id="g1321"
       transform="matrix(0.35277777,0,0,-0.35277777,4.8628666,287.60267)">
      <path
         d="m 0,0 c 0.117,-2.397 -0.422,-4.772 -0.813,-7.11 -0.208,-1.169 -0.391,-2.339 -0.439,-3.508 -0.024,-0.584 -0.017,-1.167 0.032,-1.745 l 0.137,-1.783 c 0.221,-2.36 0.478,-4.715 1.068,-6.987 0.32,-1.101 0.578,-2.363 1.202,-3.104 0.343,-0.345 0.487,-0.343 0.861,-0.031 0.335,0.321 0.6,0.827 0.803,1.335 0.427,1.051 0.576,2.14 0.616,3.341 0.063,1.172 0.064,2.357 0.061,3.549 -0.004,2.373 -0.012,4.844 0.667,7.205 0.151,0.578 0.382,1.19 0.556,1.711 0.164,0.55 0.292,1.132 0.418,1.711 0.251,1.161 0.477,2.334 0.746,3.5 0.275,1.164 0.572,2.327 0.96,3.464 0.197,0.566 0.415,1.13 0.7,1.661 C 7.869,3.716 8.222,4.29 8.816,4.463 8.244,4.242 7.955,3.661 7.707,3.144 7.465,2.605 7.282,2.041 7.123,1.471 6.81,0.328 6.587,-0.84 6.385,-2.012 L 5.778,-5.536 C 5.673,-6.126 5.567,-6.715 5.414,-7.314 5.233,-7.932 5.059,-8.443 4.929,-9.025 c -0.532,-2.273 -0.538,-4.629 -0.493,-7.011 0.018,-1.193 0.032,-2.394 -0.017,-3.603 -0.023,-1.177 -0.17,-2.494 -0.641,-3.663 -0.244,-0.59 -0.534,-1.175 -1.065,-1.683 -0.263,-0.242 -0.65,-0.497 -1.149,-0.478 -0.501,0.026 -0.865,0.327 -1.095,0.595 -0.469,0.563 -0.684,1.165 -0.883,1.758 -0.185,0.61 -0.331,1.149 -0.483,1.756 -0.564,2.359 -0.852,4.762 -0.954,7.157 l -0.068,1.788 c -0.027,0.612 -0.013,1.224 0.036,1.83 0.099,1.212 0.327,2.398 0.589,3.565 C -0.737,-4.688 -0.111,-2.392 0,0"
         style="fill:#6b9404;fill-opacity:1;fill-rule:nonzero;stroke:none"
         id="path1323"
         inkscape:connector-curvature="0" />
    </g>
    <g
       id="g1325"
       transform="matrix(0.35277777,0,0,-0.35277777,5.8509266,251.74112)">
      <path
         d="m 0,0 c 5.361,0.804 7.771,9.65 8.578,14.073 0.535,3.887 1.826,17.53 4.824,19.837 3.485,2.68 7.371,-3.217 8.711,-5.094 1.879,-2.412 2.547,-7.237 3.354,-10.32 1.875,-5.897 0.4,-13.269 0.4,-19.434 0,-2.949 -0.267,-5.898 0.268,-8.712 -3.752,-0.402 -9.783,6.701 -10.186,10.186 -0.135,-3.887 -1.072,-8.444 -0.402,-12.197 -1.072,2.145 -2.412,5.227 -3.887,6.97 -2.414,-2.279 -5.629,-2.413 -8.445,-3.753 0.537,2.815 2.146,6.97 3.486,9.248 z"
         style="fill:#bbf1f4;fill-opacity:1;fill-rule:nonzero;stroke:none"
         id="path1327"
         inkscape:connector-curvature="0" />
    </g>
    <g
       id="g1329"
       transform="matrix(0.35277777,0,0,-0.35277777,23.487067,228.61971)">
      <path
         d="m 0,0 c -0.268,1.475 -1.34,2.949 -2.01,4.289 -1.205,2.413 -2.011,4.959 -2.949,7.372 -2.145,5.763 -5.094,13.134 -2.01,19.032 3.084,6.165 8.981,8.042 15.28,8.31 -0.938,2.279 -4.155,5.362 -1.875,8.042 2.009,-1.474 3.884,-5.629 4.421,-8.042 0.938,1.876 2.547,6.434 4.557,7.372 0.268,-2.547 -1.072,-4.959 -2.01,-7.237 5.227,1.473 13.672,-0.939 17.825,-4.424 4.826,-4.021 4.423,-12.331 3.353,-17.96 C 33.91,13.403 32.84,10.187 31.498,7.238 30.291,4.423 28.014,-1.34 25.197,-2.546 Z"
         style="fill:#003f61;fill-opacity:1;fill-rule:nonzero;stroke:none"
         id="path1331"
         inkscape:connector-curvature="0" />
    </g>
    <g
       id="g1333"
       transform="matrix(0.35277777,0,0,-0.35277777,26.009566,229.09236)">
      <path
         d="m 0,0 c -6.793,0.714 -9.293,-6.97 -11.617,-11.795 -2.322,-4.825 -4.289,-9.472 -7.684,-13.582 -2.681,-3.038 -6.076,-5.54 -8.935,-8.399 3.037,0 5.718,0.536 8.578,0.536 3.752,0.178 5.181,-0.536 8.041,-2.68 1.609,-1.252 3.396,-2.325 4.824,-3.753 0.895,-1.073 1.789,-2.86 3.219,-3.575 3.394,-1.251 3.931,3.038 6.433,3.932 1.608,-3.753 5.182,-7.149 7.327,-10.723 1.966,3.217 4.646,6.791 8.22,8.042 3.397,1.251 6.791,0 6.791,4.11 0,4.468 -0.892,5.719 4.467,6.434 3.039,0.357 6.791,0.715 9.65,1.787 -7.863,5.004 -8.933,32.525 -21.445,29.487 z"
         style="fill:#cefeff;fill-opacity:1;fill-rule:nonzero;stroke:none"
         id="path1335"
         inkscape:connector-curvature="0" />
    </g>
    <g
       id="g1337"
       transform="matrix(0.35277777,0,0,-0.35277777,29.540095,245.61023)">
      <path
         d="m 0,0 c -0.717,2.145 -1.252,4.468 -2.146,6.612 -1.071,3.038 -1.786,2.681 -4.825,3.575 -3.574,1.072 -7.506,1.787 -11.258,3.038 -5.718,2.144 -3.753,4.825 -1.429,9.471 3.931,8.399 7.328,16.441 17.691,17.157 10.545,0.893 15.012,-6.434 17.334,-15.727 0.36,-1.966 1.967,-4.825 1.074,-6.791 C 15.547,15.547 11.973,14.297 10.186,12.867 7.146,10.544 3.572,6.434 1.965,2.681 Z"
         style="fill:#a5cd50;fill-opacity:1;fill-rule:nonzero;stroke:none"
         id="path1339"
         inkscape:connector-curvature="0" />
    </g>
    <g
       id="g1341"
       transform="matrix(0.35277777,0,0,-0.35277777,25.505196,234.45138)">
      <path
         d="m 0,0 c 0.715,-5.003 5.002,-16.262 11.08,-16.62 6.611,-0.357 6.969,12.331 6.969,16.977 z"
         style="fill:#6b9404;fill-opacity:1;fill-rule:nonzero;stroke:none"
         id="path1343"
         inkscape:connector-curvature="0" />
    </g>
    <g
       id="g1345"
       transform="matrix(0.35277777,0,0,-0.35277777,33.952567,225.68809)">
      <path
         d="M 0,0 C 1.607,3.396 5.898,2.144 6.613,-1.072 7.686,-6.255 3.039,-13.582 -2.5,-13.225 Z"
         style="fill:#6b9404;fill-opacity:1;fill-rule:nonzero;stroke:none"
         id="path1347"
         inkscape:connector-curvature="0" />
    </g>
    <g
       id="g1349"
       transform="matrix(0.35277777,0,0,-0.35277777,22.605116,225.97197)">
      <path
         d="m 0,0 c -3.396,1.877 -7.238,-1.162 -7.148,-4.735 0.087,-4.915 4.824,-9.74 10.005,-8.131 0.538,0.178 0.985,0.267 1.43,0.714 z"
         style="fill:#6b9404;fill-opacity:1;fill-rule:nonzero;stroke:none"
         id="path1351"
         inkscape:connector-curvature="0" />
    </g>
    <g
       id="g1353"
       transform="matrix(0.35277777,0,0,-0.35277777,32.234856,219.77768)">
      <path
         d="m 0,0 c -1.072,-4.691 -3.619,-7.774 -6.703,-11.258 0,1.741 0,3.618 -0.401,5.361 -0.402,-2.145 -2.681,-4.959 -4.556,-5.898 0.535,4.155 1.205,8.31 0,12.465 -0.805,-4.155 -4.692,-10.722 -8.313,-13.135 0.27,3.351 0.27,6.702 0.137,10.052 -0.805,-3.083 -2.814,-8.443 -6.166,-9.516 0.69,-3.102 2.742,-8.462 0.619,-11.535 0.922,-4.377 1.817,-8.787 3,-13.126 1.742,-6.702 4.557,-11.393 12.063,-12.599 7.506,-1.207 11.392,2.278 13.402,9.248 1.609,6.165 2.547,12.062 2.949,18.362 0.182,2.988 0.6,6.391 0.846,9.858 C 2.838,-9.201 0.207,-5.61 0,0"
         style="fill:#a5cd50;fill-opacity:1;fill-rule:nonzero;stroke:none"
         id="path1355"
         inkscape:connector-curvature="0" />
    </g>
    <g
       id="g1357"
       transform="matrix(0.35277777,0,0,-0.35277777,27.742446,235.14473)">
      <path
         d="M 0,0 C 2.146,3.351 7.104,4.423 8.578,-0.537 Z"
         style="fill:#fefdcd;fill-opacity:1;fill-rule:nonzero;stroke:none"
         id="path1359"
         inkscape:connector-curvature="0" />
    </g>
    <g
       id="g1361"
       transform="matrix(0.35277777,0,0,-0.35277777,29.949385,227.92622)">
      <path
         d="m 0,0 c 0.484,-0.851 0.866,-1.756 1.374,-2.568 0.464,-0.845 1.091,-1.512 1.761,-2.23 0.666,-0.711 1.329,-1.456 1.871,-2.344 0.268,-0.444 0.489,-0.941 0.603,-1.492 0.056,-0.273 0.079,-0.566 0.063,-0.851 -0.011,-0.24 -0.052,-0.563 -0.125,-0.82 -0.285,-1.133 -1.291,-1.98 -2.295,-2.298 -1.019,-0.335 -2.055,-0.391 -3.057,-0.31 -1.987,0.18 -3.97,0.748 -5.556,1.923 0.878,-0.428 1.809,-0.689 2.755,-0.857 0.939,-0.183 1.892,-0.281 2.833,-0.286 0.935,0.011 1.879,0.093 2.699,0.42 0.823,0.306 1.463,0.88 1.657,1.674 0.245,0.831 0.059,1.619 -0.396,2.429 -0.43,0.803 -1.047,1.54 -1.642,2.306 -0.608,0.743 -1.237,1.59 -1.606,2.515 C 0.562,-1.866 0.277,-0.939 0,0"
         style="fill:#6b9404;fill-opacity:1;fill-rule:nonzero;stroke:none"
         id="path1363"
         inkscape:connector-curvature="0" />
    </g>
    <g
       id="g1365"
       transform="matrix(0.35277777,0,0,-0.35277777,25.063516,225.15221)">
      <path
         d="M 0,0 C 0.824,0.035 1.507,0.041 2.2,0.04 2.885,0.032 3.553,0.006 4.22,-0.038 4.887,-0.08 5.551,-0.146 6.229,-0.229 L 8.398,-0.537 C 7.881,-1.201 7.122,-1.563 6.381,-1.793 5.629,-2.013 4.851,-2.085 4.085,-2.033 3.319,-1.98 2.56,-1.803 1.846,-1.487 1.143,-1.161 0.445,-0.711 0,0"
         style="fill:#004067;fill-opacity:1;fill-rule:nonzero;stroke:none"
         id="path1367"
         inkscape:connector-curvature="0" />
    </g>
    <g
       id="g1369"
       transform="matrix(0.35277777,0,0,-0.35277777,30.232565,224.58498)">
      <path
         d="M 0,0 C -0.051,0.882 0.538,1.72 1.237,2.245 1.951,2.778 2.787,3.07 3.614,3.192 4.445,3.312 5.283,3.258 6.081,3.046 6.869,2.822 7.661,2.457 8.223,1.788 L 3.897,1.213 C 3.233,1.116 2.59,1.014 1.959,0.854 1.322,0.692 0.71,0.489 0,0"
         style="fill:#004067;fill-opacity:1;fill-rule:nonzero;stroke:none"
         id="path1371"
         inkscape:connector-curvature="0" />
    </g>
    <g
       id="g1373"
       transform="matrix(0.35277777,0,0,-0.35277777,28.215806,227.80028)">
      <path
         d="m 0,0 c 0,-1.924 -2.141,-3.484 -4.781,-3.484 -2.641,0 -4.782,1.56 -4.782,3.484 0,1.925 2.141,3.485 4.782,3.485 C -2.141,3.485 0,1.925 0,0"
         style="fill:#fefdcd;fill-opacity:1;fill-rule:nonzero;stroke:none"
         id="path1375"
         inkscape:connector-curvature="0" />
    </g>
    <g
       id="g1377"
       transform="matrix(0.35277777,0,0,-0.35277777,33.637677,227.12245)">
      <path
         d="m 0,0 c 0,-2.259 -1.941,-4.09 -4.334,-4.09 -2.395,0 -4.334,1.831 -4.334,4.09 0,2.259 1.939,4.09 4.334,4.09 C -1.941,4.09 0,2.259 0,0"
         style="fill:#fefdcd;fill-opacity:1;fill-rule:nonzero;stroke:none"
         id="path1379"
         inkscape:connector-curvature="0" />
    </g>
  </g>
</svg>
